solid ascii
  facet normal 0.0000000e+000 -8.773164e-001 4.7991230e-001
    outer loop
      vertex   6.0000000e+001 1.9284030e-002 1.5903300e-001
      vertex   1.0000000e-006 1.9284030e-002 1.5903300e-001
      vertex   6.0000000e+001 6.7558040e-003 1.3613040e-001
    endloop
  endfacet
  facet normal 0.0000000e+000 -8.773164e-001 4.7991230e-001
    outer loop
      vertex   6.0000000e+001 6.7558040e-003 1.3613040e-001
      vertex   1.0000000e-006 1.9284030e-002 1.5903300e-001
      vertex   1.0000000e-006 6.7558040e-003 1.3613040e-001
    endloop
  endfacet
  facet normal 0.0000000e+000 -9.716330e-001 2.3649370e-001
    outer loop
      vertex   6.0000000e+001 6.7558040e-003 1.3613040e-001
      vertex   1.0000000e-006 6.7558040e-003 1.3613040e-001
      vertex   6.0000000e+001 5.8208050e-004 1.1076570e-001
    endloop
  endfacet
  facet normal 0.0000000e+000 -9.716330e-001 2.3649370e-001
    outer loop
      vertex   6.0000000e+001 5.8208050e-004 1.1076570e-001
      vertex   1.0000000e-006 6.7558040e-003 1.3613040e-001
      vertex   1.0000000e-006 5.8208050e-004 1.1076570e-001
    endloop
  endfacet
  facet normal 0.0000000e+000 -9.997345e-001 -2.304181e-002
    outer loop
      vertex   6.0000000e+001 5.8208050e-004 1.1076570e-001
      vertex   1.0000000e-006 5.8208050e-004 1.1076570e-001
      vertex   6.0000000e+001 1.1835930e-003 8.4667380e-002
    endloop
  endfacet
  facet normal 0.0000000e+000 -9.997345e-001 -2.304181e-002
    outer loop
      vertex   6.0000000e+001 1.1835930e-003 8.4667380e-002
      vertex   1.0000000e-006 5.8208050e-004 1.1076570e-001
      vertex   1.0000000e-006 1.1835930e-003 8.4667380e-002
    endloop
  endfacet
  facet normal 0.0000000e+000 -9.597057e-001 -2.810070e-001
    outer loop
      vertex   6.0000000e+001 1.1835930e-003 8.4667380e-002
      vertex   1.0000000e-006 1.1835930e-003 8.4667380e-002
      vertex   6.0000000e+001 8.5193480e-003 5.9614030e-002
    endloop
  endfacet
  facet normal 0.0000000e+000 -9.597057e-001 -2.810070e-001
    outer loop
      vertex   6.0000000e+001 8.5193480e-003 5.9614030e-002
      vertex   1.0000000e-006 1.1835930e-003 8.4667380e-002
      vertex   1.0000000e-006 8.5193480e-003 5.9614030e-002
    endloop
  endfacet
  facet normal 0.0000000e+000 -8.542746e-001 -5.198219e-001
    outer loop
      vertex   6.0000000e+001 8.5193480e-003 5.9614030e-002
      vertex   1.0000000e-006 8.5193480e-003 5.9614030e-002
      vertex   6.0000000e+001 2.2089430e-002 3.7312990e-002
    endloop
  endfacet
  facet normal 0.0000000e+000 -8.542746e-001 -5.198219e-001
    outer loop
      vertex   6.0000000e+001 2.2089430e-002 3.7312990e-002
      vertex   1.0000000e-006 8.5193480e-003 5.9614030e-002
      vertex   1.0000000e-006 2.2089430e-002 3.7312990e-002
    endloop
  endfacet
  facet normal 0.0000000e+000 -6.906260e-001 -7.232121e-001
    outer loop
      vertex   6.0000000e+001 2.2089430e-002 3.7312990e-002
      vertex   1.0000000e-006 2.2089430e-002 3.7312990e-002
      vertex   6.0000000e+001 4.0969050e-002 1.9284030e-002
    endloop
  endfacet
  facet normal 0.0000000e+000 -6.906260e-001 -7.232121e-001
    outer loop
      vertex   6.0000000e+001 4.0969050e-002 1.9284030e-002
      vertex   1.0000000e-006 2.2089430e-002 3.7312990e-002
      vertex   1.0000000e-006 4.0969050e-002 1.9284030e-002
    endloop
  endfacet
  facet normal 0.0000000e+000 -4.799125e-001 -8.773164e-001
    outer loop
      vertex   6.0000000e+001 4.0969050e-002 1.9284030e-002
      vertex   1.0000000e-006 4.0969050e-002 1.9284030e-002
      vertex   6.0000000e+001 6.3871600e-002 6.7558040e-003
    endloop
  endfacet
  facet normal 0.0000000e+000 -4.799125e-001 -8.773164e-001
    outer loop
      vertex   6.0000000e+001 6.3871600e-002 6.7558040e-003
      vertex   1.0000000e-006 4.0969050e-002 1.9284030e-002
      vertex   1.0000000e-006 6.3871600e-002 6.7558040e-003
    endloop
  endfacet
  facet normal 0.0000000e+000 -2.364936e-001 -9.716330e-001
    outer loop
      vertex   6.0000000e+001 6.3871600e-002 6.7558040e-003
      vertex   1.0000000e-006 6.3871600e-002 6.7558040e-003
      vertex   6.0000000e+001 8.9236310e-002 5.8208050e-004
    endloop
  endfacet
  facet normal 0.0000000e+000 -2.364936e-001 -9.716330e-001
    outer loop
      vertex   6.0000000e+001 8.9236310e-002 5.8208050e-004
      vertex   1.0000000e-006 6.3871600e-002 6.7558040e-003
      vertex   1.0000000e-006 8.9236310e-002 5.8208050e-004
    endloop
  endfacet
  facet normal 0.0000000e+000 2.3041810e-002 -9.997345e-001
    outer loop
      vertex   6.0000000e+001 8.9236310e-002 5.8208050e-004
      vertex   1.0000000e-006 8.9236310e-002 5.8208050e-004
      vertex   6.0000000e+001 1.1533460e-001 1.1835930e-003
    endloop
  endfacet
  facet normal 0.0000000e+000 2.3041810e-002 -9.997345e-001
    outer loop
      vertex   6.0000000e+001 1.1533460e-001 1.1835930e-003
      vertex   1.0000000e-006 8.9236310e-002 5.8208050e-004
      vertex   1.0000000e-006 1.1533460e-001 1.1835930e-003
    endloop
  endfacet
  facet normal 0.0000000e+000 2.8100700e-001 -9.597057e-001
    outer loop
      vertex   6.0000000e+001 1.1533460e-001 1.1835930e-003
      vertex   1.0000000e-006 1.1533460e-001 1.1835930e-003
      vertex   6.0000000e+001 1.4038800e-001 8.5193480e-003
    endloop
  endfacet
  facet normal 0.0000000e+000 2.8100700e-001 -9.597057e-001
    outer loop
      vertex   6.0000000e+001 1.4038800e-001 8.5193480e-003
      vertex   1.0000000e-006 1.1533460e-001 1.1835930e-003
      vertex   1.0000000e-006 1.4038800e-001 8.5193480e-003
    endloop
  endfacet
  facet normal 0.0000000e+000 5.1982190e-001 -8.542746e-001
    outer loop
      vertex   6.0000000e+001 1.4038800e-001 8.5193480e-003
      vertex   1.0000000e-006 1.4038800e-001 8.5193480e-003
      vertex   6.0000000e+001 1.6268900e-001 2.2089430e-002
    endloop
  endfacet
  facet normal 0.0000000e+000 5.1982190e-001 -8.542746e-001
    outer loop
      vertex   6.0000000e+001 1.6268900e-001 2.2089430e-002
      vertex   1.0000000e-006 1.4038800e-001 8.5193480e-003
      vertex   1.0000000e-006 1.6268900e-001 2.2089430e-002
    endloop
  endfacet
  facet normal 0.0000000e+000 7.2321210e-001 -6.906260e-001
    outer loop
      vertex   6.0000000e+001 1.6268900e-001 2.2089430e-002
      vertex   1.0000000e-006 1.6268900e-001 2.2089430e-002
      vertex   6.0000000e+001 1.8071800e-001 4.0969050e-002
    endloop
  endfacet
  facet normal 0.0000000e+000 7.2321210e-001 -6.906260e-001
    outer loop
      vertex   6.0000000e+001 1.8071800e-001 4.0969050e-002
      vertex   1.0000000e-006 1.6268900e-001 2.2089430e-002
      vertex   1.0000000e-006 1.8071800e-001 4.0969050e-002
    endloop
  endfacet
  facet normal 0.0000000e+000 8.7731640e-001 -4.799125e-001
    outer loop
      vertex   6.0000000e+001 1.8071800e-001 4.0969050e-002
      vertex   1.0000000e-006 1.8071800e-001 4.0969050e-002
      vertex   6.0000000e+001 1.9324620e-001 6.3871600e-002
    endloop
  endfacet
  facet normal 0.0000000e+000 8.7731640e-001 -4.799125e-001
    outer loop
      vertex   6.0000000e+001 1.9324620e-001 6.3871600e-002
      vertex   1.0000000e-006 1.8071800e-001 4.0969050e-002
      vertex   1.0000000e-006 1.9324620e-001 6.3871600e-002
    endloop
  endfacet
  facet normal 0.0000000e+000 9.7163310e-001 -2.364933e-001
    outer loop
      vertex   6.0000000e+001 1.9324620e-001 6.3871600e-002
      vertex   1.0000000e-006 1.9324620e-001 6.3871600e-002
      vertex   6.0000000e+001 1.9941990e-001 8.9236310e-002
    endloop
  endfacet
  facet normal 0.0000000e+000 9.7163310e-001 -2.364933e-001
    outer loop
      vertex   6.0000000e+001 1.9941990e-001 8.9236310e-002
      vertex   1.0000000e-006 1.9324620e-001 6.3871600e-002
      vertex   1.0000000e-006 1.9941990e-001 8.9236310e-002
    endloop
  endfacet
  facet normal 0.0000000e+000 9.9973450e-001 2.3041930e-002
    outer loop
      vertex   6.0000000e+001 1.9941990e-001 8.9236310e-002
      vertex   1.0000000e-006 1.9941990e-001 8.9236310e-002
      vertex   6.0000000e+001 1.9881840e-001 1.1533460e-001
    endloop
  endfacet
  facet normal 0.0000000e+000 9.9973450e-001 2.3041930e-002
    outer loop
      vertex   6.0000000e+001 1.9881840e-001 1.1533460e-001
      vertex   1.0000000e-006 1.9941990e-001 8.9236310e-002
      vertex   1.0000000e-006 1.9881840e-001 1.1533460e-001
    endloop
  endfacet
  facet normal 0.0000000e+000 9.5970580e-001 2.8100700e-001
    outer loop
      vertex   6.0000000e+001 1.9881840e-001 1.1533460e-001
      vertex   1.0000000e-006 1.9881840e-001 1.1533460e-001
      vertex   6.0000000e+001 1.9148260e-001 1.4038800e-001
    endloop
  endfacet
  facet normal 0.0000000e+000 9.5970580e-001 2.8100700e-001
    outer loop
      vertex   6.0000000e+001 1.9148260e-001 1.4038800e-001
      vertex   1.0000000e-006 1.9881840e-001 1.1533460e-001
      vertex   1.0000000e-006 1.9148260e-001 1.4038800e-001
    endloop
  endfacet
  facet normal 0.0000000e+000 8.5427480e-001 5.1982170e-001
    outer loop
      vertex   6.0000000e+001 1.9148260e-001 1.4038800e-001
      vertex   1.0000000e-006 1.9148260e-001 1.4038800e-001
      vertex   6.0000000e+001 1.7791260e-001 1.6268900e-001
    endloop
  endfacet
  facet normal 0.0000000e+000 8.5427480e-001 5.1982170e-001
    outer loop
      vertex   6.0000000e+001 1.7791260e-001 1.6268900e-001
      vertex   1.0000000e-006 1.9148260e-001 1.4038800e-001
      vertex   1.0000000e-006 1.7791260e-001 1.6268900e-001
    endloop
  endfacet
  facet normal 0.0000000e+000 6.9062610e-001 7.2321200e-001
    outer loop
      vertex   6.0000000e+001 1.7791260e-001 1.6268900e-001
      vertex   1.0000000e-006 1.7791260e-001 1.6268900e-001
      vertex   6.0000000e+001 1.5903300e-001 1.8071800e-001
    endloop
  endfacet
  facet normal 0.0000000e+000 6.9062610e-001 7.2321200e-001
    outer loop
      vertex   6.0000000e+001 1.5903300e-001 1.8071800e-001
      vertex   1.0000000e-006 1.7791260e-001 1.6268900e-001
      vertex   1.0000000e-006 1.5903300e-001 1.8071800e-001
    endloop
  endfacet
  facet normal 0.0000000e+000 4.7991220e-001 8.7731650e-001
    outer loop
      vertex   6.0000000e+001 1.5903300e-001 1.8071800e-001
      vertex   1.0000000e-006 1.5903300e-001 1.8071800e-001
      vertex   6.0000000e+001 1.3613040e-001 1.9324620e-001
    endloop
  endfacet
  facet normal 0.0000000e+000 4.7991220e-001 8.7731650e-001
    outer loop
      vertex   6.0000000e+001 1.3613040e-001 1.9324620e-001
      vertex   1.0000000e-006 1.5903300e-001 1.8071800e-001
      vertex   1.0000000e-006 1.3613040e-001 1.9324620e-001
    endloop
  endfacet
  facet normal 0.0000000e+000 2.3649340e-001 9.7163310e-001
    outer loop
      vertex   6.0000000e+001 1.3613040e-001 1.9324620e-001
      vertex   1.0000000e-006 1.3613040e-001 1.9324620e-001
      vertex   6.0000000e+001 1.1076570e-001 1.9941990e-001
    endloop
  endfacet
  facet normal 0.0000000e+000 2.3649340e-001 9.7163310e-001
    outer loop
      vertex   6.0000000e+001 1.1076570e-001 1.9941990e-001
      vertex   1.0000000e-006 1.3613040e-001 1.9324620e-001
      vertex   1.0000000e-006 1.1076570e-001 1.9941990e-001
    endloop
  endfacet
  facet normal 0.0000000e+000 -2.304193e-002 9.9973450e-001
    outer loop
      vertex   6.0000000e+001 1.1076570e-001 1.9941990e-001
      vertex   1.0000000e-006 1.1076570e-001 1.9941990e-001
      vertex   6.0000000e+001 8.4667380e-002 1.9881840e-001
    endloop
  endfacet
  facet normal 0.0000000e+000 -2.304193e-002 9.9973450e-001
    outer loop
      vertex   6.0000000e+001 8.4667380e-002 1.9881840e-001
      vertex   1.0000000e-006 1.1076570e-001 1.9941990e-001
      vertex   1.0000000e-006 8.4667380e-002 1.9881840e-001
    endloop
  endfacet
  facet normal 0.0000000e+000 -2.810070e-001 9.5970580e-001
    outer loop
      vertex   6.0000000e+001 8.4667380e-002 1.9881840e-001
      vertex   1.0000000e-006 8.4667380e-002 1.9881840e-001
      vertex   6.0000000e+001 5.9614030e-002 1.9148260e-001
    endloop
  endfacet
  facet normal 0.0000000e+000 -2.810070e-001 9.5970580e-001
    outer loop
      vertex   6.0000000e+001 5.9614030e-002 1.9148260e-001
      vertex   1.0000000e-006 8.4667380e-002 1.9881840e-001
      vertex   1.0000000e-006 5.9614030e-002 1.9148260e-001
    endloop
  endfacet
  facet normal 0.0000000e+000 -5.198218e-001 8.5427470e-001
    outer loop
      vertex   6.0000000e+001 5.9614030e-002 1.9148260e-001
      vertex   1.0000000e-006 5.9614030e-002 1.9148260e-001
      vertex   6.0000000e+001 3.7312990e-002 1.7791260e-001
    endloop
  endfacet
  facet normal 0.0000000e+000 -5.198218e-001 8.5427470e-001
    outer loop
      vertex   6.0000000e+001 3.7312990e-002 1.7791260e-001
      vertex   1.0000000e-006 5.9614030e-002 1.9148260e-001
      vertex   1.0000000e-006 3.7312990e-002 1.7791260e-001
    endloop
  endfacet
  facet normal 0.0000000e+000 -7.232121e-001 6.9062600e-001
    outer loop
      vertex   6.0000000e+001 3.7312990e-002 1.7791260e-001
      vertex   1.0000000e-006 3.7312990e-002 1.7791260e-001
      vertex   6.0000000e+001 1.9284030e-002 1.5903300e-001
    endloop
  endfacet
  facet normal 0.0000000e+000 -7.232121e-001 6.9062600e-001
    outer loop
      vertex   6.0000000e+001 1.9284030e-002 1.5903300e-001
      vertex   1.0000000e-006 3.7312990e-002 1.7791260e-001
      vertex   1.0000000e-006 1.9284030e-002 1.5903300e-001
    endloop
  endfacet
  facet normal -1.000000e+000 0.0000000e+000 0.0000000e+000
    outer loop
      vertex   1.0000000e-006 1.9284030e-002 1.5903300e-001
      vertex   1.0000000e-006 3.7312990e-002 1.7791260e-001
      vertex   1.0000000e-006 6.7558040e-003 1.3613040e-001
    endloop
  endfacet
  facet normal -1.000000e+000 0.0000000e+000 0.0000000e+000
    outer loop
      vertex   1.0000000e-006 6.7558040e-003 1.3613040e-001
      vertex   1.0000000e-006 3.7312990e-002 1.7791260e-001
      vertex   1.0000000e-006 5.8208050e-004 1.1076570e-001
    endloop
  endfacet
  facet normal -1.000000e+000 0.0000000e+000 0.0000000e+000
    outer loop
      vertex   1.0000000e-006 5.8208050e-004 1.1076570e-001
      vertex   1.0000000e-006 3.7312990e-002 1.7791260e-001
      vertex   1.0000000e-006 5.9614030e-002 1.9148260e-001
    endloop
  endfacet
  facet normal -9.999999e-001 0.0000000e+000 0.0000000e+000
    outer loop
      vertex   1.0000000e-006 5.8208050e-004 1.1076570e-001
      vertex   1.0000000e-006 5.9614030e-002 1.9148260e-001
      vertex   1.0000000e-006 1.1835930e-003 8.4667380e-002
    endloop
  endfacet
  facet normal -1.000000e+000 0.0000000e+000 0.0000000e+000
    outer loop
      vertex   1.0000000e-006 1.1835930e-003 8.4667380e-002
      vertex   1.0000000e-006 5.9614030e-002 1.9148260e-001
      vertex   1.0000000e-006 8.4667380e-002 1.9881840e-001
    endloop
  endfacet
  facet normal -1.000000e+000 0.0000000e+000 0.0000000e+000
    outer loop
      vertex   1.0000000e-006 1.1835930e-003 8.4667380e-002
      vertex   1.0000000e-006 8.4667380e-002 1.9881840e-001
      vertex   1.0000000e-006 8.5193480e-003 5.9614030e-002
    endloop
  endfacet
  facet normal -1.000000e+000 0.0000000e+000 0.0000000e+000
    outer loop
      vertex   1.0000000e-006 8.5193480e-003 5.9614030e-002
      vertex   1.0000000e-006 8.4667380e-002 1.9881840e-001
      vertex   1.0000000e-006 1.1076570e-001 1.9941990e-001
    endloop
  endfacet
  facet normal -1.000000e+000 0.0000000e+000 0.0000000e+000
    outer loop
      vertex   1.0000000e-006 8.5193480e-003 5.9614030e-002
      vertex   1.0000000e-006 1.1076570e-001 1.9941990e-001
      vertex   1.0000000e-006 2.2089430e-002 3.7312990e-002
    endloop
  endfacet
  facet normal -1.000000e+000 0.0000000e+000 0.0000000e+000
    outer loop
      vertex   1.0000000e-006 2.2089430e-002 3.7312990e-002
      vertex   1.0000000e-006 1.1076570e-001 1.9941990e-001
      vertex   1.0000000e-006 1.3613040e-001 1.9324620e-001
    endloop
  endfacet
  facet normal -1.000000e+000 0.0000000e+000 0.0000000e+000
    outer loop
      vertex   1.0000000e-006 2.2089430e-002 3.7312990e-002
      vertex   1.0000000e-006 1.3613040e-001 1.9324620e-001
      vertex   1.0000000e-006 4.0969050e-002 1.9284030e-002
    endloop
  endfacet
  facet normal -9.999999e-001 0.0000000e+000 0.0000000e+000
    outer loop
      vertex   1.0000000e-006 4.0969050e-002 1.9284030e-002
      vertex   1.0000000e-006 1.3613040e-001 1.9324620e-001
      vertex   1.0000000e-006 1.5903300e-001 1.8071800e-001
    endloop
  endfacet
  facet normal -1.000000e+000 0.0000000e+000 0.0000000e+000
    outer loop
      vertex   1.0000000e-006 4.0969050e-002 1.9284030e-002
      vertex   1.0000000e-006 1.5903300e-001 1.8071800e-001
      vertex   1.0000000e-006 6.3871600e-002 6.7558040e-003
    endloop
  endfacet
  facet normal -1.000000e+000 0.0000000e+000 0.0000000e+000
    outer loop
      vertex   1.0000000e-006 6.3871600e-002 6.7558040e-003
      vertex   1.0000000e-006 1.5903300e-001 1.8071800e-001
      vertex   1.0000000e-006 1.7791260e-001 1.6268900e-001
    endloop
  endfacet
  facet normal -1.000000e+000 0.0000000e+000 0.0000000e+000
    outer loop
      vertex   1.0000000e-006 6.3871600e-002 6.7558040e-003
      vertex   1.0000000e-006 1.7791260e-001 1.6268900e-001
      vertex   1.0000000e-006 8.9236310e-002 5.8208050e-004
    endloop
  endfacet
  facet normal -1.000000e+000 0.0000000e+000 0.0000000e+000
    outer loop
      vertex   1.0000000e-006 8.9236310e-002 5.8208050e-004
      vertex   1.0000000e-006 1.7791260e-001 1.6268900e-001
      vertex   1.0000000e-006 1.9148260e-001 1.4038800e-001
    endloop
  endfacet
  facet normal -1.000000e+000 0.0000000e+000 0.0000000e+000
    outer loop
      vertex   1.0000000e-006 8.9236310e-002 5.8208050e-004
      vertex   1.0000000e-006 1.9148260e-001 1.4038800e-001
      vertex   1.0000000e-006 1.1533460e-001 1.1835930e-003
    endloop
  endfacet
  facet normal -1.000000e+000 0.0000000e+000 0.0000000e+000
    outer loop
      vertex   1.0000000e-006 1.1533460e-001 1.1835930e-003
      vertex   1.0000000e-006 1.9148260e-001 1.4038800e-001
      vertex   1.0000000e-006 1.9881840e-001 1.1533460e-001
    endloop
  endfacet
  facet normal -1.000000e+000 0.0000000e+000 0.0000000e+000
    outer loop
      vertex   1.0000000e-006 1.1533460e-001 1.1835930e-003
      vertex   1.0000000e-006 1.9881840e-001 1.1533460e-001
      vertex   1.0000000e-006 1.4038800e-001 8.5193480e-003
    endloop
  endfacet
  facet normal -9.999999e-001 0.0000000e+000 0.0000000e+000
    outer loop
      vertex   1.0000000e-006 1.4038800e-001 8.5193480e-003
      vertex   1.0000000e-006 1.9881840e-001 1.1533460e-001
      vertex   1.0000000e-006 1.9941990e-001 8.9236310e-002
    endloop
  endfacet
  facet normal -1.000000e+000 0.0000000e+000 0.0000000e+000
    outer loop
      vertex   1.0000000e-006 1.4038800e-001 8.5193480e-003
      vertex   1.0000000e-006 1.9941990e-001 8.9236310e-002
      vertex   1.0000000e-006 1.6268900e-001 2.2089430e-002
    endloop
  endfacet
  facet normal -1.000000e+000 0.0000000e+000 0.0000000e+000
    outer loop
      vertex   1.0000000e-006 1.6268900e-001 2.2089430e-002
      vertex   1.0000000e-006 1.9941990e-001 8.9236310e-002
      vertex   1.0000000e-006 1.9324620e-001 6.3871600e-002
    endloop
  endfacet
  facet normal -1.000000e+000 0.0000000e+000 0.0000000e+000
    outer loop
      vertex   1.0000000e-006 1.6268900e-001 2.2089430e-002
      vertex   1.0000000e-006 1.9324620e-001 6.3871600e-002
      vertex   1.0000000e-006 1.8071800e-001 4.0969050e-002
    endloop
  endfacet
  facet normal 1.0000000e+000 0.0000000e+000 0.0000000e+000
    outer loop
      vertex   6.0000000e+001 1.9284030e-002 1.5903300e-001
      vertex   6.0000000e+001 6.7558040e-003 1.3613040e-001
      vertex   6.0000000e+001 3.7312990e-002 1.7791260e-001
    endloop
  endfacet
  facet normal 1.0000000e+000 0.0000000e+000 0.0000000e+000
    outer loop
      vertex   6.0000000e+001 3.7312990e-002 1.7791260e-001
      vertex   6.0000000e+001 6.7558040e-003 1.3613040e-001
      vertex   6.0000000e+001 5.9614030e-002 1.9148260e-001
    endloop
  endfacet
  facet normal 9.9999990e-001 0.0000000e+000 0.0000000e+000
    outer loop
      vertex   6.0000000e+001 5.9614030e-002 1.9148260e-001
      vertex   6.0000000e+001 6.7558040e-003 1.3613040e-001
      vertex   6.0000000e+001 5.8208050e-004 1.1076570e-001
    endloop
  endfacet
  facet normal 9.9999990e-001 0.0000000e+000 0.0000000e+000
    outer loop
      vertex   6.0000000e+001 5.9614030e-002 1.9148260e-001
      vertex   6.0000000e+001 5.8208050e-004 1.1076570e-001
      vertex   6.0000000e+001 8.4667380e-002 1.9881840e-001
    endloop
  endfacet
  facet normal 1.0000000e+000 0.0000000e+000 0.0000000e+000
    outer loop
      vertex   6.0000000e+001 8.4667380e-002 1.9881840e-001
      vertex   6.0000000e+001 5.8208050e-004 1.1076570e-001
      vertex   6.0000000e+001 1.1835930e-003 8.4667380e-002
    endloop
  endfacet
  facet normal 1.0000000e+000 0.0000000e+000 0.0000000e+000
    outer loop
      vertex   6.0000000e+001 8.4667380e-002 1.9881840e-001
      vertex   6.0000000e+001 1.1835930e-003 8.4667380e-002
      vertex   6.0000000e+001 1.1076570e-001 1.9941990e-001
    endloop
  endfacet
  facet normal 1.0000000e+000 0.0000000e+000 0.0000000e+000
    outer loop
      vertex   6.0000000e+001 1.1076570e-001 1.9941990e-001
      vertex   6.0000000e+001 1.1835930e-003 8.4667380e-002
      vertex   6.0000000e+001 8.5193480e-003 5.9614030e-002
    endloop
  endfacet
  facet normal 1.0000000e+000 0.0000000e+000 0.0000000e+000
    outer loop
      vertex   6.0000000e+001 1.1076570e-001 1.9941990e-001
      vertex   6.0000000e+001 8.5193480e-003 5.9614030e-002
      vertex   6.0000000e+001 1.3613040e-001 1.9324620e-001
    endloop
  endfacet
  facet normal 9.9999990e-001 0.0000000e+000 0.0000000e+000
    outer loop
      vertex   6.0000000e+001 1.3613040e-001 1.9324620e-001
      vertex   6.0000000e+001 8.5193480e-003 5.9614030e-002
      vertex   6.0000000e+001 2.2089430e-002 3.7312990e-002
    endloop
  endfacet
  facet normal 1.0000000e+000 0.0000000e+000 0.0000000e+000
    outer loop
      vertex   6.0000000e+001 1.3613040e-001 1.9324620e-001
      vertex   6.0000000e+001 2.2089430e-002 3.7312990e-002
      vertex   6.0000000e+001 1.5903300e-001 1.8071800e-001
    endloop
  endfacet
  facet normal 1.0000000e+000 0.0000000e+000 0.0000000e+000
    outer loop
      vertex   6.0000000e+001 1.5903300e-001 1.8071800e-001
      vertex   6.0000000e+001 2.2089430e-002 3.7312990e-002
      vertex   6.0000000e+001 4.0969050e-002 1.9284030e-002
    endloop
  endfacet
  facet normal 1.0000000e+000 0.0000000e+000 0.0000000e+000
    outer loop
      vertex   6.0000000e+001 1.5903300e-001 1.8071800e-001
      vertex   6.0000000e+001 4.0969050e-002 1.9284030e-002
      vertex   6.0000000e+001 1.7791260e-001 1.6268900e-001
    endloop
  endfacet
  facet normal 1.0000000e+000 0.0000000e+000 0.0000000e+000
    outer loop
      vertex   6.0000000e+001 1.7791260e-001 1.6268900e-001
      vertex   6.0000000e+001 4.0969050e-002 1.9284030e-002
      vertex   6.0000000e+001 6.3871600e-002 6.7558040e-003
    endloop
  endfacet
  facet normal 9.9999990e-001 0.0000000e+000 0.0000000e+000
    outer loop
      vertex   6.0000000e+001 1.7791260e-001 1.6268900e-001
      vertex   6.0000000e+001 6.3871600e-002 6.7558040e-003
      vertex   6.0000000e+001 1.9148260e-001 1.4038800e-001
    endloop
  endfacet
  facet normal 1.0000000e+000 0.0000000e+000 0.0000000e+000
    outer loop
      vertex   6.0000000e+001 1.9148260e-001 1.4038800e-001
      vertex   6.0000000e+001 6.3871600e-002 6.7558040e-003
      vertex   6.0000000e+001 8.9236310e-002 5.8208050e-004
    endloop
  endfacet
  facet normal 9.9999990e-001 0.0000000e+000 0.0000000e+000
    outer loop
      vertex   6.0000000e+001 1.9148260e-001 1.4038800e-001
      vertex   6.0000000e+001 8.9236310e-002 5.8208050e-004
      vertex   6.0000000e+001 1.9881840e-001 1.1533460e-001
    endloop
  endfacet
  facet normal 9.9999990e-001 0.0000000e+000 0.0000000e+000
    outer loop
      vertex   6.0000000e+001 1.9881840e-001 1.1533460e-001
      vertex   6.0000000e+001 8.9236310e-002 5.8208050e-004
      vertex   6.0000000e+001 1.1533460e-001 1.1835930e-003
    endloop
  endfacet
  facet normal 1.0000000e+000 0.0000000e+000 0.0000000e+000
    outer loop
      vertex   6.0000000e+001 1.9881840e-001 1.1533460e-001
      vertex   6.0000000e+001 1.1533460e-001 1.1835930e-003
      vertex   6.0000000e+001 1.9941990e-001 8.9236310e-002
    endloop
  endfacet
  facet normal 9.9999990e-001 0.0000000e+000 0.0000000e+000
    outer loop
      vertex   6.0000000e+001 1.9941990e-001 8.9236310e-002
      vertex   6.0000000e+001 1.1533460e-001 1.1835930e-003
      vertex   6.0000000e+001 1.4038800e-001 8.5193480e-003
    endloop
  endfacet
  facet normal 1.0000000e+000 0.0000000e+000 0.0000000e+000
    outer loop
      vertex   6.0000000e+001 1.9941990e-001 8.9236310e-002
      vertex   6.0000000e+001 1.4038800e-001 8.5193480e-003
      vertex   6.0000000e+001 1.9324620e-001 6.3871600e-002
    endloop
  endfacet
  facet normal 9.9999990e-001 0.0000000e+000 0.0000000e+000
    outer loop
      vertex   6.0000000e+001 1.9324620e-001 6.3871600e-002
      vertex   6.0000000e+001 1.4038800e-001 8.5193480e-003
      vertex   6.0000000e+001 1.6268900e-001 2.2089430e-002
    endloop
  endfacet
  facet normal 1.0000000e+000 0.0000000e+000 0.0000000e+000
    outer loop
      vertex   6.0000000e+001 1.9324620e-001 6.3871600e-002
      vertex   6.0000000e+001 1.6268900e-001 2.2089430e-002
      vertex   6.0000000e+001 1.8071800e-001 4.0969050e-002
    endloop
  endfacet
endsolid
