solid ascii
  facet normal 0.0000000e+000 -9.196222e-001 3.9280400e-001
    outer loop
      vertex   1.0000000e-006 3.6984030e-003 1.2694190e-001
      vertex   1.5000100e-001 3.6984030e-003 1.2694190e-001
      vertex   1.0000000e-006 1.3952640e-002 1.5094880e-001
    endloop
  endfacet
  facet normal 0.0000000e+000 -9.196222e-001 3.9280400e-001
    outer loop
      vertex   1.0000000e-006 1.3952640e-002 1.5094880e-001
      vertex   1.5000100e-001 3.6984030e-003 1.2694190e-001
      vertex   1.5000100e-001 1.3952640e-002 1.5094880e-001
    endloop
  endfacet
  facet normal 0.0000000e+000 -7.866220e-001 6.1743500e-001
    outer loop
      vertex   1.0000000e-006 1.3952640e-002 1.5094880e-001
      vertex   1.5000100e-001 1.3952640e-002 1.5094880e-001
      vertex   1.0000000e-006 3.0070930e-002 1.7148380e-001
    endloop
  endfacet
  facet normal 0.0000000e+000 -7.866220e-001 6.1743500e-001
    outer loop
      vertex   1.0000000e-006 3.0070930e-002 1.7148380e-001
      vertex   1.5000100e-001 1.3952640e-002 1.5094880e-001
      vertex   1.5000100e-001 3.0070930e-002 1.7148380e-001
    endloop
  endfacet
  facet normal 0.0000000e+000 -6.000141e-001 7.9998950e-001
    outer loop
      vertex   1.0000000e-006 3.0070930e-002 1.7148380e-001
      vertex   1.5000100e-001 3.0070930e-002 1.7148380e-001
      vertex   1.0000000e-006 5.0954840e-002 1.8714730e-001
    endloop
  endfacet
  facet normal 0.0000000e+000 -6.000141e-001 7.9998950e-001
    outer loop
      vertex   1.0000000e-006 5.0954840e-002 1.8714730e-001
      vertex   1.5000100e-001 3.0070930e-002 1.7148380e-001
      vertex   1.5000100e-001 5.0954840e-002 1.8714730e-001
    endloop
  endfacet
  facet normal 0.0000000e+000 -3.725171e-001 9.2802540e-001
    outer loop
      vertex   1.0000000e-006 5.0954840e-002 1.8714730e-001
      vertex   1.5000100e-001 5.0954840e-002 1.8714730e-001
      vertex   1.0000000e-006 7.5181160e-002 1.9687190e-001
    endloop
  endfacet
  facet normal 0.0000000e+000 -3.725171e-001 9.2802540e-001
    outer loop
      vertex   1.0000000e-006 7.5181160e-002 1.9687190e-001
      vertex   1.5000100e-001 5.0954840e-002 1.8714730e-001
      vertex   1.5000100e-001 7.5181160e-002 1.9687190e-001
    endloop
  endfacet
  facet normal 0.0000000e+000 -1.196329e-001 9.9281820e-001
    outer loop
      vertex   1.0000000e-006 7.5181160e-002 1.9687190e-001
      vertex   1.5000100e-001 7.5181160e-002 1.9687190e-001
      vertex   1.0000000e-006 1.0109890e-001 1.9999500e-001
    endloop
  endfacet
  facet normal 0.0000000e+000 -1.196329e-001 9.9281820e-001
    outer loop
      vertex   1.0000000e-006 1.0109890e-001 1.9999500e-001
      vertex   1.5000100e-001 7.5181160e-002 1.9687190e-001
      vertex   1.5000100e-001 1.0109890e-001 1.9999500e-001
    endloop
  endfacet
  facet normal 0.0000000e+000 1.4140360e-001 9.8995200e-001
    outer loop
      vertex   1.0000000e-006 1.0109890e-001 1.9999500e-001
      vertex   1.5000100e-001 1.0109890e-001 1.9999500e-001
      vertex   1.0000000e-006 1.2694190e-001 1.9630360e-001
    endloop
  endfacet
  facet normal 0.0000000e+000 1.4140360e-001 9.8995200e-001
    outer loop
      vertex   1.0000000e-006 1.2694190e-001 1.9630360e-001
      vertex   1.5000100e-001 1.0109890e-001 1.9999500e-001
      vertex   1.5000100e-001 1.2694190e-001 1.9630360e-001
    endloop
  endfacet
  facet normal 0.0000000e+000 3.9280390e-001 9.1962220e-001
    outer loop
      vertex   1.0000000e-006 1.2694190e-001 1.9630360e-001
      vertex   1.5000100e-001 1.2694190e-001 1.9630360e-001
      vertex   1.0000000e-006 1.5094880e-001 1.8604940e-001
    endloop
  endfacet
  facet normal 0.0000000e+000 3.9280390e-001 9.1962220e-001
    outer loop
      vertex   1.0000000e-006 1.5094880e-001 1.8604940e-001
      vertex   1.5000100e-001 1.2694190e-001 1.9630360e-001
      vertex   1.5000100e-001 1.5094880e-001 1.8604940e-001
    endloop
  endfacet
  facet normal 0.0000000e+000 6.1743490e-001 7.8662210e-001
    outer loop
      vertex   1.0000000e-006 1.5094880e-001 1.8604940e-001
      vertex   1.5000100e-001 1.5094880e-001 1.8604940e-001
      vertex   1.0000000e-006 1.7148380e-001 1.6993110e-001
    endloop
  endfacet
  facet normal 0.0000000e+000 6.1743490e-001 7.8662210e-001
    outer loop
      vertex   1.0000000e-006 1.7148380e-001 1.6993110e-001
      vertex   1.5000100e-001 1.5094880e-001 1.8604940e-001
      vertex   1.5000100e-001 1.7148380e-001 1.6993110e-001
    endloop
  endfacet
  facet normal 0.0000000e+000 7.9998960e-001 6.0001390e-001
    outer loop
      vertex   1.0000000e-006 1.7148380e-001 1.6993110e-001
      vertex   1.5000100e-001 1.7148380e-001 1.6993110e-001
      vertex   1.0000000e-006 1.8714730e-001 1.4904720e-001
    endloop
  endfacet
  facet normal 0.0000000e+000 7.9998960e-001 6.0001390e-001
    outer loop
      vertex   1.0000000e-006 1.8714730e-001 1.4904720e-001
      vertex   1.5000100e-001 1.7148380e-001 1.6993110e-001
      vertex   1.5000100e-001 1.8714730e-001 1.4904720e-001
    endloop
  endfacet
  facet normal 0.0000000e+000 9.2802530e-001 3.7251720e-001
    outer loop
      vertex   1.0000000e-006 1.8714730e-001 1.4904720e-001
      vertex   1.5000100e-001 1.8714730e-001 1.4904720e-001
      vertex   1.0000000e-006 1.9687190e-001 1.2482080e-001
    endloop
  endfacet
  facet normal 0.0000000e+000 9.2802530e-001 3.7251720e-001
    outer loop
      vertex   1.0000000e-006 1.9687190e-001 1.2482080e-001
      vertex   1.5000100e-001 1.8714730e-001 1.4904720e-001
      vertex   1.5000100e-001 1.9687190e-001 1.2482080e-001
    endloop
  endfacet
  facet normal 0.0000000e+000 9.9281820e-001 1.1963290e-001
    outer loop
      vertex   1.0000000e-006 1.9687190e-001 1.2482080e-001
      vertex   1.5000100e-001 1.9687190e-001 1.2482080e-001
      vertex   1.0000000e-006 1.9999500e-001 9.8903070e-002
    endloop
  endfacet
  facet normal 0.0000000e+000 9.9281820e-001 1.1963290e-001
    outer loop
      vertex   1.0000000e-006 1.9999500e-001 9.8903070e-002
      vertex   1.5000100e-001 1.9687190e-001 1.2482080e-001
      vertex   1.5000100e-001 1.9999500e-001 9.8903070e-002
    endloop
  endfacet
  facet normal 0.0000000e+000 9.8995200e-001 -1.414036e-001
    outer loop
      vertex   1.0000000e-006 1.9999500e-001 9.8903070e-002
      vertex   1.5000100e-001 1.9999500e-001 9.8903070e-002
      vertex   1.0000000e-006 1.9630360e-001 7.3060150e-002
    endloop
  endfacet
  facet normal 0.0000000e+000 9.8995200e-001 -1.414036e-001
    outer loop
      vertex   1.0000000e-006 1.9630360e-001 7.3060150e-002
      vertex   1.5000100e-001 1.9999500e-001 9.8903070e-002
      vertex   1.5000100e-001 1.9630360e-001 7.3060150e-002
    endloop
  endfacet
  facet normal 0.0000000e+000 9.1962240e-001 -3.928037e-001
    outer loop
      vertex   1.0000000e-006 1.9630360e-001 7.3060150e-002
      vertex   1.5000100e-001 1.9630360e-001 7.3060150e-002
      vertex   1.0000000e-006 1.8604940e-001 4.9053180e-002
    endloop
  endfacet
  facet normal 0.0000000e+000 9.1962240e-001 -3.928037e-001
    outer loop
      vertex   1.0000000e-006 1.8604940e-001 4.9053180e-002
      vertex   1.5000100e-001 1.9630360e-001 7.3060150e-002
      vertex   1.5000100e-001 1.8604940e-001 4.9053180e-002
    endloop
  endfacet
  facet normal 0.0000000e+000 7.8662180e-001 -6.174350e-001
    outer loop
      vertex   1.0000000e-006 1.8604940e-001 4.9053180e-002
      vertex   1.5000100e-001 1.8604940e-001 4.9053180e-002
      vertex   1.0000000e-006 1.6993110e-001 2.8518240e-002
    endloop
  endfacet
  facet normal 0.0000000e+000 7.8662180e-001 -6.174350e-001
    outer loop
      vertex   1.0000000e-006 1.6993110e-001 2.8518240e-002
      vertex   1.5000100e-001 1.8604940e-001 4.9053180e-002
      vertex   1.5000100e-001 1.6993110e-001 2.8518240e-002
    endloop
  endfacet
  facet normal 0.0000000e+000 6.0001420e-001 -7.999894e-001
    outer loop
      vertex   1.0000000e-006 1.6993110e-001 2.8518240e-002
      vertex   1.5000100e-001 1.6993110e-001 2.8518240e-002
      vertex   1.0000000e-006 1.4904720e-001 1.2854720e-002
    endloop
  endfacet
  facet normal 0.0000000e+000 6.0001420e-001 -7.999894e-001
    outer loop
      vertex   1.0000000e-006 1.4904720e-001 1.2854720e-002
      vertex   1.5000100e-001 1.6993110e-001 2.8518240e-002
      vertex   1.5000100e-001 1.4904720e-001 1.2854720e-002
    endloop
  endfacet
  facet normal 0.0000000e+000 3.7251700e-001 -9.280254e-001
    outer loop
      vertex   1.0000000e-006 1.4904720e-001 1.2854720e-002
      vertex   1.5000100e-001 1.4904720e-001 1.2854720e-002
      vertex   1.0000000e-006 1.2482080e-001 3.1300760e-003
    endloop
  endfacet
  facet normal 0.0000000e+000 3.7251700e-001 -9.280254e-001
    outer loop
      vertex   1.0000000e-006 1.2482080e-001 3.1300760e-003
      vertex   1.5000100e-001 1.4904720e-001 1.2854720e-002
      vertex   1.5000100e-001 1.2482080e-001 3.1300760e-003
    endloop
  endfacet
  facet normal 0.0000000e+000 1.1963300e-001 -9.928182e-001
    outer loop
      vertex   1.0000000e-006 1.2482080e-001 3.1300760e-003
      vertex   1.5000100e-001 1.2482080e-001 3.1300760e-003
      vertex   1.0000000e-006 9.8903070e-002 7.0273500e-006
    endloop
  endfacet
  facet normal 0.0000000e+000 1.1963300e-001 -9.928182e-001
    outer loop
      vertex   1.0000000e-006 9.8903070e-002 7.0273500e-006
      vertex   1.5000100e-001 1.2482080e-001 3.1300760e-003
      vertex   1.5000100e-001 9.8903070e-002 7.0273500e-006
    endloop
  endfacet
  facet normal 0.0000000e+000 -1.414036e-001 -9.899520e-001
    outer loop
      vertex   1.0000000e-006 9.8903070e-002 7.0273500e-006
      vertex   1.5000100e-001 9.8903070e-002 7.0273500e-006
      vertex   1.0000000e-006 7.3060150e-002 3.6984030e-003
    endloop
  endfacet
  facet normal 0.0000000e+000 -1.414036e-001 -9.899520e-001
    outer loop
      vertex   1.0000000e-006 7.3060150e-002 3.6984030e-003
      vertex   1.5000100e-001 9.8903070e-002 7.0273500e-006
      vertex   1.5000100e-001 7.3060150e-002 3.6984030e-003
    endloop
  endfacet
  facet normal 0.0000000e+000 -3.928038e-001 -9.196222e-001
    outer loop
      vertex   1.0000000e-006 7.3060150e-002 3.6984030e-003
      vertex   1.5000100e-001 7.3060150e-002 3.6984030e-003
      vertex   1.0000000e-006 4.9053180e-002 1.3952640e-002
    endloop
  endfacet
  facet normal 0.0000000e+000 -3.928038e-001 -9.196222e-001
    outer loop
      vertex   1.0000000e-006 4.9053180e-002 1.3952640e-002
      vertex   1.5000100e-001 7.3060150e-002 3.6984030e-003
      vertex   1.5000100e-001 4.9053180e-002 1.3952640e-002
    endloop
  endfacet
  facet normal 0.0000000e+000 -6.174351e-001 -7.866217e-001
    outer loop
      vertex   1.0000000e-006 4.9053180e-002 1.3952640e-002
      vertex   1.5000100e-001 4.9053180e-002 1.3952640e-002
      vertex   1.0000000e-006 2.8518240e-002 3.0070930e-002
    endloop
  endfacet
  facet normal 0.0000000e+000 -6.174351e-001 -7.866217e-001
    outer loop
      vertex   1.0000000e-006 2.8518240e-002 3.0070930e-002
      vertex   1.5000100e-001 4.9053180e-002 1.3952640e-002
      vertex   1.5000100e-001 2.8518240e-002 3.0070930e-002
    endloop
  endfacet
  facet normal 0.0000000e+000 -7.999892e-001 -6.000143e-001
    outer loop
      vertex   1.0000000e-006 2.8518240e-002 3.0070930e-002
      vertex   1.5000100e-001 2.8518240e-002 3.0070930e-002
      vertex   1.0000000e-006 1.2854720e-002 5.0954840e-002
    endloop
  endfacet
  facet normal 0.0000000e+000 -7.999892e-001 -6.000143e-001
    outer loop
      vertex   1.0000000e-006 1.2854720e-002 5.0954840e-002
      vertex   1.5000100e-001 2.8518240e-002 3.0070930e-002
      vertex   1.5000100e-001 1.2854720e-002 5.0954840e-002
    endloop
  endfacet
  facet normal 0.0000000e+000 -9.280254e-001 -3.725169e-001
    outer loop
      vertex   1.0000000e-006 1.2854720e-002 5.0954840e-002
      vertex   1.5000100e-001 1.2854720e-002 5.0954840e-002
      vertex   1.0000000e-006 3.1300760e-003 7.5181160e-002
    endloop
  endfacet
  facet normal 0.0000000e+000 -9.280254e-001 -3.725169e-001
    outer loop
      vertex   1.0000000e-006 3.1300760e-003 7.5181160e-002
      vertex   1.5000100e-001 1.2854720e-002 5.0954840e-002
      vertex   1.5000100e-001 3.1300760e-003 7.5181160e-002
    endloop
  endfacet
  facet normal 0.0000000e+000 -9.928182e-001 -1.196330e-001
    outer loop
      vertex   1.0000000e-006 3.1300760e-003 7.5181160e-002
      vertex   1.5000100e-001 3.1300760e-003 7.5181160e-002
      vertex   1.0000000e-006 7.0273500e-006 1.0109890e-001
    endloop
  endfacet
  facet normal 0.0000000e+000 -9.928182e-001 -1.196330e-001
    outer loop
      vertex   1.0000000e-006 7.0273500e-006 1.0109890e-001
      vertex   1.5000100e-001 3.1300760e-003 7.5181160e-002
      vertex   1.5000100e-001 7.0273500e-006 1.0109890e-001
    endloop
  endfacet
  facet normal 0.0000000e+000 -9.899520e-001 1.4140360e-001
    outer loop
      vertex   1.0000000e-006 7.0273500e-006 1.0109890e-001
      vertex   1.5000100e-001 7.0273500e-006 1.0109890e-001
      vertex   1.0000000e-006 3.6984030e-003 1.2694190e-001
    endloop
  endfacet
  facet normal 0.0000000e+000 -9.899520e-001 1.4140360e-001
    outer loop
      vertex   1.0000000e-006 3.6984030e-003 1.2694190e-001
      vertex   1.5000100e-001 7.0273500e-006 1.0109890e-001
      vertex   1.5000100e-001 3.6984030e-003 1.2694190e-001
    endloop
  endfacet
  facet normal -1.000000e+000 0.0000000e+000 0.0000000e+000
    outer loop
      vertex   1.0000000e-006 1.3952640e-002 1.5094880e-001
      vertex   1.0000000e-006 3.0070930e-002 1.7148380e-001
      vertex   1.0000000e-006 3.6984030e-003 1.2694190e-001
    endloop
  endfacet
  facet normal -1.000000e+000 0.0000000e+000 0.0000000e+000
    outer loop
      vertex   1.0000000e-006 3.6984030e-003 1.2694190e-001
      vertex   1.0000000e-006 3.0070930e-002 1.7148380e-001
      vertex   1.0000000e-006 7.0273500e-006 1.0109890e-001
    endloop
  endfacet
  facet normal -1.000000e+000 0.0000000e+000 0.0000000e+000
    outer loop
      vertex   1.0000000e-006 7.0273500e-006 1.0109890e-001
      vertex   1.0000000e-006 3.0070930e-002 1.7148380e-001
      vertex   1.0000000e-006 5.0954840e-002 1.8714730e-001
    endloop
  endfacet
  facet normal -9.999999e-001 0.0000000e+000 0.0000000e+000
    outer loop
      vertex   1.0000000e-006 7.0273500e-006 1.0109890e-001
      vertex   1.0000000e-006 5.0954840e-002 1.8714730e-001
      vertex   1.0000000e-006 3.1300760e-003 7.5181160e-002
    endloop
  endfacet
  facet normal -1.000000e+000 0.0000000e+000 0.0000000e+000
    outer loop
      vertex   1.0000000e-006 3.1300760e-003 7.5181160e-002
      vertex   1.0000000e-006 5.0954840e-002 1.8714730e-001
      vertex   1.0000000e-006 7.5181160e-002 1.9687190e-001
    endloop
  endfacet
  facet normal -1.000000e+000 0.0000000e+000 0.0000000e+000
    outer loop
      vertex   1.0000000e-006 3.1300760e-003 7.5181160e-002
      vertex   1.0000000e-006 7.5181160e-002 1.9687190e-001
      vertex   1.0000000e-006 1.2854720e-002 5.0954840e-002
    endloop
  endfacet
  facet normal -1.000000e+000 0.0000000e+000 0.0000000e+000
    outer loop
      vertex   1.0000000e-006 1.2854720e-002 5.0954840e-002
      vertex   1.0000000e-006 7.5181160e-002 1.9687190e-001
      vertex   1.0000000e-006 1.0109890e-001 1.9999500e-001
    endloop
  endfacet
  facet normal -1.000000e+000 0.0000000e+000 0.0000000e+000
    outer loop
      vertex   1.0000000e-006 1.2854720e-002 5.0954840e-002
      vertex   1.0000000e-006 1.0109890e-001 1.9999500e-001
      vertex   1.0000000e-006 2.8518240e-002 3.0070930e-002
    endloop
  endfacet
  facet normal -1.000000e+000 0.0000000e+000 0.0000000e+000
    outer loop
      vertex   1.0000000e-006 2.8518240e-002 3.0070930e-002
      vertex   1.0000000e-006 1.0109890e-001 1.9999500e-001
      vertex   1.0000000e-006 1.2694190e-001 1.9630360e-001
    endloop
  endfacet
  facet normal -1.000000e+000 0.0000000e+000 0.0000000e+000
    outer loop
      vertex   1.0000000e-006 2.8518240e-002 3.0070930e-002
      vertex   1.0000000e-006 1.2694190e-001 1.9630360e-001
      vertex   1.0000000e-006 4.9053180e-002 1.3952640e-002
    endloop
  endfacet
  facet normal -1.000000e+000 0.0000000e+000 0.0000000e+000
    outer loop
      vertex   1.0000000e-006 4.9053180e-002 1.3952640e-002
      vertex   1.0000000e-006 1.2694190e-001 1.9630360e-001
      vertex   1.0000000e-006 1.5094880e-001 1.8604940e-001
    endloop
  endfacet
  facet normal -1.000000e+000 0.0000000e+000 0.0000000e+000
    outer loop
      vertex   1.0000000e-006 4.9053180e-002 1.3952640e-002
      vertex   1.0000000e-006 1.5094880e-001 1.8604940e-001
      vertex   1.0000000e-006 7.3060150e-002 3.6984030e-003
    endloop
  endfacet
  facet normal -1.000000e+000 0.0000000e+000 0.0000000e+000
    outer loop
      vertex   1.0000000e-006 7.3060150e-002 3.6984030e-003
      vertex   1.0000000e-006 1.5094880e-001 1.8604940e-001
      vertex   1.0000000e-006 1.7148380e-001 1.6993110e-001
    endloop
  endfacet
  facet normal -1.000000e+000 0.0000000e+000 0.0000000e+000
    outer loop
      vertex   1.0000000e-006 7.3060150e-002 3.6984030e-003
      vertex   1.0000000e-006 1.7148380e-001 1.6993110e-001
      vertex   1.0000000e-006 9.8903070e-002 7.0273500e-006
    endloop
  endfacet
  facet normal -1.000000e+000 0.0000000e+000 0.0000000e+000
    outer loop
      vertex   1.0000000e-006 9.8903070e-002 7.0273500e-006
      vertex   1.0000000e-006 1.7148380e-001 1.6993110e-001
      vertex   1.0000000e-006 1.8714730e-001 1.4904720e-001
    endloop
  endfacet
  facet normal -9.999999e-001 0.0000000e+000 0.0000000e+000
    outer loop
      vertex   1.0000000e-006 9.8903070e-002 7.0273500e-006
      vertex   1.0000000e-006 1.8714730e-001 1.4904720e-001
      vertex   1.0000000e-006 1.2482080e-001 3.1300760e-003
    endloop
  endfacet
  facet normal -1.000000e+000 0.0000000e+000 0.0000000e+000
    outer loop
      vertex   1.0000000e-006 1.2482080e-001 3.1300760e-003
      vertex   1.0000000e-006 1.8714730e-001 1.4904720e-001
      vertex   1.0000000e-006 1.9687190e-001 1.2482080e-001
    endloop
  endfacet
  facet normal -1.000000e+000 0.0000000e+000 0.0000000e+000
    outer loop
      vertex   1.0000000e-006 1.2482080e-001 3.1300760e-003
      vertex   1.0000000e-006 1.9687190e-001 1.2482080e-001
      vertex   1.0000000e-006 1.4904720e-001 1.2854720e-002
    endloop
  endfacet
  facet normal -9.999999e-001 0.0000000e+000 0.0000000e+000
    outer loop
      vertex   1.0000000e-006 1.4904720e-001 1.2854720e-002
      vertex   1.0000000e-006 1.9687190e-001 1.2482080e-001
      vertex   1.0000000e-006 1.9999500e-001 9.8903070e-002
    endloop
  endfacet
  facet normal -1.000000e+000 0.0000000e+000 0.0000000e+000
    outer loop
      vertex   1.0000000e-006 1.4904720e-001 1.2854720e-002
      vertex   1.0000000e-006 1.9999500e-001 9.8903070e-002
      vertex   1.0000000e-006 1.6993110e-001 2.8518240e-002
    endloop
  endfacet
  facet normal -1.000000e+000 0.0000000e+000 0.0000000e+000
    outer loop
      vertex   1.0000000e-006 1.6993110e-001 2.8518240e-002
      vertex   1.0000000e-006 1.9999500e-001 9.8903070e-002
      vertex   1.0000000e-006 1.9630360e-001 7.3060150e-002
    endloop
  endfacet
  facet normal -1.000000e+000 0.0000000e+000 0.0000000e+000
    outer loop
      vertex   1.0000000e-006 1.6993110e-001 2.8518240e-002
      vertex   1.0000000e-006 1.9630360e-001 7.3060150e-002
      vertex   1.0000000e-006 1.8604940e-001 4.9053180e-002
    endloop
  endfacet
  facet normal 1.0000000e+000 0.0000000e+000 0.0000000e+000
    outer loop
      vertex   1.5000100e-001 1.3952640e-002 1.5094880e-001
      vertex   1.5000100e-001 3.6984030e-003 1.2694190e-001
      vertex   1.5000100e-001 3.0070930e-002 1.7148380e-001
    endloop
  endfacet
  facet normal 1.0000000e+000 0.0000000e+000 0.0000000e+000
    outer loop
      vertex   1.5000100e-001 3.0070930e-002 1.7148380e-001
      vertex   1.5000100e-001 3.6984030e-003 1.2694190e-001
      vertex   1.5000100e-001 5.0954840e-002 1.8714730e-001
    endloop
  endfacet
  facet normal 1.0000000e+000 0.0000000e+000 0.0000000e+000
    outer loop
      vertex   1.5000100e-001 5.0954840e-002 1.8714730e-001
      vertex   1.5000100e-001 3.6984030e-003 1.2694190e-001
      vertex   1.5000100e-001 7.0273500e-006 1.0109890e-001
    endloop
  endfacet
  facet normal 1.0000000e+000 0.0000000e+000 0.0000000e+000
    outer loop
      vertex   1.5000100e-001 5.0954840e-002 1.8714730e-001
      vertex   1.5000100e-001 7.0273500e-006 1.0109890e-001
      vertex   1.5000100e-001 7.5181160e-002 1.9687190e-001
    endloop
  endfacet
  facet normal 1.0000000e+000 0.0000000e+000 0.0000000e+000
    outer loop
      vertex   1.5000100e-001 7.5181160e-002 1.9687190e-001
      vertex   1.5000100e-001 7.0273500e-006 1.0109890e-001
      vertex   1.5000100e-001 3.1300760e-003 7.5181160e-002
    endloop
  endfacet
  facet normal 1.0000000e+000 0.0000000e+000 0.0000000e+000
    outer loop
      vertex   1.5000100e-001 7.5181160e-002 1.9687190e-001
      vertex   1.5000100e-001 3.1300760e-003 7.5181160e-002
      vertex   1.5000100e-001 1.0109890e-001 1.9999500e-001
    endloop
  endfacet
  facet normal 1.0000000e+000 0.0000000e+000 0.0000000e+000
    outer loop
      vertex   1.5000100e-001 1.0109890e-001 1.9999500e-001
      vertex   1.5000100e-001 3.1300760e-003 7.5181160e-002
      vertex   1.5000100e-001 1.2854720e-002 5.0954840e-002
    endloop
  endfacet
  facet normal 1.0000000e+000 0.0000000e+000 0.0000000e+000
    outer loop
      vertex   1.5000100e-001 1.0109890e-001 1.9999500e-001
      vertex   1.5000100e-001 1.2854720e-002 5.0954840e-002
      vertex   1.5000100e-001 1.2694190e-001 1.9630360e-001
    endloop
  endfacet
  facet normal 1.0000000e+000 0.0000000e+000 0.0000000e+000
    outer loop
      vertex   1.5000100e-001 1.2694190e-001 1.9630360e-001
      vertex   1.5000100e-001 1.2854720e-002 5.0954840e-002
      vertex   1.5000100e-001 2.8518240e-002 3.0070930e-002
    endloop
  endfacet
  facet normal 9.9999990e-001 0.0000000e+000 0.0000000e+000
    outer loop
      vertex   1.5000100e-001 1.2694190e-001 1.9630360e-001
      vertex   1.5000100e-001 2.8518240e-002 3.0070930e-002
      vertex   1.5000100e-001 1.5094880e-001 1.8604940e-001
    endloop
  endfacet
  facet normal 1.0000000e+000 0.0000000e+000 0.0000000e+000
    outer loop
      vertex   1.5000100e-001 1.5094880e-001 1.8604940e-001
      vertex   1.5000100e-001 2.8518240e-002 3.0070930e-002
      vertex   1.5000100e-001 4.9053180e-002 1.3952640e-002
    endloop
  endfacet
  facet normal 1.0000000e+000 0.0000000e+000 0.0000000e+000
    outer loop
      vertex   1.5000100e-001 1.5094880e-001 1.8604940e-001
      vertex   1.5000100e-001 4.9053180e-002 1.3952640e-002
      vertex   1.5000100e-001 1.7148380e-001 1.6993110e-001
    endloop
  endfacet
  facet normal 1.0000000e+000 0.0000000e+000 0.0000000e+000
    outer loop
      vertex   1.5000100e-001 1.7148380e-001 1.6993110e-001
      vertex   1.5000100e-001 4.9053180e-002 1.3952640e-002
      vertex   1.5000100e-001 7.3060150e-002 3.6984030e-003
    endloop
  endfacet
  facet normal 1.0000000e+000 0.0000000e+000 0.0000000e+000
    outer loop
      vertex   1.5000100e-001 1.7148380e-001 1.6993110e-001
      vertex   1.5000100e-001 7.3060150e-002 3.6984030e-003
      vertex   1.5000100e-001 1.8714730e-001 1.4904720e-001
    endloop
  endfacet
  facet normal 1.0000000e+000 0.0000000e+000 0.0000000e+000
    outer loop
      vertex   1.5000100e-001 1.8714730e-001 1.4904720e-001
      vertex   1.5000100e-001 7.3060150e-002 3.6984030e-003
      vertex   1.5000100e-001 9.8903070e-002 7.0273500e-006
    endloop
  endfacet
  facet normal 1.0000000e+000 0.0000000e+000 0.0000000e+000
    outer loop
      vertex   1.5000100e-001 1.8714730e-001 1.4904720e-001
      vertex   1.5000100e-001 9.8903070e-002 7.0273500e-006
      vertex   1.5000100e-001 1.9687190e-001 1.2482080e-001
    endloop
  endfacet
  facet normal 1.0000000e+000 0.0000000e+000 0.0000000e+000
    outer loop
      vertex   1.5000100e-001 1.9687190e-001 1.2482080e-001
      vertex   1.5000100e-001 9.8903070e-002 7.0273500e-006
      vertex   1.5000100e-001 1.2482080e-001 3.1300760e-003
    endloop
  endfacet
  facet normal 1.0000000e+000 0.0000000e+000 0.0000000e+000
    outer loop
      vertex   1.5000100e-001 1.9687190e-001 1.2482080e-001
      vertex   1.5000100e-001 1.2482080e-001 3.1300760e-003
      vertex   1.5000100e-001 1.9999500e-001 9.8903070e-002
    endloop
  endfacet
  facet normal 9.9999990e-001 0.0000000e+000 0.0000000e+000
    outer loop
      vertex   1.5000100e-001 1.9999500e-001 9.8903070e-002
      vertex   1.5000100e-001 1.2482080e-001 3.1300760e-003
      vertex   1.5000100e-001 1.4904720e-001 1.2854720e-002
    endloop
  endfacet
  facet normal 1.0000000e+000 0.0000000e+000 0.0000000e+000
    outer loop
      vertex   1.5000100e-001 1.9999500e-001 9.8903070e-002
      vertex   1.5000100e-001 1.4904720e-001 1.2854720e-002
      vertex   1.5000100e-001 1.9630360e-001 7.3060150e-002
    endloop
  endfacet
  facet normal 1.0000000e+000 0.0000000e+000 0.0000000e+000
    outer loop
      vertex   1.5000100e-001 1.9630360e-001 7.3060150e-002
      vertex   1.5000100e-001 1.4904720e-001 1.2854720e-002
      vertex   1.5000100e-001 1.6993110e-001 2.8518240e-002
    endloop
  endfacet
  facet normal 1.0000000e+000 0.0000000e+000 0.0000000e+000
    outer loop
      vertex   1.5000100e-001 1.9630360e-001 7.3060150e-002
      vertex   1.5000100e-001 1.6993110e-001 2.8518240e-002
      vertex   1.5000100e-001 1.8604940e-001 4.9053180e-002
    endloop
  endfacet
  facet normal 0.0000000e+000 -9.196222e-001 3.9280400e-001
    outer loop
      vertex   6.0150000e+001 3.6984030e-003 1.2694190e-001
      vertex   6.0300000e+001 3.6984030e-003 1.2694190e-001
      vertex   6.0150000e+001 1.3952640e-002 1.5094880e-001
    endloop
  endfacet
  facet normal 0.0000000e+000 -9.196222e-001 3.9280400e-001
    outer loop
      vertex   6.0150000e+001 1.3952640e-002 1.5094880e-001
      vertex   6.0300000e+001 3.6984030e-003 1.2694190e-001
      vertex   6.0300000e+001 1.3952640e-002 1.5094880e-001
    endloop
  endfacet
  facet normal 0.0000000e+000 -7.866220e-001 6.1743490e-001
    outer loop
      vertex   6.0150000e+001 1.3952640e-002 1.5094880e-001
      vertex   6.0300000e+001 1.3952640e-002 1.5094880e-001
      vertex   6.0150000e+001 3.0070930e-002 1.7148380e-001
    endloop
  endfacet
  facet normal 0.0000000e+000 -7.866220e-001 6.1743490e-001
    outer loop
      vertex   6.0150000e+001 3.0070930e-002 1.7148380e-001
      vertex   6.0300000e+001 1.3952640e-002 1.5094880e-001
      vertex   6.0300000e+001 3.0070930e-002 1.7148380e-001
    endloop
  endfacet
  facet normal 0.0000000e+000 -6.000141e-001 7.9998950e-001
    outer loop
      vertex   6.0150000e+001 3.0070930e-002 1.7148380e-001
      vertex   6.0300000e+001 3.0070930e-002 1.7148380e-001
      vertex   6.0150000e+001 5.0954840e-002 1.8714730e-001
    endloop
  endfacet
  facet normal 0.0000000e+000 -6.000141e-001 7.9998950e-001
    outer loop
      vertex   6.0150000e+001 5.0954840e-002 1.8714730e-001
      vertex   6.0300000e+001 3.0070930e-002 1.7148380e-001
      vertex   6.0300000e+001 5.0954840e-002 1.8714730e-001
    endloop
  endfacet
  facet normal 0.0000000e+000 -3.725171e-001 9.2802540e-001
    outer loop
      vertex   6.0150000e+001 5.0954840e-002 1.8714730e-001
      vertex   6.0300000e+001 5.0954840e-002 1.8714730e-001
      vertex   6.0150000e+001 7.5181160e-002 1.9687190e-001
    endloop
  endfacet
  facet normal 0.0000000e+000 -3.725171e-001 9.2802540e-001
    outer loop
      vertex   6.0150000e+001 7.5181160e-002 1.9687190e-001
      vertex   6.0300000e+001 5.0954840e-002 1.8714730e-001
      vertex   6.0300000e+001 7.5181160e-002 1.9687190e-001
    endloop
  endfacet
  facet normal 0.0000000e+000 -1.196329e-001 9.9281830e-001
    outer loop
      vertex   6.0150000e+001 7.5181160e-002 1.9687190e-001
      vertex   6.0300000e+001 7.5181160e-002 1.9687190e-001
      vertex   6.0150000e+001 1.0109890e-001 1.9999500e-001
    endloop
  endfacet
  facet normal 0.0000000e+000 -1.196329e-001 9.9281830e-001
    outer loop
      vertex   6.0150000e+001 1.0109890e-001 1.9999500e-001
      vertex   6.0300000e+001 7.5181160e-002 1.9687190e-001
      vertex   6.0300000e+001 1.0109890e-001 1.9999500e-001
    endloop
  endfacet
  facet normal 0.0000000e+000 1.4140360e-001 9.8995200e-001
    outer loop
      vertex   6.0150000e+001 1.0109890e-001 1.9999500e-001
      vertex   6.0300000e+001 1.0109890e-001 1.9999500e-001
      vertex   6.0150000e+001 1.2694190e-001 1.9630360e-001
    endloop
  endfacet
  facet normal 0.0000000e+000 1.4140360e-001 9.8995200e-001
    outer loop
      vertex   6.0150000e+001 1.2694190e-001 1.9630360e-001
      vertex   6.0300000e+001 1.0109890e-001 1.9999500e-001
      vertex   6.0300000e+001 1.2694190e-001 1.9630360e-001
    endloop
  endfacet
  facet normal 0.0000000e+000 3.9280390e-001 9.1962230e-001
    outer loop
      vertex   6.0150000e+001 1.2694190e-001 1.9630360e-001
      vertex   6.0300000e+001 1.2694190e-001 1.9630360e-001
      vertex   6.0150000e+001 1.5094880e-001 1.8604940e-001
    endloop
  endfacet
  facet normal 0.0000000e+000 3.9280390e-001 9.1962230e-001
    outer loop
      vertex   6.0150000e+001 1.5094880e-001 1.8604940e-001
      vertex   6.0300000e+001 1.2694190e-001 1.9630360e-001
      vertex   6.0300000e+001 1.5094880e-001 1.8604940e-001
    endloop
  endfacet
  facet normal 0.0000000e+000 6.1743490e-001 7.8662210e-001
    outer loop
      vertex   6.0150000e+001 1.5094880e-001 1.8604940e-001
      vertex   6.0300000e+001 1.5094880e-001 1.8604940e-001
      vertex   6.0150000e+001 1.7148380e-001 1.6993110e-001
    endloop
  endfacet
  facet normal 0.0000000e+000 6.1743490e-001 7.8662210e-001
    outer loop
      vertex   6.0150000e+001 1.7148380e-001 1.6993110e-001
      vertex   6.0300000e+001 1.5094880e-001 1.8604940e-001
      vertex   6.0300000e+001 1.7148380e-001 1.6993110e-001
    endloop
  endfacet
  facet normal 0.0000000e+000 7.9998960e-001 6.0001390e-001
    outer loop
      vertex   6.0150000e+001 1.7148380e-001 1.6993110e-001
      vertex   6.0300000e+001 1.7148380e-001 1.6993110e-001
      vertex   6.0150000e+001 1.8714730e-001 1.4904720e-001
    endloop
  endfacet
  facet normal 0.0000000e+000 7.9998960e-001 6.0001390e-001
    outer loop
      vertex   6.0150000e+001 1.8714730e-001 1.4904720e-001
      vertex   6.0300000e+001 1.7148380e-001 1.6993110e-001
      vertex   6.0300000e+001 1.8714730e-001 1.4904720e-001
    endloop
  endfacet
  facet normal 0.0000000e+000 9.2802520e-001 3.7251710e-001
    outer loop
      vertex   6.0150000e+001 1.8714730e-001 1.4904720e-001
      vertex   6.0300000e+001 1.8714730e-001 1.4904720e-001
      vertex   6.0150000e+001 1.9687190e-001 1.2482080e-001
    endloop
  endfacet
  facet normal 0.0000000e+000 9.2802520e-001 3.7251710e-001
    outer loop
      vertex   6.0150000e+001 1.9687190e-001 1.2482080e-001
      vertex   6.0300000e+001 1.8714730e-001 1.4904720e-001
      vertex   6.0300000e+001 1.9687190e-001 1.2482080e-001
    endloop
  endfacet
  facet normal 0.0000000e+000 9.9281830e-001 1.1963290e-001
    outer loop
      vertex   6.0150000e+001 1.9687190e-001 1.2482080e-001
      vertex   6.0300000e+001 1.9687190e-001 1.2482080e-001
      vertex   6.0150000e+001 1.9999500e-001 9.8903070e-002
    endloop
  endfacet
  facet normal 0.0000000e+000 9.9281830e-001 1.1963290e-001
    outer loop
      vertex   6.0150000e+001 1.9999500e-001 9.8903070e-002
      vertex   6.0300000e+001 1.9687190e-001 1.2482080e-001
      vertex   6.0300000e+001 1.9999500e-001 9.8903070e-002
    endloop
  endfacet
  facet normal 0.0000000e+000 9.8995200e-001 -1.414037e-001
    outer loop
      vertex   6.0150000e+001 1.9999500e-001 9.8903070e-002
      vertex   6.0300000e+001 1.9999500e-001 9.8903070e-002
      vertex   6.0150000e+001 1.9630360e-001 7.3060150e-002
    endloop
  endfacet
  facet normal 0.0000000e+000 9.8995200e-001 -1.414037e-001
    outer loop
      vertex   6.0150000e+001 1.9630360e-001 7.3060150e-002
      vertex   6.0300000e+001 1.9999500e-001 9.8903070e-002
      vertex   6.0300000e+001 1.9630360e-001 7.3060150e-002
    endloop
  endfacet
  facet normal 0.0000000e+000 9.1962240e-001 -3.928036e-001
    outer loop
      vertex   6.0150000e+001 1.9630360e-001 7.3060150e-002
      vertex   6.0300000e+001 1.9630360e-001 7.3060150e-002
      vertex   6.0150000e+001 1.8604940e-001 4.9053180e-002
    endloop
  endfacet
  facet normal 0.0000000e+000 9.1962240e-001 -3.928036e-001
    outer loop
      vertex   6.0150000e+001 1.8604940e-001 4.9053180e-002
      vertex   6.0300000e+001 1.9630360e-001 7.3060150e-002
      vertex   6.0300000e+001 1.8604940e-001 4.9053180e-002
    endloop
  endfacet
  facet normal 0.0000000e+000 7.8662190e-001 -6.174350e-001
    outer loop
      vertex   6.0150000e+001 1.8604940e-001 4.9053180e-002
      vertex   6.0300000e+001 1.8604940e-001 4.9053180e-002
      vertex   6.0150000e+001 1.6993110e-001 2.8518240e-002
    endloop
  endfacet
  facet normal 0.0000000e+000 7.8662190e-001 -6.174350e-001
    outer loop
      vertex   6.0150000e+001 1.6993110e-001 2.8518240e-002
      vertex   6.0300000e+001 1.8604940e-001 4.9053180e-002
      vertex   6.0300000e+001 1.6993110e-001 2.8518240e-002
    endloop
  endfacet
  facet normal 0.0000000e+000 6.0001420e-001 -7.999894e-001
    outer loop
      vertex   6.0150000e+001 1.6993110e-001 2.8518240e-002
      vertex   6.0300000e+001 1.6993110e-001 2.8518240e-002
      vertex   6.0150000e+001 1.4904720e-001 1.2854720e-002
    endloop
  endfacet
  facet normal 0.0000000e+000 6.0001420e-001 -7.999894e-001
    outer loop
      vertex   6.0150000e+001 1.4904720e-001 1.2854720e-002
      vertex   6.0300000e+001 1.6993110e-001 2.8518240e-002
      vertex   6.0300000e+001 1.4904720e-001 1.2854720e-002
    endloop
  endfacet
  facet normal 0.0000000e+000 3.7251700e-001 -9.280254e-001
    outer loop
      vertex   6.0150000e+001 1.4904720e-001 1.2854720e-002
      vertex   6.0300000e+001 1.4904720e-001 1.2854720e-002
      vertex   6.0150000e+001 1.2482080e-001 3.1300760e-003
    endloop
  endfacet
  facet normal 0.0000000e+000 3.7251700e-001 -9.280254e-001
    outer loop
      vertex   6.0150000e+001 1.2482080e-001 3.1300760e-003
      vertex   6.0300000e+001 1.4904720e-001 1.2854720e-002
      vertex   6.0300000e+001 1.2482080e-001 3.1300760e-003
    endloop
  endfacet
  facet normal 0.0000000e+000 1.1963300e-001 -9.928183e-001
    outer loop
      vertex   6.0150000e+001 1.2482080e-001 3.1300760e-003
      vertex   6.0300000e+001 1.2482080e-001 3.1300760e-003
      vertex   6.0150000e+001 9.8903070e-002 7.0273500e-006
    endloop
  endfacet
  facet normal 0.0000000e+000 1.1963300e-001 -9.928183e-001
    outer loop
      vertex   6.0150000e+001 9.8903070e-002 7.0273500e-006
      vertex   6.0300000e+001 1.2482080e-001 3.1300760e-003
      vertex   6.0300000e+001 9.8903070e-002 7.0273500e-006
    endloop
  endfacet
  facet normal 0.0000000e+000 -1.414037e-001 -9.899520e-001
    outer loop
      vertex   6.0150000e+001 9.8903070e-002 7.0273500e-006
      vertex   6.0300000e+001 9.8903070e-002 7.0273500e-006
      vertex   6.0150000e+001 7.3060150e-002 3.6984030e-003
    endloop
  endfacet
  facet normal 0.0000000e+000 -1.414037e-001 -9.899520e-001
    outer loop
      vertex   6.0150000e+001 7.3060150e-002 3.6984030e-003
      vertex   6.0300000e+001 9.8903070e-002 7.0273500e-006
      vertex   6.0300000e+001 7.3060150e-002 3.6984030e-003
    endloop
  endfacet
  facet normal 0.0000000e+000 -3.928038e-001 -9.196223e-001
    outer loop
      vertex   6.0150000e+001 7.3060150e-002 3.6984030e-003
      vertex   6.0300000e+001 7.3060150e-002 3.6984030e-003
      vertex   6.0150000e+001 4.9053180e-002 1.3952640e-002
    endloop
  endfacet
  facet normal 0.0000000e+000 -3.928038e-001 -9.196223e-001
    outer loop
      vertex   6.0150000e+001 4.9053180e-002 1.3952640e-002
      vertex   6.0300000e+001 7.3060150e-002 3.6984030e-003
      vertex   6.0300000e+001 4.9053180e-002 1.3952640e-002
    endloop
  endfacet
  facet normal 0.0000000e+000 -6.174351e-001 -7.866217e-001
    outer loop
      vertex   6.0150000e+001 4.9053180e-002 1.3952640e-002
      vertex   6.0300000e+001 4.9053180e-002 1.3952640e-002
      vertex   6.0150000e+001 2.8518240e-002 3.0070930e-002
    endloop
  endfacet
  facet normal 0.0000000e+000 -6.174351e-001 -7.866217e-001
    outer loop
      vertex   6.0150000e+001 2.8518240e-002 3.0070930e-002
      vertex   6.0300000e+001 4.9053180e-002 1.3952640e-002
      vertex   6.0300000e+001 2.8518240e-002 3.0070930e-002
    endloop
  endfacet
  facet normal 0.0000000e+000 -7.999892e-001 -6.000143e-001
    outer loop
      vertex   6.0150000e+001 2.8518240e-002 3.0070930e-002
      vertex   6.0300000e+001 2.8518240e-002 3.0070930e-002
      vertex   6.0150000e+001 1.2854720e-002 5.0954840e-002
    endloop
  endfacet
  facet normal 0.0000000e+000 -7.999892e-001 -6.000143e-001
    outer loop
      vertex   6.0150000e+001 1.2854720e-002 5.0954840e-002
      vertex   6.0300000e+001 2.8518240e-002 3.0070930e-002
      vertex   6.0300000e+001 1.2854720e-002 5.0954840e-002
    endloop
  endfacet
  facet normal 0.0000000e+000 -9.280254e-001 -3.725169e-001
    outer loop
      vertex   6.0150000e+001 1.2854720e-002 5.0954840e-002
      vertex   6.0300000e+001 1.2854720e-002 5.0954840e-002
      vertex   6.0150000e+001 3.1300760e-003 7.5181160e-002
    endloop
  endfacet
  facet normal 0.0000000e+000 -9.280254e-001 -3.725169e-001
    outer loop
      vertex   6.0150000e+001 3.1300760e-003 7.5181160e-002
      vertex   6.0300000e+001 1.2854720e-002 5.0954840e-002
      vertex   6.0300000e+001 3.1300760e-003 7.5181160e-002
    endloop
  endfacet
  facet normal 0.0000000e+000 -9.928183e-001 -1.196330e-001
    outer loop
      vertex   6.0150000e+001 3.1300760e-003 7.5181160e-002
      vertex   6.0300000e+001 3.1300760e-003 7.5181160e-002
      vertex   6.0150000e+001 7.0273500e-006 1.0109890e-001
    endloop
  endfacet
  facet normal 0.0000000e+000 -9.928183e-001 -1.196330e-001
    outer loop
      vertex   6.0150000e+001 7.0273500e-006 1.0109890e-001
      vertex   6.0300000e+001 3.1300760e-003 7.5181160e-002
      vertex   6.0300000e+001 7.0273500e-006 1.0109890e-001
    endloop
  endfacet
  facet normal 0.0000000e+000 -9.899520e-001 1.4140360e-001
    outer loop
      vertex   6.0150000e+001 7.0273500e-006 1.0109890e-001
      vertex   6.0300000e+001 7.0273500e-006 1.0109890e-001
      vertex   6.0150000e+001 3.6984030e-003 1.2694190e-001
    endloop
  endfacet
  facet normal 0.0000000e+000 -9.899520e-001 1.4140360e-001
    outer loop
      vertex   6.0150000e+001 3.6984030e-003 1.2694190e-001
      vertex   6.0300000e+001 7.0273500e-006 1.0109890e-001
      vertex   6.0300000e+001 3.6984030e-003 1.2694190e-001
    endloop
  endfacet
  facet normal -1.000000e+000 0.0000000e+000 0.0000000e+000
    outer loop
      vertex   6.0150000e+001 1.3952640e-002 1.5094880e-001
      vertex   6.0150000e+001 3.0070930e-002 1.7148380e-001
      vertex   6.0150000e+001 3.6984030e-003 1.2694190e-001
    endloop
  endfacet
  facet normal -1.000000e+000 0.0000000e+000 0.0000000e+000
    outer loop
      vertex   6.0150000e+001 3.6984030e-003 1.2694190e-001
      vertex   6.0150000e+001 3.0070930e-002 1.7148380e-001
      vertex   6.0150000e+001 7.0273500e-006 1.0109890e-001
    endloop
  endfacet
  facet normal -1.000000e+000 0.0000000e+000 0.0000000e+000
    outer loop
      vertex   6.0150000e+001 7.0273500e-006 1.0109890e-001
      vertex   6.0150000e+001 3.0070930e-002 1.7148380e-001
      vertex   6.0150000e+001 5.0954840e-002 1.8714730e-001
    endloop
  endfacet
  facet normal -9.999999e-001 0.0000000e+000 0.0000000e+000
    outer loop
      vertex   6.0150000e+001 7.0273500e-006 1.0109890e-001
      vertex   6.0150000e+001 5.0954840e-002 1.8714730e-001
      vertex   6.0150000e+001 3.1300760e-003 7.5181160e-002
    endloop
  endfacet
  facet normal -1.000000e+000 0.0000000e+000 0.0000000e+000
    outer loop
      vertex   6.0150000e+001 3.1300760e-003 7.5181160e-002
      vertex   6.0150000e+001 5.0954840e-002 1.8714730e-001
      vertex   6.0150000e+001 7.5181160e-002 1.9687190e-001
    endloop
  endfacet
  facet normal -1.000000e+000 0.0000000e+000 0.0000000e+000
    outer loop
      vertex   6.0150000e+001 3.1300760e-003 7.5181160e-002
      vertex   6.0150000e+001 7.5181160e-002 1.9687190e-001
      vertex   6.0150000e+001 1.2854720e-002 5.0954840e-002
    endloop
  endfacet
  facet normal -1.000000e+000 0.0000000e+000 0.0000000e+000
    outer loop
      vertex   6.0150000e+001 1.2854720e-002 5.0954840e-002
      vertex   6.0150000e+001 7.5181160e-002 1.9687190e-001
      vertex   6.0150000e+001 1.0109890e-001 1.9999500e-001
    endloop
  endfacet
  facet normal -1.000000e+000 0.0000000e+000 0.0000000e+000
    outer loop
      vertex   6.0150000e+001 1.2854720e-002 5.0954840e-002
      vertex   6.0150000e+001 1.0109890e-001 1.9999500e-001
      vertex   6.0150000e+001 2.8518240e-002 3.0070930e-002
    endloop
  endfacet
  facet normal -1.000000e+000 0.0000000e+000 0.0000000e+000
    outer loop
      vertex   6.0150000e+001 2.8518240e-002 3.0070930e-002
      vertex   6.0150000e+001 1.0109890e-001 1.9999500e-001
      vertex   6.0150000e+001 1.2694190e-001 1.9630360e-001
    endloop
  endfacet
  facet normal -1.000000e+000 0.0000000e+000 0.0000000e+000
    outer loop
      vertex   6.0150000e+001 2.8518240e-002 3.0070930e-002
      vertex   6.0150000e+001 1.2694190e-001 1.9630360e-001
      vertex   6.0150000e+001 4.9053180e-002 1.3952640e-002
    endloop
  endfacet
  facet normal -1.000000e+000 0.0000000e+000 0.0000000e+000
    outer loop
      vertex   6.0150000e+001 4.9053180e-002 1.3952640e-002
      vertex   6.0150000e+001 1.2694190e-001 1.9630360e-001
      vertex   6.0150000e+001 1.5094880e-001 1.8604940e-001
    endloop
  endfacet
  facet normal -1.000000e+000 0.0000000e+000 0.0000000e+000
    outer loop
      vertex   6.0150000e+001 4.9053180e-002 1.3952640e-002
      vertex   6.0150000e+001 1.5094880e-001 1.8604940e-001
      vertex   6.0150000e+001 7.3060150e-002 3.6984030e-003
    endloop
  endfacet
  facet normal -1.000000e+000 0.0000000e+000 0.0000000e+000
    outer loop
      vertex   6.0150000e+001 7.3060150e-002 3.6984030e-003
      vertex   6.0150000e+001 1.5094880e-001 1.8604940e-001
      vertex   6.0150000e+001 1.7148380e-001 1.6993110e-001
    endloop
  endfacet
  facet normal -1.000000e+000 0.0000000e+000 0.0000000e+000
    outer loop
      vertex   6.0150000e+001 7.3060150e-002 3.6984030e-003
      vertex   6.0150000e+001 1.7148380e-001 1.6993110e-001
      vertex   6.0150000e+001 9.8903070e-002 7.0273500e-006
    endloop
  endfacet
  facet normal -1.000000e+000 0.0000000e+000 0.0000000e+000
    outer loop
      vertex   6.0150000e+001 9.8903070e-002 7.0273500e-006
      vertex   6.0150000e+001 1.7148380e-001 1.6993110e-001
      vertex   6.0150000e+001 1.8714730e-001 1.4904720e-001
    endloop
  endfacet
  facet normal -9.999999e-001 0.0000000e+000 0.0000000e+000
    outer loop
      vertex   6.0150000e+001 9.8903070e-002 7.0273500e-006
      vertex   6.0150000e+001 1.8714730e-001 1.4904720e-001
      vertex   6.0150000e+001 1.2482080e-001 3.1300760e-003
    endloop
  endfacet
  facet normal -1.000000e+000 0.0000000e+000 0.0000000e+000
    outer loop
      vertex   6.0150000e+001 1.2482080e-001 3.1300760e-003
      vertex   6.0150000e+001 1.8714730e-001 1.4904720e-001
      vertex   6.0150000e+001 1.9687190e-001 1.2482080e-001
    endloop
  endfacet
  facet normal -1.000000e+000 0.0000000e+000 0.0000000e+000
    outer loop
      vertex   6.0150000e+001 1.2482080e-001 3.1300760e-003
      vertex   6.0150000e+001 1.9687190e-001 1.2482080e-001
      vertex   6.0150000e+001 1.4904720e-001 1.2854720e-002
    endloop
  endfacet
  facet normal -9.999999e-001 0.0000000e+000 0.0000000e+000
    outer loop
      vertex   6.0150000e+001 1.4904720e-001 1.2854720e-002
      vertex   6.0150000e+001 1.9687190e-001 1.2482080e-001
      vertex   6.0150000e+001 1.9999500e-001 9.8903070e-002
    endloop
  endfacet
  facet normal -1.000000e+000 0.0000000e+000 0.0000000e+000
    outer loop
      vertex   6.0150000e+001 1.4904720e-001 1.2854720e-002
      vertex   6.0150000e+001 1.9999500e-001 9.8903070e-002
      vertex   6.0150000e+001 1.6993110e-001 2.8518240e-002
    endloop
  endfacet
  facet normal -1.000000e+000 0.0000000e+000 0.0000000e+000
    outer loop
      vertex   6.0150000e+001 1.6993110e-001 2.8518240e-002
      vertex   6.0150000e+001 1.9999500e-001 9.8903070e-002
      vertex   6.0150000e+001 1.9630360e-001 7.3060150e-002
    endloop
  endfacet
  facet normal -1.000000e+000 0.0000000e+000 0.0000000e+000
    outer loop
      vertex   6.0150000e+001 1.6993110e-001 2.8518240e-002
      vertex   6.0150000e+001 1.9630360e-001 7.3060150e-002
      vertex   6.0150000e+001 1.8604940e-001 4.9053180e-002
    endloop
  endfacet
  facet normal 1.0000000e+000 0.0000000e+000 0.0000000e+000
    outer loop
      vertex   6.0300000e+001 1.3952640e-002 1.5094880e-001
      vertex   6.0300000e+001 3.6984030e-003 1.2694190e-001
      vertex   6.0300000e+001 3.0070930e-002 1.7148380e-001
    endloop
  endfacet
  facet normal 1.0000000e+000 0.0000000e+000 0.0000000e+000
    outer loop
      vertex   6.0300000e+001 3.0070930e-002 1.7148380e-001
      vertex   6.0300000e+001 3.6984030e-003 1.2694190e-001
      vertex   6.0300000e+001 5.0954840e-002 1.8714730e-001
    endloop
  endfacet
  facet normal 1.0000000e+000 0.0000000e+000 0.0000000e+000
    outer loop
      vertex   6.0300000e+001 5.0954840e-002 1.8714730e-001
      vertex   6.0300000e+001 3.6984030e-003 1.2694190e-001
      vertex   6.0300000e+001 7.0273500e-006 1.0109890e-001
    endloop
  endfacet
  facet normal 1.0000000e+000 0.0000000e+000 0.0000000e+000
    outer loop
      vertex   6.0300000e+001 5.0954840e-002 1.8714730e-001
      vertex   6.0300000e+001 7.0273500e-006 1.0109890e-001
      vertex   6.0300000e+001 7.5181160e-002 1.9687190e-001
    endloop
  endfacet
  facet normal 1.0000000e+000 0.0000000e+000 0.0000000e+000
    outer loop
      vertex   6.0300000e+001 7.5181160e-002 1.9687190e-001
      vertex   6.0300000e+001 7.0273500e-006 1.0109890e-001
      vertex   6.0300000e+001 3.1300760e-003 7.5181160e-002
    endloop
  endfacet
  facet normal 1.0000000e+000 0.0000000e+000 0.0000000e+000
    outer loop
      vertex   6.0300000e+001 7.5181160e-002 1.9687190e-001
      vertex   6.0300000e+001 3.1300760e-003 7.5181160e-002
      vertex   6.0300000e+001 1.0109890e-001 1.9999500e-001
    endloop
  endfacet
  facet normal 1.0000000e+000 0.0000000e+000 0.0000000e+000
    outer loop
      vertex   6.0300000e+001 1.0109890e-001 1.9999500e-001
      vertex   6.0300000e+001 3.1300760e-003 7.5181160e-002
      vertex   6.0300000e+001 1.2854720e-002 5.0954840e-002
    endloop
  endfacet
  facet normal 1.0000000e+000 0.0000000e+000 0.0000000e+000
    outer loop
      vertex   6.0300000e+001 1.0109890e-001 1.9999500e-001
      vertex   6.0300000e+001 1.2854720e-002 5.0954840e-002
      vertex   6.0300000e+001 1.2694190e-001 1.9630360e-001
    endloop
  endfacet
  facet normal 1.0000000e+000 0.0000000e+000 0.0000000e+000
    outer loop
      vertex   6.0300000e+001 1.2694190e-001 1.9630360e-001
      vertex   6.0300000e+001 1.2854720e-002 5.0954840e-002
      vertex   6.0300000e+001 2.8518240e-002 3.0070930e-002
    endloop
  endfacet
  facet normal 9.9999990e-001 0.0000000e+000 0.0000000e+000
    outer loop
      vertex   6.0300000e+001 1.2694190e-001 1.9630360e-001
      vertex   6.0300000e+001 2.8518240e-002 3.0070930e-002
      vertex   6.0300000e+001 1.5094880e-001 1.8604940e-001
    endloop
  endfacet
  facet normal 1.0000000e+000 0.0000000e+000 0.0000000e+000
    outer loop
      vertex   6.0300000e+001 1.5094880e-001 1.8604940e-001
      vertex   6.0300000e+001 2.8518240e-002 3.0070930e-002
      vertex   6.0300000e+001 4.9053180e-002 1.3952640e-002
    endloop
  endfacet
  facet normal 1.0000000e+000 0.0000000e+000 0.0000000e+000
    outer loop
      vertex   6.0300000e+001 1.5094880e-001 1.8604940e-001
      vertex   6.0300000e+001 4.9053180e-002 1.3952640e-002
      vertex   6.0300000e+001 1.7148380e-001 1.6993110e-001
    endloop
  endfacet
  facet normal 1.0000000e+000 0.0000000e+000 0.0000000e+000
    outer loop
      vertex   6.0300000e+001 1.7148380e-001 1.6993110e-001
      vertex   6.0300000e+001 4.9053180e-002 1.3952640e-002
      vertex   6.0300000e+001 7.3060150e-002 3.6984030e-003
    endloop
  endfacet
  facet normal 1.0000000e+000 0.0000000e+000 0.0000000e+000
    outer loop
      vertex   6.0300000e+001 1.7148380e-001 1.6993110e-001
      vertex   6.0300000e+001 7.3060150e-002 3.6984030e-003
      vertex   6.0300000e+001 1.8714730e-001 1.4904720e-001
    endloop
  endfacet
  facet normal 1.0000000e+000 0.0000000e+000 0.0000000e+000
    outer loop
      vertex   6.0300000e+001 1.8714730e-001 1.4904720e-001
      vertex   6.0300000e+001 7.3060150e-002 3.6984030e-003
      vertex   6.0300000e+001 9.8903070e-002 7.0273500e-006
    endloop
  endfacet
  facet normal 1.0000000e+000 0.0000000e+000 0.0000000e+000
    outer loop
      vertex   6.0300000e+001 1.8714730e-001 1.4904720e-001
      vertex   6.0300000e+001 9.8903070e-002 7.0273500e-006
      vertex   6.0300000e+001 1.9687190e-001 1.2482080e-001
    endloop
  endfacet
  facet normal 1.0000000e+000 0.0000000e+000 0.0000000e+000
    outer loop
      vertex   6.0300000e+001 1.9687190e-001 1.2482080e-001
      vertex   6.0300000e+001 9.8903070e-002 7.0273500e-006
      vertex   6.0300000e+001 1.2482080e-001 3.1300760e-003
    endloop
  endfacet
  facet normal 1.0000000e+000 0.0000000e+000 0.0000000e+000
    outer loop
      vertex   6.0300000e+001 1.9687190e-001 1.2482080e-001
      vertex   6.0300000e+001 1.2482080e-001 3.1300760e-003
      vertex   6.0300000e+001 1.9999500e-001 9.8903070e-002
    endloop
  endfacet
  facet normal 9.9999990e-001 0.0000000e+000 0.0000000e+000
    outer loop
      vertex   6.0300000e+001 1.9999500e-001 9.8903070e-002
      vertex   6.0300000e+001 1.2482080e-001 3.1300760e-003
      vertex   6.0300000e+001 1.4904720e-001 1.2854720e-002
    endloop
  endfacet
  facet normal 1.0000000e+000 0.0000000e+000 0.0000000e+000
    outer loop
      vertex   6.0300000e+001 1.9999500e-001 9.8903070e-002
      vertex   6.0300000e+001 1.4904720e-001 1.2854720e-002
      vertex   6.0300000e+001 1.9630360e-001 7.3060150e-002
    endloop
  endfacet
  facet normal 1.0000000e+000 0.0000000e+000 0.0000000e+000
    outer loop
      vertex   6.0300000e+001 1.9630360e-001 7.3060150e-002
      vertex   6.0300000e+001 1.4904720e-001 1.2854720e-002
      vertex   6.0300000e+001 1.6993110e-001 2.8518240e-002
    endloop
  endfacet
  facet normal 1.0000000e+000 0.0000000e+000 0.0000000e+000
    outer loop
      vertex   6.0300000e+001 1.9630360e-001 7.3060150e-002
      vertex   6.0300000e+001 1.6993110e-001 2.8518240e-002
      vertex   6.0300000e+001 1.8604940e-001 4.9053180e-002
    endloop
  endfacet
endsolid
