solid ascii
  facet normal -1.000000e+000 0.0000000e+000 0.0000000e+000
    outer loop
      vertex   1.2930480e+001 3.2700770e+000 -2.505462e+000
      vertex   1.2930480e+001 -1.729923e+000 -2.505463e+000
      vertex   1.2930480e+001 -1.729923e+000 2.3731690e+000
    endloop
  endfacet
  facet normal -1.000000e+000 0.0000000e+000 0.0000000e+000
    outer loop
      vertex   1.2930480e+001 3.2700770e+000 -2.505462e+000
      vertex   1.2930480e+001 -1.729923e+000 2.3731690e+000
      vertex   1.2930480e+001 3.2700770e+000 2.3731690e+000
    endloop
  endfacet
  facet normal 9.9999990e-001 0.0000000e+000 0.0000000e+000
    outer loop
      vertex   -1.219513e+000 7.7007680e-001 4.3245390e+000
      vertex   -1.219513e+000 -1.729923e+000 2.3731690e+000
      vertex   -1.219513e+000 3.2700770e+000 2.3731690e+000
    endloop
  endfacet
  facet normal 1.0000000e+000 0.0000000e+000 0.0000000e+000
    outer loop
      vertex   -1.219513e+000 3.2700770e+000 -2.505462e+000
      vertex   -1.219513e+000 3.2700770e+000 2.3731690e+000
      vertex   -1.219513e+000 -1.729923e+000 2.3731690e+000
    endloop
  endfacet
  facet normal 1.0000000e+000 0.0000000e+000 0.0000000e+000
    outer loop
      vertex   -1.219513e+000 3.2700770e+000 -2.505462e+000
      vertex   -1.219513e+000 -1.729923e+000 2.3731690e+000
      vertex   -1.219513e+000 -1.729923e+000 -2.505463e+000
    endloop
  endfacet
  facet normal -9.999999e-001 0.0000000e+000 0.0000000e+000
    outer loop
      vertex   1.2930480e+001 7.7007680e-001 4.3245390e+000
      vertex   1.2930480e+001 3.2700770e+000 2.3731690e+000
      vertex   1.2930480e+001 -1.729923e+000 2.3731690e+000
    endloop
  endfacet
  facet normal 0.0000000e+000 -6.153003e-001 -7.882928e-001
    outer loop
      vertex   -1.219513e+000 3.2700770e+000 2.3731690e+000
      vertex   1.2930480e+001 3.2700770e+000 2.3731690e+000
      vertex   1.2930480e+001 7.7007680e-001 4.3245390e+000
    endloop
  endfacet
  facet normal 0.0000000e+000 -6.153003e-001 -7.882928e-001
    outer loop
      vertex   -1.219513e+000 3.2700770e+000 2.3731690e+000
      vertex   1.2930480e+001 7.7007680e-001 4.3245390e+000
      vertex   -1.219513e+000 7.7007680e-001 4.3245390e+000
    endloop
  endfacet
  facet normal 0.0000000e+000 6.1530040e-001 -7.882927e-001
    outer loop
      vertex   1.2930480e+001 -1.729923e+000 2.3731690e+000
      vertex   -1.219513e+000 -1.729923e+000 2.3731690e+000
      vertex   -1.219513e+000 7.7007680e-001 4.3245390e+000
    endloop
  endfacet
  facet normal 0.0000000e+000 6.1530040e-001 -7.882927e-001
    outer loop
      vertex   1.2930480e+001 -1.729923e+000 2.3731690e+000
      vertex   -1.219513e+000 7.7007680e-001 4.3245390e+000
      vertex   1.2930480e+001 7.7007680e-001 4.3245390e+000
    endloop
  endfacet
  facet normal 0.0000000e+000 1.0000000e+000 4.8869970e-008
    outer loop
      vertex   -1.219513e+000 -1.729923e+000 -2.505463e+000
      vertex   -1.219513e+000 -1.729923e+000 2.3731690e+000
      vertex   1.2930480e+001 -1.729923e+000 2.3731690e+000
    endloop
  endfacet
  facet normal 0.0000000e+000 1.0000000e+000 4.8869970e-008
    outer loop
      vertex   -1.219513e+000 -1.729923e+000 -2.505463e+000
      vertex   1.2930480e+001 -1.729923e+000 2.3731690e+000
      vertex   1.2930480e+001 -1.729923e+000 -2.505463e+000
    endloop
  endfacet
  facet normal 0.0000000e+000 -2.384186e-007 1.0000000e+000
    outer loop
      vertex   1.2930480e+001 3.2700770e+000 -2.505462e+000
      vertex   1.2450240e+001 3.2700770e+000 -2.505462e+000
      vertex   1.2930480e+001 -1.729923e+000 -2.505463e+000
    endloop
  endfacet
  facet normal 0.0000000e+000 -1.000000e+000 0.0000000e+000
    outer loop
      vertex   1.2930480e+001 3.2700770e+000 -2.505462e+000
      vertex   1.2930480e+001 3.2700770e+000 2.3731690e+000
      vertex   1.2450410e+001 3.2700770e+000 -5.364989e-001
    endloop
  endfacet
  facet normal 0.0000000e+000 1.0000000e+000 0.0000000e+000
    outer loop
      vertex   1.1673230e+002 1.1674410e+002 -1.984487e+000
      vertex   -1.169577e+002 1.1674410e+002 -1.984487e+000
      vertex   -1.169577e+002 1.1674410e+002 1.7984870e+000
    endloop
  endfacet
  facet normal 0.0000000e+000 1.0000000e+000 0.0000000e+000
    outer loop
      vertex   1.1673230e+002 1.1674410e+002 -1.984487e+000
      vertex   -1.169577e+002 1.1674410e+002 1.7984870e+000
      vertex   1.1673230e+002 1.1674410e+002 1.7984870e+000
    endloop
  endfacet
  facet normal -1.000000e+000 0.0000000e+000 0.0000000e+000
    outer loop
      vertex   -1.169577e+002 1.1674410e+002 -1.984487e+000
      vertex   -1.169577e+002 -1.169459e+002 -1.984507e+000
      vertex   -1.169577e+002 -1.169459e+002 1.7984670e+000
    endloop
  endfacet
  facet normal -1.000000e+000 0.0000000e+000 0.0000000e+000
    outer loop
      vertex   -1.169577e+002 1.1674410e+002 -1.984487e+000
      vertex   -1.169577e+002 -1.169459e+002 1.7984670e+000
      vertex   -1.169577e+002 1.1674410e+002 1.7984870e+000
    endloop
  endfacet
  facet normal 1.0000000e+000 0.0000000e+000 0.0000000e+000
    outer loop
      vertex   1.1673230e+002 -1.169459e+002 -1.984507e+000
      vertex   1.1673230e+002 1.1674410e+002 -1.984487e+000
      vertex   1.1673230e+002 1.1674410e+002 1.7984870e+000
    endloop
  endfacet
  facet normal 1.0000000e+000 0.0000000e+000 0.0000000e+000
    outer loop
      vertex   1.1673230e+002 -1.169459e+002 -1.984507e+000
      vertex   1.1673230e+002 1.1674410e+002 1.7984870e+000
      vertex   1.1673230e+002 -1.169459e+002 1.7984670e+000
    endloop
  endfacet
  facet normal 0.0000000e+000 -1.000000e+000 0.0000000e+000
    outer loop
      vertex   -1.169577e+002 -1.169459e+002 -1.984507e+000
      vertex   1.1673230e+002 -1.169459e+002 -1.984507e+000
      vertex   1.1673230e+002 -1.169459e+002 1.7984670e+000
    endloop
  endfacet
  facet normal 0.0000000e+000 -1.000000e+000 0.0000000e+000
    outer loop
      vertex   -1.169577e+002 -1.169459e+002 -1.984507e+000
      vertex   1.1673230e+002 -1.169459e+002 1.7984670e+000
      vertex   -1.169577e+002 -1.169459e+002 1.7984670e+000
    endloop
  endfacet
  facet normal 0.0000000e+000 -8.008448e-001 5.9887210e-001
    outer loop
      vertex   -1.021127e+002 -1.021009e+002 1.1514660e+000
      vertex   1.0188730e+002 -1.021009e+002 1.1514660e+000
      vertex   -1.126710e-001 -1.009370e-001 1.3755150e+002
    endloop
  endfacet
  facet normal -8.008447e-001 -4.969382e-008 5.9887220e-001
    outer loop
      vertex   -1.021127e+002 -1.021009e+002 1.1514660e+000
      vertex   -1.126710e-001 -1.009370e-001 1.3755150e+002
      vertex   -1.021127e+002 1.0189910e+002 1.1514820e+000
    endloop
  endfacet
  facet normal 8.0084470e-001 -4.969382e-008 5.9887220e-001
    outer loop
      vertex   1.0188730e+002 -1.021009e+002 1.1514660e+000
      vertex   1.0188730e+002 1.0189910e+002 1.1514820e+000
      vertex   -1.126710e-001 -1.009370e-001 1.3755150e+002
    endloop
  endfacet
  facet normal 0.0000000e+000 -3.980446e-001 9.1736610e-001
    outer loop
      vertex   1.1353260e+001 8.3016330e+001 -1.110239e+001
      vertex   1.2450240e+001 8.3016330e+001 -1.110239e+001
      vertex   1.2450240e+001 1.1153350e+002 1.2712040e+000
    endloop
  endfacet
  facet normal 0.0000000e+000 -3.980446e-001 9.1736610e-001
    outer loop
      vertex   1.1353260e+001 8.3016330e+001 -1.110239e+001
      vertex   1.2450240e+001 1.1153350e+002 1.2712040e+000
      vertex   1.1353260e+001 1.1153350e+002 1.2712040e+000
    endloop
  endfacet
  facet normal 0.0000000e+000 3.8548940e-001 -9.227122e-001
    outer loop
      vertex   1.1353260e+001 1.0954620e+002 1.2712040e+000
      vertex   1.2450240e+001 1.0954620e+002 1.2712040e+000
      vertex   1.2450240e+001 8.3016330e+001 -9.812416e+000
    endloop
  endfacet
  facet normal 0.0000000e+000 3.8548940e-001 -9.227122e-001
    outer loop
      vertex   1.1353260e+001 1.0954620e+002 1.2712040e+000
      vertex   1.2450240e+001 8.3016330e+001 -9.812416e+000
      vertex   1.1353260e+001 8.3016330e+001 -9.812416e+000
    endloop
  endfacet
  facet normal -1.000000e+000 0.0000000e+000 0.0000000e+000
    outer loop
      vertex   1.2450240e+001 1.0954620e+002 1.2712040e+000
      vertex   1.2450240e+001 1.1153350e+002 1.2712040e+000
      vertex   1.2450240e+001 8.3016330e+001 -1.110239e+001
    endloop
  endfacet
  facet normal -1.000000e+000 0.0000000e+000 0.0000000e+000
    outer loop
      vertex   1.2450240e+001 1.0954620e+002 1.2712040e+000
      vertex   1.2450240e+001 8.3016330e+001 -1.110239e+001
      vertex   1.2450240e+001 8.3016330e+001 -9.812416e+000
    endloop
  endfacet
  facet normal 9.9999990e-001 0.0000000e+000 0.0000000e+000
    outer loop
      vertex   1.1353260e+001 8.3016330e+001 -9.812416e+000
      vertex   1.1353260e+001 8.3016330e+001 -1.110239e+001
      vertex   1.1353260e+001 1.1153350e+002 1.2712040e+000
    endloop
  endfacet
  facet normal 1.0000000e+000 0.0000000e+000 0.0000000e+000
    outer loop
      vertex   1.1353260e+001 8.3016330e+001 -9.812416e+000
      vertex   1.1353260e+001 1.1153350e+002 1.2712040e+000
      vertex   1.1353260e+001 1.0954620e+002 1.2712040e+000
    endloop
  endfacet
  facet normal 0.0000000e+000 1.0000000e+000 0.0000000e+000
    outer loop
      vertex   1.2430450e+001 7.1799430e+001 -8.811899e+000
      vertex   1.3764970e+001 7.1799430e+001 -8.811899e+000
      vertex   1.3764970e+001 7.1799430e+001 -1.110240e+001
    endloop
  endfacet
  facet normal 0.0000000e+000 1.0000000e+000 0.0000000e+000
    outer loop
      vertex   1.2430450e+001 7.1799430e+001 -8.811899e+000
      vertex   1.3764970e+001 7.1799430e+001 -1.110240e+001
      vertex   1.2450240e+001 7.1799430e+001 -1.110240e+001
    endloop
  endfacet
  facet normal 0.0000000e+000 -1.000000e+000 0.0000000e+000
    outer loop
      vertex   1.2450240e+001 8.3016330e+001 -9.812416e+000
      vertex   1.2450240e+001 8.3016330e+001 -8.811897e+000
      vertex   1.1353260e+001 8.3016330e+001 -8.811897e+000
    endloop
  endfacet
  facet normal 0.0000000e+000 -1.000000e+000 0.0000000e+000
    outer loop
      vertex   1.2450240e+001 8.3016330e+001 -9.812416e+000
      vertex   1.1353260e+001 8.3016330e+001 -8.811897e+000
      vertex   1.1353260e+001 8.3016330e+001 -9.812416e+000
    endloop
  endfacet
  facet normal 1.0000000e+000 0.0000000e+000 0.0000000e+000
    outer loop
      vertex   1.1362840e+001 9.2579410e+001 1.3608700e+001
      vertex   1.1362840e+001 9.1811980e+001 1.4645600e+001
      vertex   1.1362840e+001 6.3843860e+001 -1.278772e+000
    endloop
  endfacet
  facet normal 1.0000000e+000 0.0000000e+000 0.0000000e+000
    outer loop
      vertex   1.1362840e+001 9.2579410e+001 1.3608700e+001
      vertex   1.1362840e+001 6.3843860e+001 -1.278772e+000
      vertex   1.1362840e+001 6.3843860e+001 -2.554148e+000
    endloop
  endfacet
  facet normal 0.0000000e+000 -4.902404e-001 8.7158730e-001
    outer loop
      vertex   1.2450410e+001 9.2579410e+001 1.3608700e+001
      vertex   1.1362840e+001 9.2579410e+001 1.3608700e+001
      vertex   1.1362840e+001 6.3843860e+001 -2.554148e+000
    endloop
  endfacet
  facet normal 0.0000000e+000 -4.902404e-001 8.7158730e-001
    outer loop
      vertex   1.2450410e+001 9.2579410e+001 1.3608700e+001
      vertex   1.1362840e+001 6.3843860e+001 -2.554148e+000
      vertex   1.2450410e+001 6.3843860e+001 -2.554148e+000
    endloop
  endfacet
  facet normal -9.999999e-001 0.0000000e+000 0.0000000e+000
    outer loop
      vertex   1.2450410e+001 9.1811980e+001 1.4645600e+001
      vertex   1.2450410e+001 9.2579410e+001 1.3608700e+001
      vertex   1.2450410e+001 6.3843860e+001 -2.554148e+000
    endloop
  endfacet
  facet normal -1.000000e+000 0.0000000e+000 0.0000000e+000
    outer loop
      vertex   1.2450410e+001 9.1811980e+001 1.4645600e+001
      vertex   1.2450410e+001 6.3843860e+001 -2.554148e+000
      vertex   1.2450410e+001 6.3843860e+001 -1.278772e+000
    endloop
  endfacet
  facet normal 0.0000000e+000 4.9479350e-001 -8.690106e-001
    outer loop
      vertex   1.1362840e+001 9.1811980e+001 1.4645600e+001
      vertex   1.2450410e+001 9.1811980e+001 1.4645600e+001
      vertex   1.2450410e+001 6.3843860e+001 -1.278772e+000
    endloop
  endfacet
  facet normal 0.0000000e+000 4.9479350e-001 -8.690106e-001
    outer loop
      vertex   1.1362840e+001 9.1811980e+001 1.4645600e+001
      vertex   1.2450410e+001 6.3843860e+001 -1.278772e+000
      vertex   1.1362840e+001 6.3843860e+001 -1.278772e+000
    endloop
  endfacet
  facet normal 0.0000000e+000 -3.160460e-007 1.0000000e+000
    outer loop
      vertex   1.2450240e+001 7.7834470e+001 -1.110239e+001
      vertex   1.2450240e+001 7.1799430e+001 -1.110240e+001
      vertex   1.3764970e+001 7.1799430e+001 -1.110240e+001
    endloop
  endfacet
  facet normal 0.0000000e+000 -3.160460e-007 1.0000000e+000
    outer loop
      vertex   1.2450240e+001 7.7834470e+001 -1.110239e+001
      vertex   1.3764970e+001 7.1799430e+001 -1.110240e+001
      vertex   1.3764970e+001 7.7834470e+001 -1.110239e+001
    endloop
  endfacet
  facet normal 0.0000000e+000 -5.358675e-008 1.0000000e+000
    outer loop
      vertex   1.2450410e+001 6.3843860e+001 -2.554148e+000
      vertex   1.1362840e+001 6.3843860e+001 -2.554148e+000
      vertex   1.1362840e+001 5.4945440e+001 -2.554149e+000
    endloop
  endfacet
  facet normal 0.0000000e+000 -5.358675e-008 1.0000000e+000
    outer loop
      vertex   1.2450410e+001 6.3843860e+001 -2.554148e+000
      vertex   1.1362840e+001 5.4945440e+001 -2.554149e+000
      vertex   1.2450410e+001 5.4945440e+001 -2.554149e+000
    endloop
  endfacet
  facet normal 0.0000000e+000 0.0000000e+000 -1.000000e+000
    outer loop
      vertex   1.1362840e+001 6.3843860e+001 -1.278772e+000
      vertex   1.2450410e+001 6.3843860e+001 -1.278772e+000
      vertex   1.2450410e+001 6.2739580e+001 -1.278772e+000
    endloop
  endfacet
  facet normal 0.0000000e+000 0.0000000e+000 -1.000000e+000
    outer loop
      vertex   1.1362840e+001 6.3843860e+001 -1.278772e+000
      vertex   1.2450410e+001 6.2739580e+001 -1.278772e+000
      vertex   1.1362840e+001 6.2739580e+001 -1.278772e+000
    endloop
  endfacet
  facet normal 0.0000000e+000 9.5215890e-008 -1.000000e+000
    outer loop
      vertex   1.1362840e+001 6.2739580e+001 -5.364932e-001
      vertex   1.2450410e+001 6.2739580e+001 -5.364932e-001
      vertex   1.2450410e+001 3.2700770e+000 -5.364989e-001
    endloop
  endfacet
  facet normal 0.0000000e+000 9.5215890e-008 -1.000000e+000
    outer loop
      vertex   1.1362840e+001 6.2739580e+001 -5.364932e-001
      vertex   1.2450410e+001 3.2700770e+000 -5.364989e-001
      vertex   1.1362840e+001 3.2700770e+000 -5.364989e-001
    endloop
  endfacet
  facet normal 0.0000000e+000 -3.335865e-001 -9.427195e-001
    outer loop
      vertex   1.1353260e+001 6.7133180e+001 -9.172678e+000
      vertex   1.2450240e+001 6.7133180e+001 -9.172678e+000
      vertex   1.2450410e+001 5.4945440e+001 -4.859981e+000
    endloop
  endfacet
  facet normal 0.0000000e+000 -3.335865e-001 -9.427195e-001
    outer loop
      vertex   1.1353260e+001 6.7133180e+001 -9.172678e+000
      vertex   1.2450410e+001 5.4945440e+001 -4.859981e+000
      vertex   1.1362840e+001 5.4945440e+001 -4.859981e+000
    endloop
  endfacet
  facet normal 0.0000000e+000 -1.000000e+000 0.0000000e+000
    outer loop
      vertex   1.1362840e+001 5.4945440e+001 -2.554149e+000
      vertex   1.1362840e+001 5.4945440e+001 -4.859981e+000
      vertex   1.2450410e+001 5.4945440e+001 -4.859981e+000
    endloop
  endfacet
  facet normal 0.0000000e+000 -1.000000e+000 0.0000000e+000
    outer loop
      vertex   1.1362840e+001 5.4945440e+001 -2.554149e+000
      vertex   1.2450410e+001 5.4945440e+001 -4.859981e+000
      vertex   1.2450410e+001 5.4945440e+001 -2.554149e+000
    endloop
  endfacet
  facet normal 0.0000000e+000 1.0000000e+000 0.0000000e+000
    outer loop
      vertex   1.2450240e+001 6.7133180e+001 -8.811899e+000
      vertex   1.2450240e+001 6.7133180e+001 -9.172678e+000
      vertex   1.1353260e+001 6.7133180e+001 -9.172678e+000
    endloop
  endfacet
  facet normal 0.0000000e+000 1.0000000e+000 0.0000000e+000
    outer loop
      vertex   1.2450240e+001 6.7133180e+001 -8.811899e+000
      vertex   1.1353260e+001 6.7133180e+001 -9.172678e+000
      vertex   1.1353260e+001 6.7133180e+001 -8.811899e+000
    endloop
  endfacet
  facet normal 0.0000000e+000 -1.000000e+000 0.0000000e+000
    outer loop
      vertex   1.1362840e+001 6.2739580e+001 -1.278772e+000
      vertex   1.2450410e+001 6.2739580e+001 -1.278772e+000
      vertex   1.2450410e+001 6.2739580e+001 -5.364932e-001
    endloop
  endfacet
  facet normal 0.0000000e+000 -1.000000e+000 0.0000000e+000
    outer loop
      vertex   1.1362840e+001 6.2739580e+001 -1.278772e+000
      vertex   1.2450410e+001 6.2739580e+001 -5.364932e-001
      vertex   1.1362840e+001 6.2739580e+001 -5.364932e-001
    endloop
  endfacet
  facet normal 0.0000000e+000 3.2153640e-001 9.4689720e-001
    outer loop
      vertex   1.1353260e+001 6.7133180e+001 -1.110240e+001
      vertex   1.1353260e+001 4.1815930e+001 -2.505459e+000
      vertex   1.2450240e+001 4.1815930e+001 -2.505459e+000
    endloop
  endfacet
  facet normal 0.0000000e+000 3.2153640e-001 9.4689720e-001
    outer loop
      vertex   1.1353260e+001 6.7133180e+001 -1.110240e+001
      vertex   1.2450240e+001 4.1815930e+001 -2.505459e+000
      vertex   1.2450240e+001 6.7133180e+001 -1.110240e+001
    endloop
  endfacet
  facet normal 0.0000000e+000 -6.803855e-008 1.0000000e+000
    outer loop
      vertex   1.1353260e+001 4.1815930e+001 -2.505459e+000
      vertex   1.1353260e+001 3.2700770e+000 -2.505462e+000
      vertex   1.2450240e+001 3.2700770e+000 -2.505462e+000
    endloop
  endfacet
  facet normal 0.0000000e+000 -6.803855e-008 1.0000000e+000
    outer loop
      vertex   1.1353260e+001 4.1815930e+001 -2.505459e+000
      vertex   1.2450240e+001 3.2700770e+000 -2.505462e+000
      vertex   1.2450240e+001 4.1815930e+001 -2.505459e+000
    endloop
  endfacet
  facet normal -1.000000e+000 0.0000000e+000 0.0000000e+000
    outer loop
      vertex   1.3764970e+001 7.7834470e+001 -1.110239e+001
      vertex   1.3764970e+001 7.1799430e+001 -1.110240e+001
      vertex   1.3764970e+001 7.1799430e+001 -8.811899e+000
    endloop
  endfacet
  facet normal -1.000000e+000 0.0000000e+000 0.0000000e+000
    outer loop
      vertex   1.3764970e+001 7.7834470e+001 -1.110239e+001
      vertex   1.3764970e+001 7.1799430e+001 -8.811899e+000
      vertex   1.3764970e+001 7.7834470e+001 -8.811897e+000
    endloop
  endfacet
  facet normal 0.0000000e+000 3.1604600e-007 -1.000000e+000
    outer loop
      vertex   1.3764970e+001 7.7834470e+001 -8.811897e+000
      vertex   1.3764970e+001 7.1799430e+001 -8.811899e+000
      vertex   1.2430450e+001 7.1799430e+001 -8.811899e+000
    endloop
  endfacet
  facet normal 0.0000000e+000 3.1604600e-007 -1.000000e+000
    outer loop
      vertex   1.3764970e+001 7.7834470e+001 -8.811897e+000
      vertex   1.2430450e+001 7.1799430e+001 -8.811899e+000
      vertex   1.2430450e+001 7.7834470e+001 -8.811897e+000
    endloop
  endfacet
  facet normal 0.0000000e+000 -1.000000e+000 0.0000000e+000
    outer loop
      vertex   1.2450240e+001 7.7834470e+001 -1.110239e+001
      vertex   1.3764970e+001 7.7834470e+001 -1.110239e+001
      vertex   1.3764970e+001 7.7834470e+001 -8.811897e+000
    endloop
  endfacet
  facet normal 0.0000000e+000 -1.000000e+000 0.0000000e+000
    outer loop
      vertex   1.2450240e+001 7.7834470e+001 -1.110239e+001
      vertex   1.3764970e+001 7.7834470e+001 -8.811897e+000
      vertex   1.2430450e+001 7.7834470e+001 -8.811897e+000
    endloop
  endfacet
  facet normal 1.5203450e-006 3.1604610e-007 -1.000000e+000
    outer loop
      vertex   1.1353260e+001 8.3016330e+001 -8.811897e+000
      vertex   1.2430450e+001 7.7834470e+001 -8.811897e+000
      vertex   1.2430450e+001 7.1799430e+001 -8.811899e+000
    endloop
  endfacet
  facet normal -5.201968e-007 1.2008630e-007 -1.000000e+000
    outer loop
      vertex   1.1353260e+001 8.3016330e+001 -8.811897e+000
      vertex   1.2430450e+001 7.1799430e+001 -8.811899e+000
      vertex   1.1353260e+001 6.7133180e+001 -8.811899e+000
    endloop
  endfacet
  facet normal 9.9994860e-001 1.1173250e-003 1.0083920e-002
    outer loop
      vertex   1.1353260e+001 8.3016330e+001 -9.812416e+000
      vertex   1.1352260e+001 7.7834470e+001 -9.139900e+000
      vertex   1.1372060e+001 7.7834470e+001 -1.110239e+001
    endloop
  endfacet
  facet normal 9.9999340e-001 3.6277890e-003 0.0000000e+000
    outer loop
      vertex   1.1353260e+001 8.3016330e+001 -9.812416e+000
      vertex   1.1372060e+001 7.7834470e+001 -1.110239e+001
      vertex   1.1353260e+001 8.3016330e+001 -1.110239e+001
    endloop
  endfacet
  facet normal 0.0000000e+000 0.0000000e+000 -1.000000e+000
    outer loop
      vertex   1.1353260e+001 8.3016330e+001 -8.811897e+000
      vertex   1.2450240e+001 8.3016330e+001 -8.811897e+000
      vertex   1.2430450e+001 7.7834470e+001 -8.811897e+000
    endloop
  endfacet
  facet normal 0.0000000e+000 0.0000000e+000 -1.000000e+000
    outer loop
      vertex   1.2450240e+001 6.7133180e+001 -8.811899e+000
      vertex   1.1353260e+001 6.7133180e+001 -8.811899e+000
      vertex   1.2430450e+001 7.1799430e+001 -8.811899e+000
    endloop
  endfacet
  facet normal 9.9999540e-001 0.0000000e+000 -3.023804e-003
    outer loop
      vertex   1.1352260e+001 7.6767920e+001 -9.139900e+000
      vertex   1.1352260e+001 7.7834470e+001 -9.139900e+000
      vertex   1.1353260e+001 8.3016330e+001 -8.811897e+000
    endloop
  endfacet
  facet normal 9.9999540e-001 3.6311840e-010 -3.023812e-003
    outer loop
      vertex   1.1352260e+001 7.6767920e+001 -9.139900e+000
      vertex   1.1353260e+001 8.3016330e+001 -8.811897e+000
      vertex   1.1353260e+001 6.7133180e+001 -8.811899e+000
    endloop
  endfacet
  facet normal 9.9999990e-001 -1.914025e-004 0.0000000e+000
    outer loop
      vertex   1.1353260e+001 8.3016330e+001 -8.811897e+000
      vertex   1.1352260e+001 7.7834470e+001 -9.139900e+000
      vertex   1.1353260e+001 8.3016330e+001 -9.812416e+000
    endloop
  endfacet
  facet normal 1.0000000e+000 1.0294220e-004 0.0000000e+000
    outer loop
      vertex   1.1353260e+001 6.7133180e+001 -8.811899e+000
      vertex   1.1353260e+001 6.7133180e+001 -9.172678e+000
      vertex   1.1352260e+001 7.6767920e+001 -9.139900e+000
    endloop
  endfacet
  facet normal 1.0000000e+000 1.0294220e-004 0.0000000e+000
    outer loop
      vertex   1.1352260e+001 7.6767920e+001 -9.139900e+000
      vertex   1.1353260e+001 6.7133180e+001 -9.172678e+000
      vertex   1.1353260e+001 6.7133180e+001 -1.110240e+001
    endloop
  endfacet
  facet normal 9.9994720e-001 -1.951049e-003 1.0083910e-002
    outer loop
      vertex   1.1352260e+001 7.6767920e+001 -9.139900e+000
      vertex   1.1353260e+001 6.7133180e+001 -1.110240e+001
      vertex   1.1372060e+001 7.6767920e+001 -1.110239e+001
    endloop
  endfacet
  facet normal -1.000000e+000 0.0000000e+000 0.0000000e+000
    outer loop
      vertex   1.2450240e+001 7.1799430e+001 -1.110240e+001
      vertex   1.2450240e+001 6.7133180e+001 -1.110240e+001
      vertex   1.2450240e+001 6.7133180e+001 -9.172678e+000
    endloop
  endfacet
  facet normal -9.999563e-001 -3.573033e-003 -8.639952e-003
    outer loop
      vertex   1.2450240e+001 7.1799430e+001 -1.110240e+001
      vertex   1.2450240e+001 6.7133180e+001 -9.172678e+000
      vertex   1.2430450e+001 7.1799430e+001 -8.811899e+000
    endloop
  endfacet
  facet normal -9.999910e-001 -4.241192e-003 0.0000000e+000
    outer loop
      vertex   1.2450240e+001 6.7133180e+001 -9.172678e+000
      vertex   1.2450240e+001 6.7133180e+001 -8.811899e+000
      vertex   1.2430450e+001 7.1799430e+001 -8.811899e+000
    endloop
  endfacet
  facet normal -9.999604e-001 2.1508480e-003 -8.639988e-003
    outer loop
      vertex   1.2450240e+001 7.7834470e+001 -1.110239e+001
      vertex   1.2430450e+001 7.7834470e+001 -8.811897e+000
      vertex   1.2450240e+001 8.3016330e+001 -9.812416e+000
    endloop
  endfacet
  facet normal -9.999999e-001 0.0000000e+000 0.0000000e+000
    outer loop
      vertex   1.2450240e+001 7.7834470e+001 -1.110239e+001
      vertex   1.2450240e+001 8.3016330e+001 -9.812416e+000
      vertex   1.2450240e+001 8.3016330e+001 -1.110239e+001
    endloop
  endfacet
  facet normal -9.999926e-001 3.8191880e-003 0.0000000e+000
    outer loop
      vertex   1.2450240e+001 8.3016330e+001 -9.812416e+000
      vertex   1.2430450e+001 7.7834470e+001 -8.811897e+000
      vertex   1.2450240e+001 8.3016330e+001 -8.811897e+000
    endloop
  endfacet
  facet normal 0.0000000e+000 0.0000000e+000 1.0000000e+000
    outer loop
      vertex   1.2450240e+001 7.7834470e+001 -1.110239e+001
      vertex   1.2450240e+001 8.3016330e+001 -1.110239e+001
      vertex   1.1353260e+001 8.3016330e+001 -1.110239e+001
    endloop
  endfacet
  facet normal 0.0000000e+000 0.0000000e+000 9.9999990e-001
    outer loop
      vertex   1.2450240e+001 7.7834470e+001 -1.110239e+001
      vertex   1.1353260e+001 8.3016330e+001 -1.110239e+001
      vertex   1.1372060e+001 7.7834470e+001 -1.110239e+001
    endloop
  endfacet
  facet normal 0.0000000e+000 0.0000000e+000 1.0000000e+000
    outer loop
      vertex   1.2450240e+001 7.7834470e+001 -1.110239e+001
      vertex   1.1372060e+001 7.7834470e+001 -1.110239e+001
      vertex   1.1372060e+001 7.6767920e+001 -1.110239e+001
    endloop
  endfacet
  facet normal 3.1263330e-007 -3.160460e-007 9.9999990e-001
    outer loop
      vertex   1.2450240e+001 7.7834470e+001 -1.110239e+001
      vertex   1.1372060e+001 7.6767920e+001 -1.110239e+001
      vertex   1.2450240e+001 7.1799430e+001 -1.110240e+001
    endloop
  endfacet
  facet normal 0.0000000e+000 0.0000000e+000 1.0000000e+000
    outer loop
      vertex   1.1353260e+001 6.7133180e+001 -1.110240e+001
      vertex   1.2450240e+001 6.7133180e+001 -1.110240e+001
      vertex   1.2450240e+001 7.1799430e+001 -1.110240e+001
    endloop
  endfacet
  facet normal 8.4913560e-007 -1.996225e-007 1.0000000e+000
    outer loop
      vertex   1.1353260e+001 6.7133180e+001 -1.110240e+001
      vertex   1.2450240e+001 7.1799430e+001 -1.110240e+001
      vertex   1.1372060e+001 7.6767920e+001 -1.110239e+001
    endloop
  endfacet
  facet normal 9.9999970e-001 7.8624250e-004 0.0000000e+000
    outer loop
      vertex   1.1353260e+001 6.7133180e+001 -9.172678e+000
      vertex   1.1362840e+001 5.4945440e+001 -4.859981e+000
      vertex   1.1353260e+001 6.7133180e+001 -1.110240e+001
    endloop
  endfacet
  facet normal 9.9998840e-001 -1.546637e-003 -4.554713e-003
    outer loop
      vertex   1.1353260e+001 6.7133180e+001 -1.110240e+001
      vertex   1.1362840e+001 5.4945440e+001 -4.859981e+000
      vertex   1.1353260e+001 4.1815930e+001 -2.505459e+000
    endloop
  endfacet
  facet normal 9.9999970e-001 -7.298458e-004 0.0000000e+000
    outer loop
      vertex   1.1362840e+001 5.4945440e+001 -4.859981e+000
      vertex   1.1362840e+001 5.4945440e+001 -2.554149e+000
      vertex   1.1353260e+001 4.1815930e+001 -2.505459e+000
    endloop
  endfacet
  facet normal -9.999999e-001 1.2783930e-005 0.0000000e+000
    outer loop
      vertex   1.2450240e+001 4.1815930e+001 -2.505459e+000
      vertex   1.2450410e+001 5.4945440e+001 -2.554149e+000
      vertex   1.2450410e+001 5.4945440e+001 -4.859981e+000
    endloop
  endfacet
  facet normal -1.000000e+000 2.7091080e-005 7.9780900e-005
    outer loop
      vertex   1.2450240e+001 4.1815930e+001 -2.505459e+000
      vertex   1.2450410e+001 5.4945440e+001 -4.859981e+000
      vertex   1.2450240e+001 6.7133180e+001 -1.110240e+001
    endloop
  endfacet
  facet normal -1.000000e+000 -1.377177e-005 0.0000000e+000
    outer loop
      vertex   1.2450410e+001 5.4945440e+001 -4.859981e+000
      vertex   1.2450240e+001 6.7133180e+001 -9.172678e+000
      vertex   1.2450240e+001 6.7133180e+001 -1.110240e+001
    endloop
  endfacet
  facet normal -3.733937e-001 0.0000000e+000 9.2767300e-001
    outer loop
      vertex   1.1372060e+001 7.6767920e+001 -1.110239e+001
      vertex   1.1372060e+001 7.7834470e+001 -1.110239e+001
      vertex   7.5903930e+000 7.7834470e+001 -1.262453e+001
    endloop
  endfacet
  facet normal -3.733937e-001 0.0000000e+000 9.2767300e-001
    outer loop
      vertex   1.1372060e+001 7.6767920e+001 -1.110239e+001
      vertex   7.5903930e+000 7.7834470e+001 -1.262453e+001
      vertex   7.5903930e+000 7.6767920e+001 -1.262453e+001
    endloop
  endfacet
  facet normal 0.0000000e+000 -1.000000e+000 0.0000000e+000
    outer loop
      vertex   1.1352260e+001 7.7834470e+001 -9.139900e+000
      vertex   7.5706020e+000 7.7834470e+001 -1.066203e+001
      vertex   7.5903930e+000 7.7834470e+001 -1.262453e+001
    endloop
  endfacet
  facet normal 0.0000000e+000 -1.000000e+000 0.0000000e+000
    outer loop
      vertex   1.1352260e+001 7.7834470e+001 -9.139900e+000
      vertex   7.5903930e+000 7.7834470e+001 -1.262453e+001
      vertex   1.1372060e+001 7.7834470e+001 -1.110239e+001
    endloop
  endfacet
  facet normal 3.7339030e-001 0.0000000e+000 -9.276743e-001
    outer loop
      vertex   1.1352260e+001 7.7834470e+001 -9.139900e+000
      vertex   1.1352260e+001 7.6767920e+001 -9.139900e+000
      vertex   7.5706020e+000 7.6767920e+001 -1.066203e+001
    endloop
  endfacet
  facet normal 3.7339030e-001 0.0000000e+000 -9.276743e-001
    outer loop
      vertex   1.1352260e+001 7.7834470e+001 -9.139900e+000
      vertex   7.5706020e+000 7.6767920e+001 -1.066203e+001
      vertex   7.5706020e+000 7.7834470e+001 -1.066203e+001
    endloop
  endfacet
  facet normal 0.0000000e+000 1.0000000e+000 0.0000000e+000
    outer loop
      vertex   1.1372060e+001 7.6767920e+001 -1.110239e+001
      vertex   7.5903930e+000 7.6767920e+001 -1.262453e+001
      vertex   7.5706020e+000 7.6767920e+001 -1.066203e+001
    endloop
  endfacet
  facet normal 0.0000000e+000 1.0000000e+000 0.0000000e+000
    outer loop
      vertex   1.1372060e+001 7.6767920e+001 -1.110239e+001
      vertex   7.5706020e+000 7.6767920e+001 -1.066203e+001
      vertex   1.1352260e+001 7.6767920e+001 -9.139900e+000
    endloop
  endfacet
  facet normal 0.0000000e+000 0.0000000e+000 1.0000000e+000
    outer loop
      vertex   7.5903930e+000 7.6767920e+001 -1.262453e+001
      vertex   7.5903930e+000 7.7834470e+001 -1.262453e+001
      vertex   -2.819611e+000 7.8856500e+001 -1.262453e+001
    endloop
  endfacet
  facet normal -1.217745e-007 -6.069552e-007 1.0000000e+000
    outer loop
      vertex   7.5903930e+000 7.6767920e+001 -1.262453e+001
      vertex   -2.819611e+000 7.8856500e+001 -1.262453e+001
      vertex   -2.819611e+000 7.5714010e+001 -1.262454e+001
    endloop
  endfacet
  facet normal 1.0000000e+000 0.0000000e+000 0.0000000e+000
    outer loop
      vertex   -2.819611e+000 7.8856500e+001 -1.262453e+001
      vertex   -2.819611e+000 7.8856500e+001 -1.067345e+001
      vertex   -2.819611e+000 7.5714010e+001 -1.067346e+001
    endloop
  endfacet
  facet normal 1.0000000e+000 0.0000000e+000 0.0000000e+000
    outer loop
      vertex   -2.819611e+000 7.8856500e+001 -1.262453e+001
      vertex   -2.819611e+000 7.5714010e+001 -1.067346e+001
      vertex   -2.819611e+000 7.5714010e+001 -1.262454e+001
    endloop
  endfacet
  facet normal 1.0000000e+000 0.0000000e+000 0.0000000e+000
    outer loop
      vertex   -2.819611e+000 7.7285260e+001 -1.001453e+001
      vertex   -2.819611e+000 7.5714010e+001 -1.067346e+001
      vertex   -2.819611e+000 7.8856500e+001 -1.067345e+001
    endloop
  endfacet
  facet normal 0.0000000e+000 -1.809784e-006 1.0000000e+000
    outer loop
      vertex   7.5903930e+000 7.5714010e+001 -1.262454e+001
      vertex   7.5903930e+000 7.6767920e+001 -1.262453e+001
      vertex   -2.819611e+000 7.5714010e+001 -1.262454e+001
    endloop
  endfacet
  facet normal 0.0000000e+000 0.0000000e+000 9.9999990e-001
    outer loop
      vertex   7.5903930e+000 7.8856500e+001 -1.262453e+001
      vertex   -2.819611e+000 7.8856500e+001 -1.262453e+001
      vertex   7.5903930e+000 7.7834470e+001 -1.262453e+001
    endloop
  endfacet
  facet normal 0.0000000e+000 -1.000000e+000 0.0000000e+000
    outer loop
      vertex   -2.819611e+000 7.8856500e+001 -1.262453e+001
      vertex   7.5903930e+000 7.8856500e+001 -1.262453e+001
      vertex   7.5903930e+000 7.8856500e+001 -1.067345e+001
    endloop
  endfacet
  facet normal 0.0000000e+000 -1.000000e+000 0.0000000e+000
    outer loop
      vertex   -2.819611e+000 7.8856500e+001 -1.262453e+001
      vertex   7.5903930e+000 7.8856500e+001 -1.067345e+001
      vertex   -2.819611e+000 7.8856500e+001 -1.067345e+001
    endloop
  endfacet
  facet normal 0.0000000e+000 1.0000000e+000 0.0000000e+000
    outer loop
      vertex   -2.819611e+000 7.5714010e+001 -1.262454e+001
      vertex   -2.819611e+000 7.5714010e+001 -1.067346e+001
      vertex   7.5903930e+000 7.5714010e+001 -1.067346e+001
    endloop
  endfacet
  facet normal 0.0000000e+000 1.0000000e+000 0.0000000e+000
    outer loop
      vertex   -2.819611e+000 7.5714010e+001 -1.262454e+001
      vertex   7.5903930e+000 7.5714010e+001 -1.067346e+001
      vertex   7.5903930e+000 7.5714010e+001 -1.262454e+001
    endloop
  endfacet
  facet normal 0.0000000e+000 3.8673360e-001 -9.221916e-001
    outer loop
      vertex   7.5903930e+000 7.5714010e+001 -1.067346e+001
      vertex   -2.819611e+000 7.5714010e+001 -1.067346e+001
      vertex   -2.819611e+000 7.7285260e+001 -1.001453e+001
    endloop
  endfacet
  facet normal 0.0000000e+000 3.8673360e-001 -9.221916e-001
    outer loop
      vertex   7.5903930e+000 7.5714010e+001 -1.067346e+001
      vertex   -2.819611e+000 7.7285260e+001 -1.001453e+001
      vertex   7.5903930e+000 7.7285260e+001 -1.001453e+001
    endloop
  endfacet
  facet normal 0.0000000e+000 -3.867326e-001 -9.221920e-001
    outer loop
      vertex   7.5903930e+000 7.8856500e+001 -1.067345e+001
      vertex   7.5903930e+000 7.7285260e+001 -1.001453e+001
      vertex   -2.819611e+000 7.7285260e+001 -1.001453e+001
    endloop
  endfacet
  facet normal 0.0000000e+000 -3.867326e-001 -9.221920e-001
    outer loop
      vertex   7.5903930e+000 7.8856500e+001 -1.067345e+001
      vertex   -2.819611e+000 7.7285260e+001 -1.001453e+001
      vertex   -2.819611e+000 7.8856500e+001 -1.067345e+001
    endloop
  endfacet
  facet normal -9.995332e-001 0.0000000e+000 3.0551580e-002
    outer loop
      vertex   7.5903930e+000 7.7285260e+001 -1.001453e+001
      vertex   7.5706020e+000 7.7834470e+001 -1.066203e+001
      vertex   7.5706020e+000 7.6767920e+001 -1.066203e+001
    endloop
  endfacet
  facet normal -9.986794e-001 1.9868690e-002 4.7378320e-002
    outer loop
      vertex   7.5903930e+000 7.7285260e+001 -1.001453e+001
      vertex   7.5903930e+000 7.8856500e+001 -1.067345e+001
      vertex   7.5706020e+000 7.7834470e+001 -1.066203e+001
    endloop
  endfacet
  facet normal -9.987600e-001 -1.925344e-002 4.5911100e-002
    outer loop
      vertex   7.5903930e+000 7.7285260e+001 -1.001453e+001
      vertex   7.5706020e+000 7.6767920e+001 -1.066203e+001
      vertex   7.5903930e+000 7.5714010e+001 -1.067346e+001
    endloop
  endfacet
  facet normal -1.000000e+000 0.0000000e+000 0.0000000e+000
    outer loop
      vertex   7.5903930e+000 7.6767920e+001 -1.262453e+001
      vertex   7.5903930e+000 7.5714010e+001 -1.262454e+001
      vertex   7.5903930e+000 7.5714010e+001 -1.067346e+001
    endloop
  endfacet
  facet normal -9.997749e-001 -1.866519e-002 -1.008233e-002
    outer loop
      vertex   7.5903930e+000 7.6767920e+001 -1.262453e+001
      vertex   7.5903930e+000 7.5714010e+001 -1.067346e+001
      vertex   7.5706020e+000 7.6767920e+001 -1.066203e+001
    endloop
  endfacet
  facet normal -9.997640e-001 1.9247140e-002 -1.008222e-002
    outer loop
      vertex   7.5903930e+000 7.7834470e+001 -1.262453e+001
      vertex   7.5706020e+000 7.7834470e+001 -1.066203e+001
      vertex   7.5903930e+000 7.8856500e+001 -1.067345e+001
    endloop
  endfacet
  facet normal -1.000000e+000 0.0000000e+000 0.0000000e+000
    outer loop
      vertex   7.5903930e+000 7.7834470e+001 -1.262453e+001
      vertex   7.5903930e+000 7.8856500e+001 -1.067345e+001
      vertex   7.5903930e+000 7.8856500e+001 -1.262453e+001
    endloop
  endfacet
  facet normal -8.980774e-004 8.0379820e-001 5.9490140e-001
    outer loop
      vertex   1.0188730e+002 1.0189910e+002 1.1514820e+000
      vertex   1.2450410e+001 9.2579410e+001 1.3608700e+001
      vertex   1.2450410e+001 9.1811980e+001 1.4645600e+001
    endloop
  endfacet
  facet normal 3.8442620e-005 8.0083080e-001 5.9889060e-001
    outer loop
      vertex   -1.126710e-001 -1.009370e-001 1.3755150e+002
      vertex   1.0188730e+002 1.0189910e+002 1.1514820e+000
      vertex   1.2450410e+001 9.1811980e+001 1.4645600e+001
    endloop
  endfacet
  facet normal 0.0000000e+000 8.0083270e-001 5.9888820e-001
    outer loop
      vertex   1.2450410e+001 9.1811980e+001 1.4645600e+001
      vertex   1.1362840e+001 9.1811980e+001 1.4645600e+001
      vertex   -1.126710e-001 -1.009370e-001 1.3755150e+002
    endloop
  endfacet
  facet normal 7.0783570e-004 8.0379830e-001 5.9490150e-001
    outer loop
      vertex   1.1362840e+001 9.2579410e+001 1.3608700e+001
      vertex   -1.021127e+002 1.0189910e+002 1.1514820e+000
      vertex   1.1362840e+001 9.1811980e+001 1.4645600e+001
    endloop
  endfacet
  facet normal -2.950421e-005 8.0083400e-001 5.9888640e-001
    outer loop
      vertex   -1.126710e-001 -1.009370e-001 1.3755150e+002
      vertex   1.1362840e+001 9.1811980e+001 1.4645600e+001
      vertex   -1.021127e+002 1.0189910e+002 1.1514820e+000
    endloop
  endfacet
  facet normal 0.0000000e+000 8.0071640e-001 5.9904360e-001
    outer loop
      vertex   1.1362840e+001 9.2579410e+001 1.3608700e+001
      vertex   1.2450410e+001 9.2579410e+001 1.3608700e+001
      vertex   1.0188730e+002 1.0189910e+002 1.1514820e+000
    endloop
  endfacet
  facet normal 0.0000000e+000 8.0071630e-001 5.9904360e-001
    outer loop
      vertex   -1.021127e+002 1.0189910e+002 1.1514820e+000
      vertex   1.1362840e+001 9.2579410e+001 1.3608700e+001
      vertex   1.0188730e+002 1.0189910e+002 1.1514820e+000
    endloop
  endfacet
  facet normal -1.000000e+000 0.0000000e+000 0.0000000e+000
    outer loop
      vertex   1.2450410e+001 6.3843860e+001 -2.554148e+000
      vertex   1.2450410e+001 6.2739580e+001 -1.278772e+000
      vertex   1.2450410e+001 6.3843860e+001 -1.278772e+000
    endloop
  endfacet
  facet normal 1.0000000e+000 0.0000000e+000 0.0000000e+000
    outer loop
      vertex   1.1362840e+001 6.3843860e+001 -1.278772e+000
      vertex   1.1362840e+001 6.2739580e+001 -1.278772e+000
      vertex   1.1362840e+001 6.3843860e+001 -2.554148e+000
    endloop
  endfacet
  facet normal -1.000000e+000 0.0000000e+000 0.0000000e+000
    outer loop
      vertex   1.2450410e+001 6.3843860e+001 -2.554148e+000
      vertex   1.2450410e+001 5.4945440e+001 -2.554149e+000
      vertex   1.2450410e+001 6.2739580e+001 -1.278772e+000
    endloop
  endfacet
  facet normal 1.0000000e+000 0.0000000e+000 0.0000000e+000
    outer loop
      vertex   1.1362840e+001 5.4945440e+001 -2.554149e+000
      vertex   1.1362840e+001 6.3843860e+001 -2.554148e+000
      vertex   1.1362840e+001 6.2739580e+001 -1.278772e+000
    endloop
  endfacet
  facet normal 9.9999990e-001 0.0000000e+000 0.0000000e+000
    outer loop
      vertex   1.1362840e+001 6.2739580e+001 -1.278772e+000
      vertex   1.1362840e+001 6.2739580e+001 -5.364932e-001
      vertex   1.1362840e+001 5.4945440e+001 -2.554149e+000
    endloop
  endfacet
  facet normal -9.999999e-001 0.0000000e+000 0.0000000e+000
    outer loop
      vertex   1.2450410e+001 6.2739580e+001 -1.278772e+000
      vertex   1.2450410e+001 5.4945440e+001 -2.554149e+000
      vertex   1.2450410e+001 6.2739580e+001 -5.364932e-001
    endloop
  endfacet
  facet normal -1.000000e+000 1.2603380e-005 -4.868643e-005
    outer loop
      vertex   1.2450410e+001 5.4945440e+001 -2.554149e+000
      vertex   1.2450240e+001 4.1815930e+001 -2.505459e+000
      vertex   1.2450410e+001 6.2739580e+001 -5.364932e-001
    endloop
  endfacet
  facet normal 9.9999590e-001 -7.195353e-004 2.7795410e-003
    outer loop
      vertex   1.1362840e+001 5.4945440e+001 -2.554149e+000
      vertex   1.1362840e+001 6.2739580e+001 -5.364932e-001
      vertex   1.1353260e+001 4.1815930e+001 -2.505459e+000
    endloop
  endfacet
  facet normal 9.9998810e-001 4.6338960e-010 -4.866726e-003
    outer loop
      vertex   1.1362840e+001 6.2739580e+001 -5.364932e-001
      vertex   1.1362840e+001 3.2700770e+000 -5.364989e-001
      vertex   1.1353260e+001 4.1815930e+001 -2.505459e+000
    endloop
  endfacet
  facet normal 9.9998810e-001 3.3112510e-010 -4.866728e-003
    outer loop
      vertex   1.1353260e+001 4.1815930e+001 -2.505459e+000
      vertex   1.1362840e+001 3.2700770e+000 -5.364989e-001
      vertex   1.1353260e+001 3.2700770e+000 -2.505462e+000
    endloop
  endfacet
  facet normal -1.000000e+000 -8.116793e-012 8.5246200e-005
    outer loop
      vertex   1.2450410e+001 6.2739580e+001 -5.364932e-001
      vertex   1.2450240e+001 4.1815930e+001 -2.505459e+000
      vertex   1.2450410e+001 3.2700770e+000 -5.364989e-001
    endloop
  endfacet
  facet normal -1.000000e+000 -5.800031e-012 8.5246250e-005
    outer loop
      vertex   1.2450240e+001 4.1815930e+001 -2.505459e+000
      vertex   1.2450240e+001 3.2700770e+000 -2.505462e+000
      vertex   1.2450410e+001 3.2700770e+000 -5.364989e-001
    endloop
  endfacet
  facet normal 0.0000000e+000 -2.384186e-007 1.0000000e+000
    outer loop
      vertex   1.1353260e+001 3.2700770e+000 -2.505462e+000
      vertex   1.2930480e+001 -1.729923e+000 -2.505463e+000
      vertex   1.2450240e+001 3.2700770e+000 -2.505462e+000
    endloop
  endfacet
  facet normal 0.0000000e+000 -2.384186e-007 1.0000000e+000
    outer loop
      vertex   -1.219513e+000 3.2700770e+000 -2.505462e+000
      vertex   -1.219513e+000 -1.729923e+000 -2.505463e+000
      vertex   1.2930480e+001 -1.729923e+000 -2.505463e+000
    endloop
  endfacet
  facet normal 0.0000000e+000 -2.384186e-007 9.9999990e-001
    outer loop
      vertex   -1.219513e+000 3.2700770e+000 -2.505462e+000
      vertex   1.2930480e+001 -1.729923e+000 -2.505463e+000
      vertex   1.1353260e+001 3.2700770e+000 -2.505462e+000
    endloop
  endfacet
  facet normal 0.0000000e+000 -1.000000e+000 0.0000000e+000
    outer loop
      vertex   1.2450410e+001 3.2700770e+000 -5.364989e-001
      vertex   1.2450240e+001 3.2700770e+000 -2.505462e+000
      vertex   1.2930480e+001 3.2700770e+000 -2.505462e+000
    endloop
  endfacet
  facet normal 0.0000000e+000 -9.999999e-001 0.0000000e+000
    outer loop
      vertex   1.1362840e+001 3.2700770e+000 -5.364989e-001
      vertex   1.2450410e+001 3.2700770e+000 -5.364989e-001
      vertex   1.2930480e+001 3.2700770e+000 2.3731690e+000
    endloop
  endfacet
  facet normal 0.0000000e+000 -1.000000e+000 0.0000000e+000
    outer loop
      vertex   1.1362840e+001 3.2700770e+000 -5.364989e-001
      vertex   1.2930480e+001 3.2700770e+000 2.3731690e+000
      vertex   -1.219513e+000 3.2700770e+000 2.3731690e+000
    endloop
  endfacet
  facet normal 0.0000000e+000 -1.000000e+000 0.0000000e+000
    outer loop
      vertex   1.1353260e+001 3.2700770e+000 -2.505462e+000
      vertex   1.1362840e+001 3.2700770e+000 -5.364989e-001
      vertex   -1.219513e+000 3.2700770e+000 2.3731690e+000
    endloop
  endfacet
  facet normal 0.0000000e+000 -1.000000e+000 0.0000000e+000
    outer loop
      vertex   1.1353260e+001 3.2700770e+000 -2.505462e+000
      vertex   -1.219513e+000 3.2700770e+000 2.3731690e+000
      vertex   -1.219513e+000 3.2700770e+000 -2.505462e+000
    endloop
  endfacet
  facet normal -1.000000e+000 0.0000000e+000 0.0000000e+000
    outer loop
      vertex   1.2450240e+001 1.1153350e+002 1.2712040e+000
      vertex   1.2450240e+001 1.0954620e+002 1.2712040e+000
      vertex   1.2450240e+001 1.1233550e+002 2.9227550e+000
    endloop
  endfacet
  facet normal -1.000000e+000 0.0000000e+000 0.0000000e+000
    outer loop
      vertex   1.2450240e+001 1.1153350e+002 1.2712040e+000
      vertex   1.2450240e+001 1.1233550e+002 2.9227550e+000
      vertex   1.2450240e+001 1.1395000e+002 2.9227550e+000
    endloop
  endfacet
  facet normal 0.0000000e+000 5.0949450e-001 -8.604740e-001
    outer loop
      vertex   1.2450240e+001 1.0954620e+002 1.2712040e+000
      vertex   1.1353260e+001 1.0954620e+002 1.2712040e+000
      vertex   1.1353260e+001 1.1233550e+002 2.9227550e+000
    endloop
  endfacet
  facet normal 0.0000000e+000 5.0949450e-001 -8.604740e-001
    outer loop
      vertex   1.2450240e+001 1.0954620e+002 1.2712040e+000
      vertex   1.1353260e+001 1.1233550e+002 2.9227550e+000
      vertex   1.2450240e+001 1.1233550e+002 2.9227550e+000
    endloop
  endfacet
  facet normal 1.0000000e+000 0.0000000e+000 0.0000000e+000
    outer loop
      vertex   1.1353260e+001 1.0954620e+002 1.2712040e+000
      vertex   1.1353260e+001 1.1153350e+002 1.2712040e+000
      vertex   1.1353260e+001 1.1395000e+002 2.9227550e+000
    endloop
  endfacet
  facet normal 1.0000000e+000 0.0000000e+000 0.0000000e+000
    outer loop
      vertex   1.1353260e+001 1.0954620e+002 1.2712040e+000
      vertex   1.1353260e+001 1.1395000e+002 2.9227550e+000
      vertex   1.1353260e+001 1.1233550e+002 2.9227550e+000
    endloop
  endfacet
  facet normal 0.0000000e+000 -5.642639e-001 8.2559450e-001
    outer loop
      vertex   1.1353260e+001 1.1153350e+002 1.2712040e+000
      vertex   1.2450240e+001 1.1153350e+002 1.2712040e+000
      vertex   1.2450240e+001 1.1395000e+002 2.9227550e+000
    endloop
  endfacet
  facet normal 0.0000000e+000 -5.642639e-001 8.2559450e-001
    outer loop
      vertex   1.1353260e+001 1.1153350e+002 1.2712040e+000
      vertex   1.2450240e+001 1.1395000e+002 2.9227550e+000
      vertex   1.1353260e+001 1.1395000e+002 2.9227550e+000
    endloop
  endfacet
  facet normal 0.0000000e+000 -1.327810e-007 1.0000000e+000
    outer loop
      vertex   1.2450240e+001 1.1233550e+002 2.9227550e+000
      vertex   1.1353260e+001 1.1233550e+002 2.9227550e+000
      vertex   1.0133240e+001 1.1053990e+002 2.9227550e+000
    endloop
  endfacet
  facet normal 0.0000000e+000 -1.327810e-007 1.0000000e+000
    outer loop
      vertex   1.2450240e+001 1.1233550e+002 2.9227550e+000
      vertex   1.0133240e+001 1.1053990e+002 2.9227550e+000
      vertex   1.3670260e+001 1.1053990e+002 2.9227550e+000
    endloop
  endfacet
  facet normal 1.9542240e-007 0.0000000e+000 1.0000000e+000
    outer loop
      vertex   1.2450240e+001 1.1395000e+002 2.9227550e+000
      vertex   1.2450240e+001 1.1233550e+002 2.9227550e+000
      vertex   1.3670260e+001 1.1053990e+002 2.9227550e+000
    endloop
  endfacet
  facet normal 3.3203790e-008 -5.803685e-008 1.0000000e+000
    outer loop
      vertex   1.2450240e+001 1.1395000e+002 2.9227550e+000
      vertex   1.3670260e+001 1.1053990e+002 2.9227550e+000
      vertex   1.3670260e+001 1.1464800e+002 2.9227550e+000
    endloop
  endfacet
  facet normal 0.0000000e+000 0.0000000e+000 1.0000000e+000
    outer loop
      vertex   1.1353260e+001 1.1233550e+002 2.9227550e+000
      vertex   1.1353260e+001 1.1395000e+002 2.9227550e+000
      vertex   1.0133240e+001 1.1464800e+002 2.9227550e+000
    endloop
  endfacet
  facet normal -1.100058e-007 -5.803685e-008 1.0000000e+000
    outer loop
      vertex   1.1353260e+001 1.1233550e+002 2.9227550e+000
      vertex   1.0133240e+001 1.1464800e+002 2.9227550e+000
      vertex   1.0133240e+001 1.1053990e+002 2.9227550e+000
    endloop
  endfacet
  facet normal 0.0000000e+000 0.0000000e+000 1.0000000e+000
    outer loop
      vertex   1.1353260e+001 1.1395000e+002 2.9227550e+000
      vertex   1.2450240e+001 1.1395000e+002 2.9227550e+000
      vertex   1.3670260e+001 1.1464800e+002 2.9227550e+000
    endloop
  endfacet
  facet normal 0.0000000e+000 0.0000000e+000 1.0000000e+000
    outer loop
      vertex   1.1353260e+001 1.1395000e+002 2.9227550e+000
      vertex   1.3670260e+001 1.1464800e+002 2.9227550e+000
      vertex   1.0133240e+001 1.1464800e+002 2.9227550e+000
    endloop
  endfacet
  facet normal -1.000000e+000 0.0000000e+000 0.0000000e+000
    outer loop
      vertex   1.0133240e+001 1.1053990e+002 2.9227550e+000
      vertex   1.0133240e+001 1.1464800e+002 2.9227550e+000
      vertex   1.0133240e+001 1.1464800e+002 2.3100380e+000
    endloop
  endfacet
  facet normal -1.000000e+000 0.0000000e+000 0.0000000e+000
    outer loop
      vertex   1.0133240e+001 1.1053990e+002 2.9227550e+000
      vertex   1.0133240e+001 1.1464800e+002 2.3100380e+000
      vertex   1.0133240e+001 1.1053990e+002 2.3100380e+000
    endloop
  endfacet
  facet normal 0.0000000e+000 1.0000000e+000 0.0000000e+000
    outer loop
      vertex   1.0133240e+001 1.1464800e+002 2.9227550e+000
      vertex   1.3670260e+001 1.1464800e+002 2.9227550e+000
      vertex   1.3670260e+001 1.1464800e+002 2.3100380e+000
    endloop
  endfacet
  facet normal 0.0000000e+000 1.0000000e+000 0.0000000e+000
    outer loop
      vertex   1.0133240e+001 1.1464800e+002 2.9227550e+000
      vertex   1.3670260e+001 1.1464800e+002 2.3100380e+000
      vertex   1.0133240e+001 1.1464800e+002 2.3100380e+000
    endloop
  endfacet
  facet normal 0.0000000e+000 -1.000000e+000 0.0000000e+000
    outer loop
      vertex   1.3670260e+001 1.1053990e+002 2.9227550e+000
      vertex   1.0133240e+001 1.1053990e+002 2.9227550e+000
      vertex   1.0133240e+001 1.1053990e+002 2.3100380e+000
    endloop
  endfacet
  facet normal 0.0000000e+000 -1.000000e+000 0.0000000e+000
    outer loop
      vertex   1.3670260e+001 1.1053990e+002 2.9227550e+000
      vertex   1.0133240e+001 1.1053990e+002 2.3100380e+000
      vertex   1.3670260e+001 1.1053990e+002 2.3100380e+000
    endloop
  endfacet
  facet normal 1.0000000e+000 0.0000000e+000 0.0000000e+000
    outer loop
      vertex   1.3670260e+001 1.1464800e+002 2.9227550e+000
      vertex   1.3670260e+001 1.1053990e+002 2.9227550e+000
      vertex   1.3670260e+001 1.1053990e+002 2.3100380e+000
    endloop
  endfacet
  facet normal 1.0000000e+000 0.0000000e+000 0.0000000e+000
    outer loop
      vertex   1.3670260e+001 1.1464800e+002 2.9227550e+000
      vertex   1.3670260e+001 1.1053990e+002 2.3100380e+000
      vertex   1.3670260e+001 1.1464800e+002 2.3100380e+000
    endloop
  endfacet
  facet normal 0.0000000e+000 -1.264290e-007 1.0000000e+000
    outer loop
      vertex   1.0188730e+002 -1.021009e+002 1.1514660e+000
      vertex   -1.021127e+002 -1.021009e+002 1.1514660e+000
      vertex   -1.143703e+002 -1.143586e+002 1.1514640e+000
    endloop
  endfacet
  facet normal 0.0000000e+000 -1.264290e-007 1.0000000e+000
    outer loop
      vertex   1.0188730e+002 -1.021009e+002 1.1514660e+000
      vertex   -1.143703e+002 -1.143586e+002 1.1514640e+000
      vertex   1.1414500e+002 -1.143586e+002 1.1514640e+000
    endloop
  endfacet
  facet normal 0.0000000e+000 -1.264290e-007 1.0000000e+000
    outer loop
      vertex   -1.021127e+002 1.0189910e+002 1.1514820e+000
      vertex   1.0188730e+002 1.0189910e+002 1.1514820e+000
      vertex   1.1414500e+002 1.1415670e+002 1.1514840e+000
    endloop
  endfacet
  facet normal 0.0000000e+000 -1.264290e-007 1.0000000e+000
    outer loop
      vertex   -1.021127e+002 1.0189910e+002 1.1514820e+000
      vertex   1.1414500e+002 1.1415670e+002 1.1514840e+000
      vertex   -1.143703e+002 1.1415670e+002 1.1514840e+000
    endloop
  endfacet
  facet normal 4.3450000e-008 -8.297902e-008 1.0000000e+000
    outer loop
      vertex   1.0188730e+002 1.0189910e+002 1.1514820e+000
      vertex   1.0188730e+002 -1.021009e+002 1.1514660e+000
      vertex   1.1414500e+002 -1.143586e+002 1.1514640e+000
    endloop
  endfacet
  facet normal -3.878863e-008 -8.764035e-008 1.0000000e+000
    outer loop
      vertex   1.0188730e+002 1.0189910e+002 1.1514820e+000
      vertex   1.1414500e+002 -1.143586e+002 1.1514640e+000
      vertex   1.1414500e+002 1.1415670e+002 1.1514840e+000
    endloop
  endfacet
  facet normal 4.3450030e-008 -8.297901e-008 1.0000000e+000
    outer loop
      vertex   -1.021127e+002 -1.021009e+002 1.1514660e+000
      vertex   -1.021127e+002 1.0189910e+002 1.1514820e+000
      vertex   -1.143703e+002 1.1415670e+002 1.1514840e+000
    endloop
  endfacet
  facet normal -3.878866e-008 -8.764036e-008 9.9999990e-001
    outer loop
      vertex   -1.021127e+002 -1.021009e+002 1.1514660e+000
      vertex   -1.143703e+002 1.1415670e+002 1.1514840e+000
      vertex   -1.143703e+002 -1.143586e+002 1.1514640e+000
    endloop
  endfacet
  facet normal -1.000000e+000 0.0000000e+000 0.0000000e+000
    outer loop
      vertex   1.1414500e+002 1.1415670e+002 1.1514840e+000
      vertex   1.1414500e+002 -1.143586e+002 1.1514640e+000
      vertex   1.1414500e+002 -1.143586e+002 1.7984670e+000
    endloop
  endfacet
  facet normal -1.000000e+000 0.0000000e+000 0.0000000e+000
    outer loop
      vertex   1.1414500e+002 1.1415670e+002 1.1514840e+000
      vertex   1.1414500e+002 -1.143586e+002 1.7984670e+000
      vertex   1.1414500e+002 1.1415670e+002 1.7984870e+000
    endloop
  endfacet
  facet normal -4.104553e-008 -8.711869e-008 1.0000000e+000
    outer loop
      vertex   1.1414500e+002 1.1415670e+002 1.7984870e+000
      vertex   1.1414500e+002 -1.143586e+002 1.7984670e+000
      vertex   1.1673230e+002 -1.169459e+002 1.7984670e+000
    endloop
  endfacet
  facet normal 4.0136420e-008 -8.620979e-008 1.0000000e+000
    outer loop
      vertex   1.1414500e+002 1.1415670e+002 1.7984870e+000
      vertex   1.1673230e+002 -1.169459e+002 1.7984670e+000
      vertex   1.1673230e+002 1.1674410e+002 1.7984870e+000
    endloop
  endfacet
  facet normal -4.104517e-008 -8.711869e-008 1.0000000e+000
    outer loop
      vertex   -1.143703e+002 -1.143586e+002 1.7984670e+000
      vertex   -1.143703e+002 1.1415670e+002 1.7984870e+000
      vertex   -1.169577e+002 1.1674410e+002 1.7984870e+000
    endloop
  endfacet
  facet normal 4.0136070e-008 -8.620979e-008 1.0000000e+000
    outer loop
      vertex   -1.143703e+002 -1.143586e+002 1.7984670e+000
      vertex   -1.169577e+002 1.1674410e+002 1.7984870e+000
      vertex   -1.169577e+002 -1.169459e+002 1.7984670e+000
    endloop
  endfacet
  facet normal 0.0000000e+000 -4.607337e-008 1.0000000e+000
    outer loop
      vertex   -1.143703e+002 1.1415670e+002 1.7984870e+000
      vertex   1.1414500e+002 1.1415670e+002 1.7984870e+000
      vertex   1.1673230e+002 1.1674410e+002 1.7984870e+000
    endloop
  endfacet
  facet normal 0.0000000e+000 -4.607337e-008 1.0000000e+000
    outer loop
      vertex   -1.143703e+002 1.1415670e+002 1.7984870e+000
      vertex   1.1673230e+002 1.1674410e+002 1.7984870e+000
      vertex   -1.169577e+002 1.1674410e+002 1.7984870e+000
    endloop
  endfacet
  facet normal 0.0000000e+000 -4.607337e-008 1.0000000e+000
    outer loop
      vertex   1.1414500e+002 -1.143586e+002 1.7984670e+000
      vertex   -1.143703e+002 -1.143586e+002 1.7984670e+000
      vertex   -1.169577e+002 -1.169459e+002 1.7984670e+000
    endloop
  endfacet
  facet normal 0.0000000e+000 -4.607337e-008 1.0000000e+000
    outer loop
      vertex   1.1414500e+002 -1.143586e+002 1.7984670e+000
      vertex   -1.169577e+002 -1.169459e+002 1.7984670e+000
      vertex   1.1673230e+002 -1.169459e+002 1.7984670e+000
    endloop
  endfacet
  facet normal 1.0000000e+000 0.0000000e+000 0.0000000e+000
    outer loop
      vertex   -1.143703e+002 -1.143586e+002 1.1514640e+000
      vertex   -1.143703e+002 1.1415670e+002 1.1514840e+000
      vertex   -1.143703e+002 1.1415670e+002 1.7984870e+000
    endloop
  endfacet
  facet normal 1.0000000e+000 0.0000000e+000 0.0000000e+000
    outer loop
      vertex   -1.143703e+002 -1.143586e+002 1.1514640e+000
      vertex   -1.143703e+002 1.1415670e+002 1.7984870e+000
      vertex   -1.143703e+002 -1.143586e+002 1.7984670e+000
    endloop
  endfacet
  facet normal 0.0000000e+000 -1.000000e+000 0.0000000e+000
    outer loop
      vertex   -1.143703e+002 1.1415670e+002 1.1514840e+000
      vertex   1.1414500e+002 1.1415670e+002 1.1514840e+000
      vertex   1.1414500e+002 1.1415670e+002 1.7984870e+000
    endloop
  endfacet
  facet normal 0.0000000e+000 -1.000000e+000 0.0000000e+000
    outer loop
      vertex   -1.143703e+002 1.1415670e+002 1.1514840e+000
      vertex   1.1414500e+002 1.1415670e+002 1.7984870e+000
      vertex   -1.143703e+002 1.1415670e+002 1.7984870e+000
    endloop
  endfacet
  facet normal 0.0000000e+000 1.0000000e+000 0.0000000e+000
    outer loop
      vertex   1.1414500e+002 -1.143586e+002 1.1514640e+000
      vertex   -1.143703e+002 -1.143586e+002 1.1514640e+000
      vertex   -1.143703e+002 -1.143586e+002 1.7984670e+000
    endloop
  endfacet
  facet normal 0.0000000e+000 1.0000000e+000 0.0000000e+000
    outer loop
      vertex   1.1414500e+002 -1.143586e+002 1.1514640e+000
      vertex   -1.143703e+002 -1.143586e+002 1.7984670e+000
      vertex   1.1414500e+002 -1.143586e+002 1.7984670e+000
    endloop
  endfacet
endsolid
