solid ascii
  facet normal 0.0000000e+000 -9.882712e-001 1.5270870e-001
    outer loop
      vertex   1.0000000e-003 2.3484060e-001 4.7877420e+002
      vertex   1.5000100e+002 2.3484060e-001 4.7877420e+002
      vertex   1.0000000e-003 2.8249600e+000 4.9553650e+002
    endloop
  endfacet
  facet normal 0.0000000e+000 -9.882712e-001 1.5270870e-001
    outer loop
      vertex   1.0000000e-003 2.8249600e+000 4.9553650e+002
      vertex   1.5000100e+002 2.3484060e-001 4.7877420e+002
      vertex   1.5000100e+002 2.8249600e+000 4.9553650e+002
    endloop
  endfacet
  facet normal 0.0000000e+000 -9.482480e-001 3.1753080e-001
    outer loop
      vertex   1.0000000e-003 2.8249600e+000 4.9553650e+002
      vertex   1.5000100e+002 2.8249600e+000 4.9553650e+002
      vertex   1.0000000e-003 8.2106570e+000 5.1161990e+002
    endloop
  endfacet
  facet normal 0.0000000e+000 -9.482480e-001 3.1753080e-001
    outer loop
      vertex   1.0000000e-003 8.2106570e+000 5.1161990e+002
      vertex   1.5000100e+002 2.8249600e+000 4.9553650e+002
      vertex   1.5000100e+002 8.2106570e+000 5.1161990e+002
    endloop
  endfacet
  facet normal 0.0000000e+000 -8.809456e-001 4.7321750e-001
    outer loop
      vertex   1.0000000e-003 8.2106570e+000 5.1161990e+002
      vertex   1.5000100e+002 8.2106570e+000 5.1161990e+002
      vertex   1.0000000e-003 1.6236990e+001 5.2656180e+002
    endloop
  endfacet
  facet normal 0.0000000e+000 -8.809456e-001 4.7321750e-001
    outer loop
      vertex   1.0000000e-003 1.6236990e+001 5.2656180e+002
      vertex   1.5000100e+002 8.2106570e+000 5.1161990e+002
      vertex   1.5000100e+002 1.6236990e+001 5.2656180e+002
    endloop
  endfacet
  facet normal 0.0000000e+000 -7.882993e-001 6.1529210e-001
    outer loop
      vertex   1.0000000e-003 1.6236990e+001 5.2656180e+002
      vertex   1.5000100e+002 1.6236990e+001 5.2656180e+002
      vertex   1.0000000e-003 2.6673070e+001 5.3993230e+002
    endloop
  endfacet
  facet normal 0.0000000e+000 -7.882993e-001 6.1529210e-001
    outer loop
      vertex   1.0000000e-003 2.6673070e+001 5.3993230e+002
      vertex   1.5000100e+002 1.6236990e+001 5.2656180e+002
      vertex   1.5000100e+002 2.6673070e+001 5.3993230e+002
    endloop
  endfacet
  facet normal 0.0000000e+000 -6.729765e-001 7.3966380e-001
    outer loop
      vertex   1.0000000e-003 2.6673070e+001 5.3993230e+002
      vertex   1.5000100e+002 2.6673070e+001 5.3993230e+002
      vertex   1.0000000e-003 3.9218660e+001 5.5134670e+002
    endloop
  endfacet
  facet normal 0.0000000e+000 -6.729765e-001 7.3966380e-001
    outer loop
      vertex   1.0000000e-003 3.9218660e+001 5.5134670e+002
      vertex   1.5000100e+002 2.6673070e+001 5.3993230e+002
      vertex   1.5000100e+002 3.9218660e+001 5.5134670e+002
    endloop
  endfacet
  facet normal 0.0000000e+000 -5.382918e-001 8.4275850e-001
    outer loop
      vertex   1.0000000e-003 3.9218660e+001 5.5134670e+002
      vertex   1.5000100e+002 3.9218660e+001 5.5134670e+002
      vertex   1.0000000e-003 5.3512840e+001 5.6047680e+002
    endloop
  endfacet
  facet normal 0.0000000e+000 -5.382918e-001 8.4275850e-001
    outer loop
      vertex   1.0000000e-003 5.3512840e+001 5.6047680e+002
      vertex   1.5000100e+002 3.9218660e+001 5.5134670e+002
      vertex   1.5000100e+002 5.3512840e+001 5.6047680e+002
    endloop
  endfacet
  facet normal 0.0000000e+000 -3.881218e-001 9.2160800e-001
    outer loop
      vertex   1.0000000e-003 5.3512840e+001 5.6047680e+002
      vertex   1.5000100e+002 5.3512840e+001 5.6047680e+002
      vertex   1.0000000e-003 6.9144410e+001 5.6705980e+002
    endloop
  endfacet
  facet normal 0.0000000e+000 -3.881218e-001 9.2160800e-001
    outer loop
      vertex   1.0000000e-003 6.9144410e+001 5.6705980e+002
      vertex   1.5000100e+002 5.3512840e+001 5.6047680e+002
      vertex   1.5000100e+002 6.9144410e+001 5.6705980e+002
    endloop
  endfacet
  facet normal 0.0000000e+000 -2.267826e-001 9.7394540e-001
    outer loop
      vertex   1.0000000e-003 6.9144410e+001 5.6705980e+002
      vertex   1.5000100e+002 6.9144410e+001 5.6705980e+002
      vertex   1.0000000e-003 8.5663660e+001 5.7090630e+002
    endloop
  endfacet
  facet normal 0.0000000e+000 -2.267826e-001 9.7394540e-001
    outer loop
      vertex   1.0000000e-003 8.5663660e+001 5.7090630e+002
      vertex   1.5000100e+002 6.9144410e+001 5.6705980e+002
      vertex   1.5000100e+002 8.5663660e+001 5.7090630e+002
    endloop
  endfacet
  facet normal 0.0000000e+000 -5.892936e-002 9.9826220e-001
    outer loop
      vertex   1.0000000e-003 8.5663660e+001 5.7090630e+002
      vertex   1.5000100e+002 8.5663660e+001 5.7090630e+002
      vertex   1.0000000e-003 1.0259540e+002 5.7190580e+002
    endloop
  endfacet
  facet normal 0.0000000e+000 -5.892936e-002 9.9826220e-001
    outer loop
      vertex   1.0000000e-003 1.0259540e+002 5.7190580e+002
      vertex   1.5000100e+002 8.5663660e+001 5.7090630e+002
      vertex   1.5000100e+002 1.0259540e+002 5.7190580e+002
    endloop
  endfacet
  facet normal 0.0000000e+000 1.1062930e-001 9.9386180e-001
    outer loop
      vertex   1.0000000e-003 1.0259540e+002 5.7190580e+002
      vertex   1.5000100e+002 1.0259540e+002 5.7190580e+002
      vertex   1.0000000e-003 1.1945240e+002 5.7002940e+002
    endloop
  endfacet
  facet normal 0.0000000e+000 1.1062930e-001 9.9386180e-001
    outer loop
      vertex   1.0000000e-003 1.1945240e+002 5.7002940e+002
      vertex   1.5000100e+002 1.0259540e+002 5.7190580e+002
      vertex   1.5000100e+002 1.1945240e+002 5.7002940e+002
    endloop
  endfacet
  facet normal 0.0000000e+000 2.7699630e-001 9.6087100e-001
    outer loop
      vertex   1.0000000e-003 1.1945240e+002 5.7002940e+002
      vertex   1.5000100e+002 1.1945240e+002 5.7002940e+002
      vertex   1.0000000e-003 1.3574990e+002 5.6533120e+002
    endloop
  endfacet
  facet normal 0.0000000e+000 2.7699630e-001 9.6087100e-001
    outer loop
      vertex   1.0000000e-003 1.3574990e+002 5.6533120e+002
      vertex   1.5000100e+002 1.1945240e+002 5.7002940e+002
      vertex   1.5000100e+002 1.3574990e+002 5.6533120e+002
    endloop
  endfacet
  facet normal 0.0000000e+000 4.3540270e-001 9.0023580e-001
    outer loop
      vertex   1.0000000e-003 1.3574990e+002 5.6533120e+002
      vertex   1.5000100e+002 1.3574990e+002 5.6533120e+002
      vertex   1.0000000e-003 1.5101900e+002 5.5794630e+002
    endloop
  endfacet
  facet normal 0.0000000e+000 4.3540270e-001 9.0023580e-001
    outer loop
      vertex   1.0000000e-003 1.5101900e+002 5.5794630e+002
      vertex   1.5000100e+002 1.3574990e+002 5.6533120e+002
      vertex   1.5000100e+002 1.5101900e+002 5.5794630e+002
    endloop
  endfacet
  facet normal 0.0000000e+000 5.8128270e-001 8.1370180e-001
    outer loop
      vertex   1.0000000e-003 1.5101900e+002 5.5794630e+002
      vertex   1.5000100e+002 1.5101900e+002 5.5794630e+002
      vertex   1.0000000e-003 1.6482040e+002 5.4808700e+002
    endloop
  endfacet
  facet normal 0.0000000e+000 5.8128270e-001 8.1370180e-001
    outer loop
      vertex   1.0000000e-003 1.6482040e+002 5.4808700e+002
      vertex   1.5000100e+002 1.5101900e+002 5.5794630e+002
      vertex   1.5000100e+002 1.6482040e+002 5.4808700e+002
    endloop
  endfacet
  facet normal 0.0000000e+000 7.1043560e-001 7.0376210e-001
    outer loop
      vertex   1.0000000e-003 1.6482040e+002 5.4808700e+002
      vertex   1.5000100e+002 1.6482040e+002 5.4808700e+002
      vertex   1.0000000e-003 1.7675700e+002 5.3603720e+002
    endloop
  endfacet
  facet normal 0.0000000e+000 7.1043560e-001 7.0376210e-001
    outer loop
      vertex   1.0000000e-003 1.7675700e+002 5.3603720e+002
      vertex   1.5000100e+002 1.6482040e+002 5.4808700e+002
      vertex   1.5000100e+002 1.7675700e+002 5.3603720e+002
    endloop
  endfacet
  facet normal 0.0000000e+000 8.1915400e-001 5.7357360e-001
    outer loop
      vertex   1.0000000e-003 1.7675700e+002 5.3603720e+002
      vertex   1.5000100e+002 1.7675700e+002 5.3603720e+002
      vertex   1.0000000e-003 1.8648550e+002 5.2214340e+002
    endloop
  endfacet
  facet normal 0.0000000e+000 8.1915400e-001 5.7357360e-001
    outer loop
      vertex   1.0000000e-003 1.8648550e+002 5.2214340e+002
      vertex   1.5000100e+002 1.7675700e+002 5.3603720e+002
      vertex   1.5000100e+002 1.8648550e+002 5.2214340e+002
    endloop
  endfacet
  facet normal 0.0000000e+000 9.0430520e-001 4.2688650e-001
    outer loop
      vertex   1.0000000e-003 1.8648550e+002 5.2214340e+002
      vertex   1.5000100e+002 1.8648550e+002 5.2214340e+002
      vertex   1.0000000e-003 1.9372600e+002 5.0680530e+002
    endloop
  endfacet
  facet normal 0.0000000e+000 9.0430520e-001 4.2688650e-001
    outer loop
      vertex   1.0000000e-003 1.9372600e+002 5.0680530e+002
      vertex   1.5000100e+002 1.8648550e+002 5.2214340e+002
      vertex   1.5000100e+002 1.9372600e+002 5.0680530e+002
    endloop
  endfacet
  facet normal 0.0000000e+000 9.6344180e-001 2.6791770e-001
    outer loop
      vertex   1.0000000e-003 1.9372600e+002 5.0680530e+002
      vertex   1.5000100e+002 1.9372600e+002 5.0680530e+002
      vertex   1.0000000e-003 1.9827020e+002 4.9046420e+002
    endloop
  endfacet
  facet normal 0.0000000e+000 9.6344180e-001 2.6791770e-001
    outer loop
      vertex   1.0000000e-003 1.9827020e+002 4.9046420e+002
      vertex   1.5000100e+002 1.9372600e+002 5.0680530e+002
      vertex   1.5000100e+002 1.9827020e+002 4.9046420e+002
    endloop
  endfacet
  facet normal 0.0000000e+000 9.9486180e-001 1.0124190e-001
    outer loop
      vertex   1.0000000e-003 1.9827020e+002 4.9046420e+002
      vertex   1.5000100e+002 1.9827020e+002 4.9046420e+002
      vertex   1.0000000e-003 1.9998740e+002 4.7359020e+002
    endloop
  endfacet
  facet normal 0.0000000e+000 9.9486180e-001 1.0124190e-001
    outer loop
      vertex   1.0000000e-003 1.9998740e+002 4.7359020e+002
      vertex   1.5000100e+002 1.9827020e+002 4.9046420e+002
      vertex   1.5000100e+002 1.9998740e+002 4.7359020e+002
    endloop
  endfacet
  facet normal 0.0000000e+000 9.9766170e-001 -6.834740e-002
    outer loop
      vertex   1.0000000e-003 1.9998740e+002 4.7359020e+002
      vertex   1.5000100e+002 1.9998740e+002 4.7359020e+002
      vertex   1.0000000e-003 1.9882810e+002 4.5666860e+002
    endloop
  endfacet
  facet normal 0.0000000e+000 9.9766170e-001 -6.834740e-002
    outer loop
      vertex   1.0000000e-003 1.9882810e+002 4.5666860e+002
      vertex   1.5000100e+002 1.9998740e+002 4.7359020e+002
      vertex   1.5000100e+002 1.9882810e+002 4.5666860e+002
    endloop
  endfacet
  facet normal 0.0000000e+000 9.7176050e-001 -2.359693e-001
    outer loop
      vertex   1.0000000e-003 1.9882810e+002 4.5666860e+002
      vertex   1.5000100e+002 1.9882810e+002 4.5666860e+002
      vertex   1.0000000e-003 1.9482580e+002 4.4018640e+002
    endloop
  endfacet
  facet normal 0.0000000e+000 9.7176050e-001 -2.359693e-001
    outer loop
      vertex   1.0000000e-003 1.9482580e+002 4.4018640e+002
      vertex   1.5000100e+002 1.9882810e+002 4.5666860e+002
      vertex   1.5000100e+002 1.9482580e+002 4.4018640e+002
    endloop
  endfacet
  facet normal 0.0000000e+000 9.1790320e-001 -3.968043e-001
    outer loop
      vertex   1.0000000e-003 1.9482580e+002 4.4018640e+002
      vertex   1.5000100e+002 1.9482580e+002 4.4018640e+002
      vertex   1.0000000e-003 1.8809550e+002 4.2461770e+002
    endloop
  endfacet
  facet normal 0.0000000e+000 9.1790320e-001 -3.968043e-001
    outer loop
      vertex   1.0000000e-003 1.8809550e+002 4.2461770e+002
      vertex   1.5000100e+002 1.9482580e+002 4.4018640e+002
      vertex   1.5000100e+002 1.8809550e+002 4.2461770e+002
    endloop
  endfacet
  facet normal 0.0000000e+000 8.3763990e-001 -5.462229e-001
    outer loop
      vertex   1.0000000e-003 1.8809550e+002 4.2461770e+002
      vertex   1.5000100e+002 1.8809550e+002 4.2461770e+002
      vertex   1.0000000e-003 1.7883090e+002 4.1041030e+002
    endloop
  endfacet
  facet normal 0.0000000e+000 8.3763990e-001 -5.462229e-001
    outer loop
      vertex   1.0000000e-003 1.7883090e+002 4.1041030e+002
      vertex   1.5000100e+002 1.8809550e+002 4.2461770e+002
      vertex   1.5000100e+002 1.7883090e+002 4.1041030e+002
    endloop
  endfacet
  facet normal 0.0000000e+000 7.3327930e-001 -6.799276e-001
    outer loop
      vertex   1.0000000e-003 1.7883090e+002 4.1041030e+002
      vertex   1.5000100e+002 1.7883090e+002 4.1041030e+002
      vertex   1.0000000e-003 1.6729860e+002 3.9797300e+002
    endloop
  endfacet
  facet normal 0.0000000e+000 7.3327930e-001 -6.799276e-001
    outer loop
      vertex   1.0000000e-003 1.6729860e+002 3.9797300e+002
      vertex   1.5000100e+002 1.7883090e+002 4.1041030e+002
      vertex   1.5000100e+002 1.6729860e+002 3.9797300e+002
    endloop
  endfacet
  facet normal 0.0000000e+000 6.0782300e-001 -7.940726e-001
    outer loop
      vertex   1.0000000e-003 1.6729860e+002 3.9797300e+002
      vertex   1.5000100e+002 1.6729860e+002 3.9797300e+002
      vertex   1.0000000e-003 1.5383020e+002 3.8766360e+002
    endloop
  endfacet
  facet normal 0.0000000e+000 6.0782300e-001 -7.940726e-001
    outer loop
      vertex   1.0000000e-003 1.5383020e+002 3.8766360e+002
      vertex   1.5000100e+002 1.6729860e+002 3.9797300e+002
      vertex   1.5000100e+002 1.5383020e+002 3.8766360e+002
    endloop
  endfacet
  facet normal 0.0000000e+000 4.6488200e-001 -8.853726e-001
    outer loop
      vertex   1.0000000e-003 1.5383020e+002 3.8766360e+002
      vertex   1.5000100e+002 1.5383020e+002 3.8766360e+002
      vertex   1.0000000e-003 1.3881320e+002 3.7977870e+002
    endloop
  endfacet
  facet normal 0.0000000e+000 4.6488200e-001 -8.853726e-001
    outer loop
      vertex   1.0000000e-003 1.3881320e+002 3.7977870e+002
      vertex   1.5000100e+002 1.5383020e+002 3.8766360e+002
      vertex   1.5000100e+002 1.3881320e+002 3.7977870e+002
    endloop
  endfacet
  facet normal 0.0000000e+000 3.0856570e-001 -9.512030e-001
    outer loop
      vertex   1.0000000e-003 1.3881320e+002 3.7977870e+002
      vertex   1.5000100e+002 1.3881320e+002 3.7977870e+002
      vertex   1.0000000e-003 1.2267970e+002 3.7454500e+002
    endloop
  endfacet
  facet normal 0.0000000e+000 3.0856570e-001 -9.512030e-001
    outer loop
      vertex   1.0000000e-003 1.2267970e+002 3.7454500e+002
      vertex   1.5000100e+002 1.3881320e+002 3.7977870e+002
      vertex   1.5000100e+002 1.2267970e+002 3.7454500e+002
    endloop
  endfacet
  facet normal 0.0000000e+000 1.4337400e-001 -9.896686e-001
    outer loop
      vertex   1.0000000e-003 1.2267970e+002 3.7454500e+002
      vertex   1.5000100e+002 1.2267970e+002 3.7454500e+002
      vertex   1.0000000e-003 1.0589370e+002 3.7211330e+002
    endloop
  endfacet
  facet normal 0.0000000e+000 1.4337400e-001 -9.896686e-001
    outer loop
      vertex   1.0000000e-003 1.0589370e+002 3.7211330e+002
      vertex   1.5000100e+002 1.2267970e+002 3.7454500e+002
      vertex   1.5000100e+002 1.0589370e+002 3.7211330e+002
    endloop
  endfacet
  facet normal 0.0000000e+000 -2.594352e-002 -9.996635e-001
    outer loop
      vertex   1.0000000e-003 1.0589370e+002 3.7211330e+002
      vertex   1.5000100e+002 1.0589370e+002 3.7211330e+002
      vertex   1.0000000e-003 8.8938230e+001 3.7255330e+002
    endloop
  endfacet
  facet normal 0.0000000e+000 -2.594352e-002 -9.996635e-001
    outer loop
      vertex   1.0000000e-003 8.8938230e+001 3.7255330e+002
      vertex   1.5000100e+002 1.0589370e+002 3.7211330e+002
      vertex   1.5000100e+002 8.8938230e+001 3.7255330e+002
    endloop
  endfacet
  facet normal 0.0000000e+000 -1.945162e-001 -9.808993e-001
    outer loop
      vertex   1.0000000e-003 8.8938230e+001 3.7255330e+002
      vertex   1.5000100e+002 8.8938230e+001 3.7255330e+002
      vertex   1.0000000e-003 7.2301020e+001 3.7585250e+002
    endloop
  endfacet
  facet normal 0.0000000e+000 -1.945162e-001 -9.808993e-001
    outer loop
      vertex   1.0000000e-003 7.2301020e+001 3.7585250e+002
      vertex   1.5000100e+002 8.8938230e+001 3.7255330e+002
      vertex   1.5000100e+002 7.2301020e+001 3.7585250e+002
    endloop
  endfacet
  facet normal 0.0000000e+000 -3.574879e-001 -9.339178e-001
    outer loop
      vertex   1.0000000e-003 7.2301020e+001 3.7585250e+002
      vertex   1.5000100e+002 7.2301020e+001 3.7585250e+002
      vertex   1.0000000e-003 5.6460670e+001 3.8191590e+002
    endloop
  endfacet
  facet normal 0.0000000e+000 -3.574879e-001 -9.339178e-001
    outer loop
      vertex   1.0000000e-003 5.6460670e+001 3.8191590e+002
      vertex   1.5000100e+002 7.2301020e+001 3.7585250e+002
      vertex   1.5000100e+002 5.6460670e+001 3.8191590e+002
    endloop
  endfacet
  facet normal 0.0000000e+000 -5.101814e-001 -8.600668e-001
    outer loop
      vertex   1.0000000e-003 5.6460670e+001 3.8191590e+002
      vertex   1.5000100e+002 5.6460670e+001 3.8191590e+002
      vertex   1.0000000e-003 4.1872910e+001 3.9056920e+002
    endloop
  endfacet
  facet normal 0.0000000e+000 -5.101814e-001 -8.600668e-001
    outer loop
      vertex   1.0000000e-003 4.1872910e+001 3.9056920e+002
      vertex   1.5000100e+002 5.6460670e+001 3.8191590e+002
      vertex   1.5000100e+002 4.1872910e+001 3.9056920e+002
    endloop
  endfacet
  facet normal 0.0000000e+000 -6.481929e-001 -7.614762e-001
    outer loop
      vertex   1.0000000e-003 4.1872910e+001 3.9056920e+002
      vertex   1.5000100e+002 4.1872910e+001 3.9056920e+002
      vertex   1.0000000e-003 2.8957380e+001 4.0156330e+002
    endloop
  endfacet
  facet normal 0.0000000e+000 -6.481929e-001 -7.614762e-001
    outer loop
      vertex   1.0000000e-003 2.8957380e+001 4.0156330e+002
      vertex   1.5000100e+002 4.1872910e+001 3.9056920e+002
      vertex   1.5000100e+002 2.8957380e+001 4.0156330e+002
    endloop
  endfacet
  facet normal 0.0000000e+000 -7.675595e-001 -6.409777e-001
    outer loop
      vertex   1.0000000e-003 2.8957380e+001 4.0156330e+002
      vertex   1.5000100e+002 2.8957380e+001 4.0156330e+002
      vertex   1.0000000e-003 1.8085650e+001 4.1458200e+002
    endloop
  endfacet
  facet normal 0.0000000e+000 -7.675595e-001 -6.409777e-001
    outer loop
      vertex   1.0000000e-003 1.8085650e+001 4.1458200e+002
      vertex   1.5000100e+002 2.8957380e+001 4.0156330e+002
      vertex   1.5000100e+002 1.8085650e+001 4.1458200e+002
    endloop
  endfacet
  facet normal 0.0000000e+000 -8.648450e-001 -5.020391e-001
    outer loop
      vertex   1.0000000e-003 1.8085650e+001 4.1458200e+002
      vertex   1.5000100e+002 1.8085650e+001 4.1458200e+002
      vertex   1.0000000e-003 9.5704750e+000 4.2925080e+002
    endloop
  endfacet
  facet normal 0.0000000e+000 -8.648450e-001 -5.020391e-001
    outer loop
      vertex   1.0000000e-003 9.5704750e+000 4.2925080e+002
      vertex   1.5000100e+002 1.8085650e+001 4.1458200e+002
      vertex   1.5000100e+002 9.5704750e+000 4.2925080e+002
    endloop
  endfacet
  facet normal 0.0000000e+000 -9.372503e-001 -3.486573e-001
    outer loop
      vertex   1.0000000e-003 9.5704750e+000 4.2925080e+002
      vertex   1.5000100e+002 9.5704750e+000 4.2925080e+002
      vertex   1.0000000e-003 3.6568200e+000 4.4514770e+002
    endloop
  endfacet
  facet normal 0.0000000e+000 -9.372503e-001 -3.486573e-001
    outer loop
      vertex   1.0000000e-003 3.6568200e+000 4.4514770e+002
      vertex   1.5000100e+002 9.5704750e+000 4.2925080e+002
      vertex   1.5000100e+002 3.6568200e+000 4.4514770e+002
    endloop
  endfacet
  facet normal 0.0000000e+000 -9.826919e-001 -1.852472e-001
    outer loop
      vertex   1.0000000e-003 3.6568200e+000 4.4514770e+002
      vertex   1.5000100e+002 3.6568200e+000 4.4514770e+002
      vertex   1.0000000e-003 5.1481220e-001 4.6181530e+002
    endloop
  endfacet
  facet normal 0.0000000e+000 -9.826919e-001 -1.852472e-001
    outer loop
      vertex   1.0000000e-003 5.1481220e-001 4.6181530e+002
      vertex   1.5000100e+002 3.6568200e+000 4.4514770e+002
      vertex   1.5000100e+002 5.1481220e-001 4.6181530e+002
    endloop
  endfacet
  facet normal 0.0000000e+000 -9.998637e-001 -1.650658e-002
    outer loop
      vertex   1.0000000e-003 5.1481220e-001 4.6181530e+002
      vertex   1.5000100e+002 5.1481220e-001 4.6181530e+002
      vertex   1.0000000e-003 2.3484060e-001 4.7877420e+002
    endloop
  endfacet
  facet normal 0.0000000e+000 -9.998637e-001 -1.650658e-002
    outer loop
      vertex   1.0000000e-003 2.3484060e-001 4.7877420e+002
      vertex   1.5000100e+002 5.1481220e-001 4.6181530e+002
      vertex   1.5000100e+002 2.3484060e-001 4.7877420e+002
    endloop
  endfacet
  facet normal -1.000000e+000 0.0000000e+000 0.0000000e+000
    outer loop
      vertex   1.0000000e-003 2.8249600e+000 4.9553650e+002
      vertex   1.0000000e-003 8.2106570e+000 5.1161990e+002
      vertex   1.0000000e-003 2.3484060e-001 4.7877420e+002
    endloop
  endfacet
  facet normal -1.000000e+000 0.0000000e+000 0.0000000e+000
    outer loop
      vertex   1.0000000e-003 2.3484060e-001 4.7877420e+002
      vertex   1.0000000e-003 8.2106570e+000 5.1161990e+002
      vertex   1.0000000e-003 5.1481220e-001 4.6181530e+002
    endloop
  endfacet
  facet normal -1.000000e+000 0.0000000e+000 0.0000000e+000
    outer loop
      vertex   1.0000000e-003 5.1481220e-001 4.6181530e+002
      vertex   1.0000000e-003 8.2106570e+000 5.1161990e+002
      vertex   1.0000000e-003 1.6236990e+001 5.2656180e+002
    endloop
  endfacet
  facet normal -1.000000e+000 0.0000000e+000 0.0000000e+000
    outer loop
      vertex   1.0000000e-003 5.1481220e-001 4.6181530e+002
      vertex   1.0000000e-003 1.6236990e+001 5.2656180e+002
      vertex   1.0000000e-003 3.6568200e+000 4.4514770e+002
    endloop
  endfacet
  facet normal -9.999999e-001 0.0000000e+000 0.0000000e+000
    outer loop
      vertex   1.0000000e-003 3.6568200e+000 4.4514770e+002
      vertex   1.0000000e-003 1.6236990e+001 5.2656180e+002
      vertex   1.0000000e-003 2.6673070e+001 5.3993230e+002
    endloop
  endfacet
  facet normal -1.000000e+000 0.0000000e+000 0.0000000e+000
    outer loop
      vertex   1.0000000e-003 3.6568200e+000 4.4514770e+002
      vertex   1.0000000e-003 2.6673070e+001 5.3993230e+002
      vertex   1.0000000e-003 9.5704750e+000 4.2925080e+002
    endloop
  endfacet
  facet normal -1.000000e+000 0.0000000e+000 0.0000000e+000
    outer loop
      vertex   1.0000000e-003 9.5704750e+000 4.2925080e+002
      vertex   1.0000000e-003 2.6673070e+001 5.3993230e+002
      vertex   1.0000000e-003 3.9218660e+001 5.5134670e+002
    endloop
  endfacet
  facet normal -1.000000e+000 0.0000000e+000 0.0000000e+000
    outer loop
      vertex   1.0000000e-003 9.5704750e+000 4.2925080e+002
      vertex   1.0000000e-003 3.9218660e+001 5.5134670e+002
      vertex   1.0000000e-003 1.8085650e+001 4.1458200e+002
    endloop
  endfacet
  facet normal -1.000000e+000 0.0000000e+000 0.0000000e+000
    outer loop
      vertex   1.0000000e-003 1.8085650e+001 4.1458200e+002
      vertex   1.0000000e-003 3.9218660e+001 5.5134670e+002
      vertex   1.0000000e-003 5.3512840e+001 5.6047680e+002
    endloop
  endfacet
  facet normal -1.000000e+000 0.0000000e+000 0.0000000e+000
    outer loop
      vertex   1.0000000e-003 1.8085650e+001 4.1458200e+002
      vertex   1.0000000e-003 5.3512840e+001 5.6047680e+002
      vertex   1.0000000e-003 2.8957380e+001 4.0156330e+002
    endloop
  endfacet
  facet normal -1.000000e+000 0.0000000e+000 0.0000000e+000
    outer loop
      vertex   1.0000000e-003 2.8957380e+001 4.0156330e+002
      vertex   1.0000000e-003 5.3512840e+001 5.6047680e+002
      vertex   1.0000000e-003 6.9144410e+001 5.6705980e+002
    endloop
  endfacet
  facet normal -1.000000e+000 0.0000000e+000 0.0000000e+000
    outer loop
      vertex   1.0000000e-003 2.8957380e+001 4.0156330e+002
      vertex   1.0000000e-003 6.9144410e+001 5.6705980e+002
      vertex   1.0000000e-003 4.1872910e+001 3.9056920e+002
    endloop
  endfacet
  facet normal -1.000000e+000 0.0000000e+000 0.0000000e+000
    outer loop
      vertex   1.0000000e-003 4.1872910e+001 3.9056920e+002
      vertex   1.0000000e-003 6.9144410e+001 5.6705980e+002
      vertex   1.0000000e-003 8.5663660e+001 5.7090630e+002
    endloop
  endfacet
  facet normal -1.000000e+000 0.0000000e+000 0.0000000e+000
    outer loop
      vertex   1.0000000e-003 4.1872910e+001 3.9056920e+002
      vertex   1.0000000e-003 8.5663660e+001 5.7090630e+002
      vertex   1.0000000e-003 5.6460670e+001 3.8191590e+002
    endloop
  endfacet
  facet normal -1.000000e+000 0.0000000e+000 0.0000000e+000
    outer loop
      vertex   1.0000000e-003 5.6460670e+001 3.8191590e+002
      vertex   1.0000000e-003 8.5663660e+001 5.7090630e+002
      vertex   1.0000000e-003 1.0259540e+002 5.7190580e+002
    endloop
  endfacet
  facet normal -1.000000e+000 0.0000000e+000 0.0000000e+000
    outer loop
      vertex   1.0000000e-003 5.6460670e+001 3.8191590e+002
      vertex   1.0000000e-003 1.0259540e+002 5.7190580e+002
      vertex   1.0000000e-003 7.2301020e+001 3.7585250e+002
    endloop
  endfacet
  facet normal -1.000000e+000 0.0000000e+000 0.0000000e+000
    outer loop
      vertex   1.0000000e-003 7.2301020e+001 3.7585250e+002
      vertex   1.0000000e-003 1.0259540e+002 5.7190580e+002
      vertex   1.0000000e-003 1.1945240e+002 5.7002940e+002
    endloop
  endfacet
  facet normal -9.999999e-001 0.0000000e+000 0.0000000e+000
    outer loop
      vertex   1.0000000e-003 7.2301020e+001 3.7585250e+002
      vertex   1.0000000e-003 1.1945240e+002 5.7002940e+002
      vertex   1.0000000e-003 8.8938230e+001 3.7255330e+002
    endloop
  endfacet
  facet normal -1.000000e+000 0.0000000e+000 0.0000000e+000
    outer loop
      vertex   1.0000000e-003 8.8938230e+001 3.7255330e+002
      vertex   1.0000000e-003 1.1945240e+002 5.7002940e+002
      vertex   1.0000000e-003 1.3574990e+002 5.6533120e+002
    endloop
  endfacet
  facet normal -9.999999e-001 0.0000000e+000 0.0000000e+000
    outer loop
      vertex   1.0000000e-003 8.8938230e+001 3.7255330e+002
      vertex   1.0000000e-003 1.3574990e+002 5.6533120e+002
      vertex   1.0000000e-003 1.0589370e+002 3.7211330e+002
    endloop
  endfacet
  facet normal -1.000000e+000 0.0000000e+000 0.0000000e+000
    outer loop
      vertex   1.0000000e-003 1.0589370e+002 3.7211330e+002
      vertex   1.0000000e-003 1.3574990e+002 5.6533120e+002
      vertex   1.0000000e-003 1.5101900e+002 5.5794630e+002
    endloop
  endfacet
  facet normal -1.000000e+000 0.0000000e+000 0.0000000e+000
    outer loop
      vertex   1.0000000e-003 1.0589370e+002 3.7211330e+002
      vertex   1.0000000e-003 1.5101900e+002 5.5794630e+002
      vertex   1.0000000e-003 1.2267970e+002 3.7454500e+002
    endloop
  endfacet
  facet normal -1.000000e+000 0.0000000e+000 0.0000000e+000
    outer loop
      vertex   1.0000000e-003 1.2267970e+002 3.7454500e+002
      vertex   1.0000000e-003 1.5101900e+002 5.5794630e+002
      vertex   1.0000000e-003 1.6482040e+002 5.4808700e+002
    endloop
  endfacet
  facet normal -1.000000e+000 0.0000000e+000 0.0000000e+000
    outer loop
      vertex   1.0000000e-003 1.2267970e+002 3.7454500e+002
      vertex   1.0000000e-003 1.6482040e+002 5.4808700e+002
      vertex   1.0000000e-003 1.3881320e+002 3.7977870e+002
    endloop
  endfacet
  facet normal -9.999999e-001 0.0000000e+000 0.0000000e+000
    outer loop
      vertex   1.0000000e-003 1.3881320e+002 3.7977870e+002
      vertex   1.0000000e-003 1.6482040e+002 5.4808700e+002
      vertex   1.0000000e-003 1.7675700e+002 5.3603720e+002
    endloop
  endfacet
  facet normal -1.000000e+000 0.0000000e+000 0.0000000e+000
    outer loop
      vertex   1.0000000e-003 1.3881320e+002 3.7977870e+002
      vertex   1.0000000e-003 1.7675700e+002 5.3603720e+002
      vertex   1.0000000e-003 1.5383020e+002 3.8766360e+002
    endloop
  endfacet
  facet normal -1.000000e+000 0.0000000e+000 0.0000000e+000
    outer loop
      vertex   1.0000000e-003 1.5383020e+002 3.8766360e+002
      vertex   1.0000000e-003 1.7675700e+002 5.3603720e+002
      vertex   1.0000000e-003 1.8648550e+002 5.2214340e+002
    endloop
  endfacet
  facet normal -1.000000e+000 0.0000000e+000 0.0000000e+000
    outer loop
      vertex   1.0000000e-003 1.5383020e+002 3.8766360e+002
      vertex   1.0000000e-003 1.8648550e+002 5.2214340e+002
      vertex   1.0000000e-003 1.6729860e+002 3.9797300e+002
    endloop
  endfacet
  facet normal -1.000000e+000 0.0000000e+000 0.0000000e+000
    outer loop
      vertex   1.0000000e-003 1.6729860e+002 3.9797300e+002
      vertex   1.0000000e-003 1.8648550e+002 5.2214340e+002
      vertex   1.0000000e-003 1.9372600e+002 5.0680530e+002
    endloop
  endfacet
  facet normal -9.999999e-001 0.0000000e+000 0.0000000e+000
    outer loop
      vertex   1.0000000e-003 1.6729860e+002 3.9797300e+002
      vertex   1.0000000e-003 1.9372600e+002 5.0680530e+002
      vertex   1.0000000e-003 1.7883090e+002 4.1041030e+002
    endloop
  endfacet
  facet normal -9.999999e-001 0.0000000e+000 0.0000000e+000
    outer loop
      vertex   1.0000000e-003 1.7883090e+002 4.1041030e+002
      vertex   1.0000000e-003 1.9372600e+002 5.0680530e+002
      vertex   1.0000000e-003 1.9827020e+002 4.9046420e+002
    endloop
  endfacet
  facet normal -1.000000e+000 0.0000000e+000 0.0000000e+000
    outer loop
      vertex   1.0000000e-003 1.7883090e+002 4.1041030e+002
      vertex   1.0000000e-003 1.9827020e+002 4.9046420e+002
      vertex   1.0000000e-003 1.8809550e+002 4.2461770e+002
    endloop
  endfacet
  facet normal -1.000000e+000 0.0000000e+000 0.0000000e+000
    outer loop
      vertex   1.0000000e-003 1.8809550e+002 4.2461770e+002
      vertex   1.0000000e-003 1.9827020e+002 4.9046420e+002
      vertex   1.0000000e-003 1.9998740e+002 4.7359020e+002
    endloop
  endfacet
  facet normal -1.000000e+000 0.0000000e+000 0.0000000e+000
    outer loop
      vertex   1.0000000e-003 1.8809550e+002 4.2461770e+002
      vertex   1.0000000e-003 1.9998740e+002 4.7359020e+002
      vertex   1.0000000e-003 1.9482580e+002 4.4018640e+002
    endloop
  endfacet
  facet normal -1.000000e+000 0.0000000e+000 0.0000000e+000
    outer loop
      vertex   1.0000000e-003 1.9482580e+002 4.4018640e+002
      vertex   1.0000000e-003 1.9998740e+002 4.7359020e+002
      vertex   1.0000000e-003 1.9882810e+002 4.5666860e+002
    endloop
  endfacet
  facet normal 1.0000000e+000 0.0000000e+000 0.0000000e+000
    outer loop
      vertex   1.5000100e+002 2.8249600e+000 4.9553650e+002
      vertex   1.5000100e+002 2.3484060e-001 4.7877420e+002
      vertex   1.5000100e+002 8.2106570e+000 5.1161990e+002
    endloop
  endfacet
  facet normal 1.0000000e+000 0.0000000e+000 0.0000000e+000
    outer loop
      vertex   1.5000100e+002 8.2106570e+000 5.1161990e+002
      vertex   1.5000100e+002 2.3484060e-001 4.7877420e+002
      vertex   1.5000100e+002 1.6236990e+001 5.2656180e+002
    endloop
  endfacet
  facet normal 1.0000000e+000 0.0000000e+000 0.0000000e+000
    outer loop
      vertex   1.5000100e+002 1.6236990e+001 5.2656180e+002
      vertex   1.5000100e+002 2.3484060e-001 4.7877420e+002
      vertex   1.5000100e+002 5.1481220e-001 4.6181530e+002
    endloop
  endfacet
  facet normal 1.0000000e+000 0.0000000e+000 0.0000000e+000
    outer loop
      vertex   1.5000100e+002 1.6236990e+001 5.2656180e+002
      vertex   1.5000100e+002 5.1481220e-001 4.6181530e+002
      vertex   1.5000100e+002 2.6673070e+001 5.3993230e+002
    endloop
  endfacet
  facet normal 1.0000000e+000 0.0000000e+000 0.0000000e+000
    outer loop
      vertex   1.5000100e+002 2.6673070e+001 5.3993230e+002
      vertex   1.5000100e+002 5.1481220e-001 4.6181530e+002
      vertex   1.5000100e+002 3.6568200e+000 4.4514770e+002
    endloop
  endfacet
  facet normal 1.0000000e+000 0.0000000e+000 0.0000000e+000
    outer loop
      vertex   1.5000100e+002 2.6673070e+001 5.3993230e+002
      vertex   1.5000100e+002 3.6568200e+000 4.4514770e+002
      vertex   1.5000100e+002 3.9218660e+001 5.5134670e+002
    endloop
  endfacet
  facet normal 1.0000000e+000 0.0000000e+000 0.0000000e+000
    outer loop
      vertex   1.5000100e+002 3.9218660e+001 5.5134670e+002
      vertex   1.5000100e+002 3.6568200e+000 4.4514770e+002
      vertex   1.5000100e+002 9.5704750e+000 4.2925080e+002
    endloop
  endfacet
  facet normal 1.0000000e+000 0.0000000e+000 0.0000000e+000
    outer loop
      vertex   1.5000100e+002 3.9218660e+001 5.5134670e+002
      vertex   1.5000100e+002 9.5704750e+000 4.2925080e+002
      vertex   1.5000100e+002 5.3512840e+001 5.6047680e+002
    endloop
  endfacet
  facet normal 1.0000000e+000 0.0000000e+000 0.0000000e+000
    outer loop
      vertex   1.5000100e+002 5.3512840e+001 5.6047680e+002
      vertex   1.5000100e+002 9.5704750e+000 4.2925080e+002
      vertex   1.5000100e+002 1.8085650e+001 4.1458200e+002
    endloop
  endfacet
  facet normal 1.0000000e+000 0.0000000e+000 0.0000000e+000
    outer loop
      vertex   1.5000100e+002 5.3512840e+001 5.6047680e+002
      vertex   1.5000100e+002 1.8085650e+001 4.1458200e+002
      vertex   1.5000100e+002 6.9144410e+001 5.6705980e+002
    endloop
  endfacet
  facet normal 1.0000000e+000 0.0000000e+000 0.0000000e+000
    outer loop
      vertex   1.5000100e+002 6.9144410e+001 5.6705980e+002
      vertex   1.5000100e+002 1.8085650e+001 4.1458200e+002
      vertex   1.5000100e+002 2.8957380e+001 4.0156330e+002
    endloop
  endfacet
  facet normal 1.0000000e+000 0.0000000e+000 0.0000000e+000
    outer loop
      vertex   1.5000100e+002 6.9144410e+001 5.6705980e+002
      vertex   1.5000100e+002 2.8957380e+001 4.0156330e+002
      vertex   1.5000100e+002 8.5663660e+001 5.7090630e+002
    endloop
  endfacet
  facet normal 1.0000000e+000 0.0000000e+000 0.0000000e+000
    outer loop
      vertex   1.5000100e+002 8.5663660e+001 5.7090630e+002
      vertex   1.5000100e+002 2.8957380e+001 4.0156330e+002
      vertex   1.5000100e+002 4.1872910e+001 3.9056920e+002
    endloop
  endfacet
  facet normal 1.0000000e+000 0.0000000e+000 0.0000000e+000
    outer loop
      vertex   1.5000100e+002 8.5663660e+001 5.7090630e+002
      vertex   1.5000100e+002 4.1872910e+001 3.9056920e+002
      vertex   1.5000100e+002 1.0259540e+002 5.7190580e+002
    endloop
  endfacet
  facet normal 9.9999990e-001 0.0000000e+000 0.0000000e+000
    outer loop
      vertex   1.5000100e+002 1.0259540e+002 5.7190580e+002
      vertex   1.5000100e+002 4.1872910e+001 3.9056920e+002
      vertex   1.5000100e+002 5.6460670e+001 3.8191590e+002
    endloop
  endfacet
  facet normal 9.9999990e-001 0.0000000e+000 0.0000000e+000
    outer loop
      vertex   1.5000100e+002 1.0259540e+002 5.7190580e+002
      vertex   1.5000100e+002 5.6460670e+001 3.8191590e+002
      vertex   1.5000100e+002 1.1945240e+002 5.7002940e+002
    endloop
  endfacet
  facet normal 1.0000000e+000 0.0000000e+000 0.0000000e+000
    outer loop
      vertex   1.5000100e+002 1.1945240e+002 5.7002940e+002
      vertex   1.5000100e+002 5.6460670e+001 3.8191590e+002
      vertex   1.5000100e+002 7.2301020e+001 3.7585250e+002
    endloop
  endfacet
  facet normal 1.0000000e+000 0.0000000e+000 0.0000000e+000
    outer loop
      vertex   1.5000100e+002 1.1945240e+002 5.7002940e+002
      vertex   1.5000100e+002 7.2301020e+001 3.7585250e+002
      vertex   1.5000100e+002 1.3574990e+002 5.6533120e+002
    endloop
  endfacet
  facet normal 1.0000000e+000 0.0000000e+000 0.0000000e+000
    outer loop
      vertex   1.5000100e+002 1.3574990e+002 5.6533120e+002
      vertex   1.5000100e+002 7.2301020e+001 3.7585250e+002
      vertex   1.5000100e+002 8.8938230e+001 3.7255330e+002
    endloop
  endfacet
  facet normal 1.0000000e+000 0.0000000e+000 0.0000000e+000
    outer loop
      vertex   1.5000100e+002 1.3574990e+002 5.6533120e+002
      vertex   1.5000100e+002 8.8938230e+001 3.7255330e+002
      vertex   1.5000100e+002 1.5101900e+002 5.5794630e+002
    endloop
  endfacet
  facet normal 1.0000000e+000 0.0000000e+000 0.0000000e+000
    outer loop
      vertex   1.5000100e+002 1.5101900e+002 5.5794630e+002
      vertex   1.5000100e+002 8.8938230e+001 3.7255330e+002
      vertex   1.5000100e+002 1.0589370e+002 3.7211330e+002
    endloop
  endfacet
  facet normal 9.9999990e-001 0.0000000e+000 0.0000000e+000
    outer loop
      vertex   1.5000100e+002 1.5101900e+002 5.5794630e+002
      vertex   1.5000100e+002 1.0589370e+002 3.7211330e+002
      vertex   1.5000100e+002 1.6482040e+002 5.4808700e+002
    endloop
  endfacet
  facet normal 1.0000000e+000 0.0000000e+000 0.0000000e+000
    outer loop
      vertex   1.5000100e+002 1.6482040e+002 5.4808700e+002
      vertex   1.5000100e+002 1.0589370e+002 3.7211330e+002
      vertex   1.5000100e+002 1.2267970e+002 3.7454500e+002
    endloop
  endfacet
  facet normal 1.0000000e+000 0.0000000e+000 0.0000000e+000
    outer loop
      vertex   1.5000100e+002 1.6482040e+002 5.4808700e+002
      vertex   1.5000100e+002 1.2267970e+002 3.7454500e+002
      vertex   1.5000100e+002 1.7675700e+002 5.3603720e+002
    endloop
  endfacet
  facet normal 1.0000000e+000 0.0000000e+000 0.0000000e+000
    outer loop
      vertex   1.5000100e+002 1.7675700e+002 5.3603720e+002
      vertex   1.5000100e+002 1.2267970e+002 3.7454500e+002
      vertex   1.5000100e+002 1.3881320e+002 3.7977870e+002
    endloop
  endfacet
  facet normal 1.0000000e+000 0.0000000e+000 0.0000000e+000
    outer loop
      vertex   1.5000100e+002 1.7675700e+002 5.3603720e+002
      vertex   1.5000100e+002 1.3881320e+002 3.7977870e+002
      vertex   1.5000100e+002 1.8648550e+002 5.2214340e+002
    endloop
  endfacet
  facet normal 1.0000000e+000 0.0000000e+000 0.0000000e+000
    outer loop
      vertex   1.5000100e+002 1.8648550e+002 5.2214340e+002
      vertex   1.5000100e+002 1.3881320e+002 3.7977870e+002
      vertex   1.5000100e+002 1.5383020e+002 3.8766360e+002
    endloop
  endfacet
  facet normal 1.0000000e+000 0.0000000e+000 0.0000000e+000
    outer loop
      vertex   1.5000100e+002 1.8648550e+002 5.2214340e+002
      vertex   1.5000100e+002 1.5383020e+002 3.8766360e+002
      vertex   1.5000100e+002 1.9372600e+002 5.0680530e+002
    endloop
  endfacet
  facet normal 1.0000000e+000 0.0000000e+000 0.0000000e+000
    outer loop
      vertex   1.5000100e+002 1.9372600e+002 5.0680530e+002
      vertex   1.5000100e+002 1.5383020e+002 3.8766360e+002
      vertex   1.5000100e+002 1.6729860e+002 3.9797300e+002
    endloop
  endfacet
  facet normal 1.0000000e+000 0.0000000e+000 0.0000000e+000
    outer loop
      vertex   1.5000100e+002 1.9372600e+002 5.0680530e+002
      vertex   1.5000100e+002 1.6729860e+002 3.9797300e+002
      vertex   1.5000100e+002 1.9827020e+002 4.9046420e+002
    endloop
  endfacet
  facet normal 1.0000000e+000 0.0000000e+000 0.0000000e+000
    outer loop
      vertex   1.5000100e+002 1.9827020e+002 4.9046420e+002
      vertex   1.5000100e+002 1.6729860e+002 3.9797300e+002
      vertex   1.5000100e+002 1.7883090e+002 4.1041030e+002
    endloop
  endfacet
  facet normal 1.0000000e+000 0.0000000e+000 0.0000000e+000
    outer loop
      vertex   1.5000100e+002 1.9827020e+002 4.9046420e+002
      vertex   1.5000100e+002 1.7883090e+002 4.1041030e+002
      vertex   1.5000100e+002 1.9998740e+002 4.7359020e+002
    endloop
  endfacet
  facet normal 1.0000000e+000 0.0000000e+000 0.0000000e+000
    outer loop
      vertex   1.5000100e+002 1.9998740e+002 4.7359020e+002
      vertex   1.5000100e+002 1.7883090e+002 4.1041030e+002
      vertex   1.5000100e+002 1.8809550e+002 4.2461770e+002
    endloop
  endfacet
  facet normal 1.0000000e+000 0.0000000e+000 0.0000000e+000
    outer loop
      vertex   1.5000100e+002 1.9998740e+002 4.7359020e+002
      vertex   1.5000100e+002 1.8809550e+002 4.2461770e+002
      vertex   1.5000100e+002 1.9882810e+002 4.5666860e+002
    endloop
  endfacet
  facet normal 1.0000000e+000 0.0000000e+000 0.0000000e+000
    outer loop
      vertex   1.5000100e+002 1.9882810e+002 4.5666860e+002
      vertex   1.5000100e+002 1.8809550e+002 4.2461770e+002
      vertex   1.5000100e+002 1.9482580e+002 4.4018640e+002
    endloop
  endfacet
endsolid
